<svg width="50" height="50" viewBox="0 0 50 50" xmlns="http://www.w3.org/2000/svg"><title>864A88C4-FD8B-44C1-BF53-D4BB0561C011</title><g transform="rotate(-180 25 25)" fill="none" fill-rule="evenodd"><circle fill-opacity=".776" fill="#FFF" cx="25" cy="25" r="25"/><path d="M34.911 25.404c-.05.13-.123.253-.228.358l-7.952 7.951a1.02 1.02 0 0 1-1.446 0 1.02 1.02 0 0 1 0-1.444L31.554 26H13a1 1 0 0 1 0-2h18.555l-6.27-6.27a1.023 1.023 0 0 1 1.446-1.446l7.952 7.952c.105.106.179.229.229.36.055.124.088.26.088.404a.99.99 0 0 1-.089.404z" fill="#274C45"/></g></svg>