<?xml version="1.0" encoding="UTF-8"?>
<svg width="1920px" height="1079px" viewBox="0 0 1920 1079" version="1.1" xmlns="http://www.w3.org/2000/svg" xmlns:xlink="http://www.w3.org/1999/xlink">
    <!-- Generator: Sketch 41.2 (35397) - http://www.bohemiancoding.com/sketch -->
    <title>background</title>
    <desc>Created with Sketch.</desc>
    <defs>
        <rect id="path-1" x="1478" y="635" width="267.102415" height="267.0899"></rect>
        <filter x="-50%" y="-50%" width="200%" height="200%" filterUnits="objectBoundingBox" id="filter-2">
            <feOffset dx="0" dy="7" in="SourceAlpha" result="shadowOffsetOuter1"></feOffset>
            <feGaussianBlur stdDeviation="27.5" in="shadowOffsetOuter1" result="shadowBlurOuter1"></feGaussianBlur>
            <feColorMatrix values="0 0 0 0 0   0 0 0 0 0   0 0 0 0 0  0 0 0 0.25 0" type="matrix" in="shadowBlurOuter1"></feColorMatrix>
        </filter>
    </defs>
    <g id="Page-1" stroke="none" stroke-width="1" fill="none" fill-rule="evenodd">
        <g id="12" transform="translate(0.000000, -1.000000)">
            <g id="background" transform="translate(0.000000, 1.000000)">
                <polygon id="Path-4" fill="#EBBB8B" points="183.386187 0.203107658 1922 942.8319 1920.89373 0.0139473237"></polygon>
                <polygon id="Path-6" fill="#EF6261" points="244.180332 0.203107658 1922 941.829256 1922 1083 0 1083 0 0.203107658"></polygon>
                <g id="Rectangle-8">
                    <use fill="black" fill-opacity="1" filter="url(#filter-2)" xlink:href="#path-1"></use>
                    <use fill="#EF6261" fill-rule="evenodd" xlink:href="#path-1"></use>
                </g>
                <rect id="Rectangle" fill="#F9F3E3" x="1116" y="0" width="304.4005" height="1082.79689"></rect>
                <path d="M1503.10522,804.102227 C1505.92475,804.102227 1508.21043,801.827255 1508.21043,799.020935 C1508.21043,796.214616 1505.92475,793.939644 1503.10522,793.939644 C1500.28568,793.939644 1498,796.214616 1498,799.020935 C1498,801.827255 1500.28568,804.102227 1503.10522,804.102227 Z M1584.78868,804.102227 C1587.60822,804.102227 1589.8939,801.827255 1589.8939,799.020935 C1589.8939,796.214616 1587.60822,793.939644 1584.78868,793.939644 C1581.96915,793.939644 1579.68347,796.214616 1579.68347,799.020935 C1579.68347,801.827255 1581.96915,804.102227 1584.78868,804.102227 Z M1543.94695,804.102227 C1546.76648,804.102227 1549.05217,801.827255 1549.05217,799.020935 C1549.05217,796.214616 1546.76648,793.939644 1543.94695,793.939644 C1541.12742,793.939644 1538.84173,796.214616 1538.84173,799.020935 C1538.84173,801.827255 1541.12742,804.102227 1543.94695,804.102227 Z M1625.57779,804.38452 C1628.39732,804.38452 1630.683,802.109549 1630.683,799.303229 C1630.683,796.49691 1628.39732,794.221938 1625.57779,794.221938 C1622.75825,794.221938 1620.47257,796.49691 1620.47257,799.303229 C1620.47257,802.109549 1622.75825,804.38452 1625.57779,804.38452 Z M1667.78793,804.38452 C1670.60746,804.38452 1672.89315,802.109549 1672.89315,799.303229 C1672.89315,796.49691 1670.60746,794.221938 1667.78793,794.221938 C1664.9684,794.221938 1662.68271,796.49691 1662.68271,799.303229 C1662.68271,802.109549 1664.9684,804.38452 1667.78793,804.38452 Z M1523.52608,804.102227 C1526.34562,804.102227 1528.6313,801.827255 1528.6313,799.020935 C1528.6313,796.214616 1526.34562,793.939644 1523.52608,793.939644 C1520.70655,793.939644 1518.42087,796.214616 1518.42087,799.020935 C1518.42087,801.827255 1520.70655,804.102227 1523.52608,804.102227 Z M1605.05166,804.38452 C1607.87119,804.38452 1610.15688,802.109549 1610.15688,799.303229 C1610.15688,796.49691 1607.87119,794.221938 1605.05166,794.221938 C1602.23213,794.221938 1599.94644,796.49691 1599.94644,799.303229 C1599.94644,802.109549 1602.23213,804.38452 1605.05166,804.38452 Z M1647.2618,804.38452 C1650.08133,804.38452 1652.36702,802.109549 1652.36702,799.303229 C1652.36702,796.49691 1650.08133,794.221938 1647.2618,794.221938 C1644.44227,794.221938 1642.15658,796.49691 1642.15658,799.303229 C1642.15658,802.109549 1644.44227,804.38452 1647.2618,804.38452 Z M1564.36782,804.102227 C1567.18735,804.102227 1569.47303,801.827255 1569.47303,799.020935 C1569.47303,796.214616 1567.18735,793.939644 1564.36782,793.939644 C1561.54828,793.939644 1559.2626,796.214616 1559.2626,799.020935 C1559.2626,801.827255 1561.54828,804.102227 1564.36782,804.102227 Z M1503.10522,824.427391 C1505.92475,824.427391 1508.21043,822.15242 1508.21043,819.3461 C1508.21043,816.53978 1505.92475,814.264809 1503.10522,814.264809 C1500.28568,814.264809 1498,816.53978 1498,819.3461 C1498,822.15242 1500.28568,824.427391 1503.10522,824.427391 Z M1584.78868,824.427391 C1587.60822,824.427391 1589.8939,822.15242 1589.8939,819.3461 C1589.8939,816.53978 1587.60822,814.264809 1584.78868,814.264809 C1581.96915,814.264809 1579.68347,816.53978 1579.68347,819.3461 C1579.68347,822.15242 1581.96915,824.427391 1584.78868,824.427391 Z M1543.94695,824.427391 C1546.76648,824.427391 1549.05217,822.15242 1549.05217,819.3461 C1549.05217,816.53978 1546.76648,814.264809 1543.94695,814.264809 C1541.12742,814.264809 1538.84173,816.53978 1538.84173,819.3461 C1538.84173,822.15242 1541.12742,824.427391 1543.94695,824.427391 Z M1625.57779,824.26608 C1628.39732,824.26608 1630.683,821.991109 1630.683,819.184789 C1630.683,816.37847 1628.39732,814.103498 1625.57779,814.103498 C1622.75825,814.103498 1620.47257,816.37847 1620.47257,819.184789 C1620.47257,821.991109 1622.75825,824.26608 1625.57779,824.26608 Z M1667.78793,824.26608 C1670.60746,824.26608 1672.89315,821.991109 1672.89315,819.184789 C1672.89315,816.37847 1670.60746,814.103498 1667.78793,814.103498 C1664.9684,814.103498 1662.68271,816.37847 1662.68271,819.184789 C1662.68271,821.991109 1664.9684,824.26608 1667.78793,824.26608 Z M1523.52608,824.427391 C1526.34562,824.427391 1528.6313,822.15242 1528.6313,819.3461 C1528.6313,816.53978 1526.34562,814.264809 1523.52608,814.264809 C1520.70655,814.264809 1518.42087,816.53978 1518.42087,819.3461 C1518.42087,822.15242 1520.70655,824.427391 1523.52608,824.427391 Z M1605.05166,824.26608 C1607.87119,824.26608 1610.15688,821.991109 1610.15688,819.184789 C1610.15688,816.37847 1607.87119,814.103498 1605.05166,814.103498 C1602.23213,814.103498 1599.94644,816.37847 1599.94644,819.184789 C1599.94644,821.991109 1602.23213,824.26608 1605.05166,824.26608 Z M1647.2618,824.26608 C1650.08133,824.26608 1652.36702,821.991109 1652.36702,819.184789 C1652.36702,816.37847 1650.08133,814.103498 1647.2618,814.103498 C1644.44227,814.103498 1642.15658,816.37847 1642.15658,819.184789 C1642.15658,821.991109 1644.44227,824.26608 1647.2618,824.26608 Z M1564.36782,824.427391 C1567.18735,824.427391 1569.47303,822.15242 1569.47303,819.3461 C1569.47303,816.53978 1567.18735,814.264809 1564.36782,814.264809 C1561.54828,814.264809 1559.2626,816.53978 1559.2626,819.3461 C1559.2626,822.15242 1561.54828,824.427391 1564.36782,824.427391 Z M1503.10522,722.801567 C1505.92475,722.801567 1508.21043,720.526596 1508.21043,717.720276 C1508.21043,714.913957 1505.92475,712.638985 1503.10522,712.638985 C1500.28568,712.638985 1498,714.913957 1498,717.720276 C1498,720.526596 1500.28568,722.801567 1503.10522,722.801567 Z M1584.78868,722.801567 C1587.60822,722.801567 1589.8939,720.526596 1589.8939,717.720276 C1589.8939,714.913957 1587.60822,712.638985 1584.78868,712.638985 C1581.96915,712.638985 1579.68347,714.913957 1579.68347,717.720276 C1579.68347,720.526596 1581.96915,722.801567 1584.78868,722.801567 Z M1543.94695,722.801567 C1546.76648,722.801567 1549.05217,720.526596 1549.05217,717.720276 C1549.05217,714.913957 1546.76648,712.638985 1543.94695,712.638985 C1541.12742,712.638985 1538.84173,714.913957 1538.84173,717.720276 C1538.84173,720.526596 1541.12742,722.801567 1543.94695,722.801567 Z M1625.41611,722.801567 C1628.23564,722.801567 1630.52133,720.526596 1630.52133,717.720276 C1630.52133,714.913957 1628.23564,712.638985 1625.41611,712.638985 C1622.59658,712.638985 1620.31089,714.913957 1620.31089,717.720276 C1620.31089,720.526596 1622.59658,722.801567 1625.41611,722.801567 Z M1677.99836,662.162582 C1680.8179,662.162582 1683.10358,659.887611 1683.10358,657.081291 C1683.10358,654.274972 1680.8179,652 1677.99836,652 C1675.17883,652 1672.89315,654.274972 1672.89315,657.081291 C1672.89315,659.887611 1675.17883,662.162582 1677.99836,662.162582 Z M1667.71053,722.801567 C1670.53006,722.801567 1672.81575,720.526596 1672.81575,717.720276 C1672.81575,714.913957 1670.53006,712.638985 1667.71053,712.638985 C1664.891,712.638985 1662.60531,714.913957 1662.60531,717.720276 C1662.60531,720.526596 1664.891,722.801567 1667.71053,722.801567 Z M1720.29278,662.162582 C1723.11232,662.162582 1725.398,659.887611 1725.398,657.081291 C1725.398,654.274972 1723.11232,652 1720.29278,652 C1717.47325,652 1715.18757,654.274972 1715.18757,657.081291 C1715.18757,659.887611 1717.47325,662.162582 1720.29278,662.162582 Z M1523.52608,722.801567 C1526.34562,722.801567 1528.6313,720.526596 1528.6313,717.720276 C1528.6313,714.913957 1526.34562,712.638985 1523.52608,712.638985 C1520.70655,712.638985 1518.42087,714.913957 1518.42087,717.720276 C1518.42087,720.526596 1520.70655,722.801567 1523.52608,722.801567 Z M1604.84045,722.801567 C1607.65998,722.801567 1609.94566,720.526596 1609.94566,717.720276 C1609.94566,714.913957 1607.65998,712.638985 1604.84045,712.638985 C1602.02091,712.638985 1599.73523,714.913957 1599.73523,717.720276 C1599.73523,720.526596 1602.02091,722.801567 1604.84045,722.801567 Z M1647.13487,722.801567 C1649.9544,722.801567 1652.24008,720.526596 1652.24008,717.720276 C1652.24008,714.913957 1649.9544,712.638985 1647.13487,712.638985 C1644.31533,712.638985 1642.02965,714.913957 1642.02965,717.720276 C1642.02965,720.526596 1644.31533,722.801567 1647.13487,722.801567 Z M1699.71712,662.162582 C1702.53665,662.162582 1704.82234,659.887611 1704.82234,657.081291 C1704.82234,654.274972 1702.53665,652 1699.71712,652 C1696.89759,652 1694.6119,654.274972 1694.6119,657.081291 C1694.6119,659.887611 1696.89759,662.162582 1699.71712,662.162582 Z M1564.36782,722.801567 C1567.18735,722.801567 1569.47303,720.526596 1569.47303,717.720276 C1569.47303,714.913957 1567.18735,712.638985 1564.36782,712.638985 C1561.54828,712.638985 1559.2626,714.913957 1559.2626,717.720276 C1559.2626,720.526596 1561.54828,722.801567 1564.36782,722.801567 Z M1503.10522,844.752556 C1505.92475,844.752556 1508.21043,842.477585 1508.21043,839.671265 C1508.21043,836.864945 1505.92475,834.589974 1503.10522,834.589974 C1500.28568,834.589974 1498,836.864945 1498,839.671265 C1498,842.477585 1500.28568,844.752556 1503.10522,844.752556 Z M1584.78868,844.752556 C1587.60822,844.752556 1589.8939,842.477585 1589.8939,839.671265 C1589.8939,836.864945 1587.60822,834.589974 1584.78868,834.589974 C1581.96915,834.589974 1579.68347,836.864945 1579.68347,839.671265 C1579.68347,842.477585 1581.96915,844.752556 1584.78868,844.752556 Z M1543.94695,844.752556 C1546.76648,844.752556 1549.05217,842.477585 1549.05217,839.671265 C1549.05217,836.864945 1546.76648,834.589974 1543.94695,834.589974 C1541.12742,834.589974 1538.84173,836.864945 1538.84173,839.671265 C1538.84173,842.477585 1541.12742,844.752556 1543.94695,844.752556 Z M1625.57779,844.833212 C1628.39732,844.833212 1630.683,842.55824 1630.683,839.75192 C1630.683,836.945601 1628.39732,834.670629 1625.57779,834.670629 C1622.75825,834.670629 1620.47257,836.945601 1620.47257,839.75192 C1620.47257,842.55824 1622.75825,844.833212 1625.57779,844.833212 Z M1667.78793,844.833212 C1670.60746,844.833212 1672.89315,842.55824 1672.89315,839.75192 C1672.89315,836.945601 1670.60746,834.670629 1667.78793,834.670629 C1664.9684,834.670629 1662.68271,836.945601 1662.68271,839.75192 C1662.68271,842.55824 1664.9684,844.833212 1667.78793,844.833212 Z M1523.52608,844.752556 C1526.34562,844.752556 1528.6313,842.477585 1528.6313,839.671265 C1528.6313,836.864945 1526.34562,834.589974 1523.52608,834.589974 C1520.70655,834.589974 1518.42087,836.864945 1518.42087,839.671265 C1518.42087,842.477585 1520.70655,844.752556 1523.52608,844.752556 Z M1605.05166,844.833212 C1607.87119,844.833212 1610.15688,842.55824 1610.15688,839.75192 C1610.15688,836.945601 1607.87119,834.670629 1605.05166,834.670629 C1602.23213,834.670629 1599.94644,836.945601 1599.94644,839.75192 C1599.94644,842.55824 1602.23213,844.833212 1605.05166,844.833212 Z M1647.2618,844.833212 C1650.08133,844.833212 1652.36702,842.55824 1652.36702,839.75192 C1652.36702,836.945601 1650.08133,834.670629 1647.2618,834.670629 C1644.44227,834.670629 1642.15658,836.945601 1642.15658,839.75192 C1642.15658,842.55824 1644.44227,844.833212 1647.2618,844.833212 Z M1564.36782,844.752556 C1567.18735,844.752556 1569.47303,842.477585 1569.47303,839.671265 C1569.47303,836.864945 1567.18735,834.589974 1564.36782,834.589974 C1561.54828,834.589974 1559.2626,836.864945 1559.2626,839.671265 C1559.2626,842.477585 1561.54828,844.752556 1564.36782,844.752556 Z M1503.10522,743.126732 C1505.92475,743.126732 1508.21043,740.851761 1508.21043,738.045441 C1508.21043,735.239121 1505.92475,732.96415 1503.10522,732.96415 C1500.28568,732.96415 1498,735.239121 1498,738.045441 C1498,740.851761 1500.28568,743.126732 1503.10522,743.126732 Z M1584.78868,743.126732 C1587.60822,743.126732 1589.8939,740.851761 1589.8939,738.045441 C1589.8939,735.239121 1587.60822,732.96415 1584.78868,732.96415 C1581.96915,732.96415 1579.68347,735.239121 1579.68347,738.045441 C1579.68347,740.851761 1581.96915,743.126732 1584.78868,743.126732 Z M1543.94695,743.126732 C1546.76648,743.126732 1549.05217,740.851761 1549.05217,738.045441 C1549.05217,735.239121 1546.76648,732.96415 1543.94695,732.96415 C1541.12742,732.96415 1538.84173,735.239121 1538.84173,738.045441 C1538.84173,740.851761 1541.12742,743.126732 1543.94695,743.126732 Z M1625.41611,743.39594 C1628.23564,743.39594 1630.52133,741.120968 1630.52133,738.314648 C1630.52133,735.508329 1628.23564,733.233357 1625.41611,733.233357 C1622.59658,733.233357 1620.31089,735.508329 1620.31089,738.314648 C1620.31089,741.120968 1622.59658,743.39594 1625.41611,743.39594 Z M1677.99836,682.756955 C1680.8179,682.756955 1683.10358,680.481983 1683.10358,677.675663 C1683.10358,674.869344 1680.8179,672.594372 1677.99836,672.594372 C1675.17883,672.594372 1672.89315,674.869344 1672.89315,677.675663 C1672.89315,680.481983 1675.17883,682.756955 1677.99836,682.756955 Z M1667.71053,743.39594 C1670.53006,743.39594 1672.81575,741.120968 1672.81575,738.314648 C1672.81575,735.508329 1670.53006,733.233357 1667.71053,733.233357 C1664.891,733.233357 1662.60531,735.508329 1662.60531,738.314648 C1662.60531,741.120968 1664.891,743.39594 1667.71053,743.39594 Z M1720.29278,682.756955 C1723.11232,682.756955 1725.398,680.481983 1725.398,677.675663 C1725.398,674.869344 1723.11232,672.594372 1720.29278,672.594372 C1717.47325,672.594372 1715.18757,674.869344 1715.18757,677.675663 C1715.18757,680.481983 1717.47325,682.756955 1720.29278,682.756955 Z M1523.52608,743.126732 C1526.34562,743.126732 1528.6313,740.851761 1528.6313,738.045441 C1528.6313,735.239121 1526.34562,732.96415 1523.52608,732.96415 C1520.70655,732.96415 1518.42087,735.239121 1518.42087,738.045441 C1518.42087,740.851761 1520.70655,743.126732 1523.52608,743.126732 Z M1604.84045,743.39594 C1607.65998,743.39594 1609.94566,741.120968 1609.94566,738.314648 C1609.94566,735.508329 1607.65998,733.233357 1604.84045,733.233357 C1602.02091,733.233357 1599.73523,735.508329 1599.73523,738.314648 C1599.73523,741.120968 1602.02091,743.39594 1604.84045,743.39594 Z M1647.13487,743.39594 C1649.9544,743.39594 1652.24008,741.120968 1652.24008,738.314648 C1652.24008,735.508329 1649.9544,733.233357 1647.13487,733.233357 C1644.31533,733.233357 1642.02965,735.508329 1642.02965,738.314648 C1642.02965,741.120968 1644.31533,743.39594 1647.13487,743.39594 Z M1699.71712,682.756955 C1702.53665,682.756955 1704.82234,680.481983 1704.82234,677.675663 C1704.82234,674.869344 1702.53665,672.594372 1699.71712,672.594372 C1696.89759,672.594372 1694.6119,674.869344 1694.6119,677.675663 C1694.6119,680.481983 1696.89759,682.756955 1699.71712,682.756955 Z M1564.36782,743.126732 C1567.18735,743.126732 1569.47303,740.851761 1569.47303,738.045441 C1569.47303,735.239121 1567.18735,732.96415 1564.36782,732.96415 C1561.54828,732.96415 1559.2626,735.239121 1559.2626,738.045441 C1559.2626,740.851761 1561.54828,743.126732 1564.36782,743.126732 Z M1503.10522,865.077721 C1505.92475,865.077721 1508.21043,862.802749 1508.21043,859.99643 C1508.21043,857.19011 1505.92475,854.915139 1503.10522,854.915139 C1500.28568,854.915139 1498,857.19011 1498,859.99643 C1498,862.802749 1500.28568,865.077721 1503.10522,865.077721 Z M1584.78868,865.077721 C1587.60822,865.077721 1589.8939,862.802749 1589.8939,859.99643 C1589.8939,857.19011 1587.60822,854.915139 1584.78868,854.915139 C1581.96915,854.915139 1579.68347,857.19011 1579.68347,859.99643 C1579.68347,862.802749 1581.96915,865.077721 1584.78868,865.077721 Z M1543.94695,865.077721 C1546.76648,865.077721 1549.05217,862.802749 1549.05217,859.99643 C1549.05217,857.19011 1546.76648,854.915139 1543.94695,854.915139 C1541.12742,854.915139 1538.84173,857.19011 1538.84173,859.99643 C1538.84173,862.802749 1541.12742,865.077721 1543.94695,865.077721 Z M1625.57779,865.400343 C1628.39732,865.400343 1630.683,863.125371 1630.683,860.319051 C1630.683,857.512732 1628.39732,855.23776 1625.57779,855.23776 C1622.75825,855.23776 1620.47257,857.512732 1620.47257,860.319051 C1620.47257,863.125371 1622.75825,865.400343 1625.57779,865.400343 Z M1667.78793,865.400343 C1670.60746,865.400343 1672.89315,863.125371 1672.89315,860.319051 C1672.89315,857.512732 1670.60746,855.23776 1667.78793,855.23776 C1664.9684,855.23776 1662.68271,857.512732 1662.68271,860.319051 C1662.68271,863.125371 1664.9684,865.400343 1667.78793,865.400343 Z M1523.52608,865.077721 C1526.34562,865.077721 1528.6313,862.802749 1528.6313,859.99643 C1528.6313,857.19011 1526.34562,854.915139 1523.52608,854.915139 C1520.70655,854.915139 1518.42087,857.19011 1518.42087,859.99643 C1518.42087,862.802749 1520.70655,865.077721 1523.52608,865.077721 Z M1605.05166,865.400343 C1607.87119,865.400343 1610.15688,863.125371 1610.15688,860.319051 C1610.15688,857.512732 1607.87119,855.23776 1605.05166,855.23776 C1602.23213,855.23776 1599.94644,857.512732 1599.94644,860.319051 C1599.94644,863.125371 1602.23213,865.400343 1605.05166,865.400343 Z M1647.2618,865.400343 C1650.08133,865.400343 1652.36702,863.125371 1652.36702,860.319051 C1652.36702,857.512732 1650.08133,855.23776 1647.2618,855.23776 C1644.44227,855.23776 1642.15658,857.512732 1642.15658,860.319051 C1642.15658,863.125371 1644.44227,865.400343 1647.2618,865.400343 Z M1564.36782,865.077721 C1567.18735,865.077721 1569.47303,862.802749 1569.47303,859.99643 C1569.47303,857.19011 1567.18735,854.915139 1564.36782,854.915139 C1561.54828,854.915139 1559.2626,857.19011 1559.2626,859.99643 C1559.2626,862.802749 1561.54828,865.077721 1564.36782,865.077721 Z M1503.10522,763.451897 C1505.92475,763.451897 1508.21043,761.176925 1508.21043,758.370606 C1508.21043,755.564286 1505.92475,753.289315 1503.10522,753.289315 C1500.28568,753.289315 1498,755.564286 1498,758.370606 C1498,761.176925 1500.28568,763.451897 1503.10522,763.451897 Z M1584.78868,763.451897 C1587.60822,763.451897 1589.8939,761.176925 1589.8939,758.370606 C1589.8939,755.564286 1587.60822,753.289315 1584.78868,753.289315 C1581.96915,753.289315 1579.68347,755.564286 1579.68347,758.370606 C1579.68347,761.176925 1581.96915,763.451897 1584.78868,763.451897 Z M1543.94695,763.451897 C1546.76648,763.451897 1549.05217,761.176925 1549.05217,758.370606 C1549.05217,755.564286 1546.76648,753.289315 1543.94695,753.289315 C1541.12742,753.289315 1538.84173,755.564286 1538.84173,758.370606 C1538.84173,761.176925 1541.12742,763.451897 1543.94695,763.451897 Z M1625.41611,762.84618 C1628.23564,762.84618 1630.52133,760.571209 1630.52133,757.764889 C1630.52133,754.958569 1628.23564,752.683598 1625.41611,752.683598 C1622.59658,752.683598 1620.31089,754.958569 1620.31089,757.764889 C1620.31089,760.571209 1622.59658,762.84618 1625.41611,762.84618 Z M1677.99836,703.351327 C1680.8179,703.351327 1683.10358,701.076355 1683.10358,698.270036 C1683.10358,695.463716 1680.8179,693.188745 1677.99836,693.188745 C1675.17883,693.188745 1672.89315,695.463716 1672.89315,698.270036 C1672.89315,701.076355 1675.17883,703.351327 1677.99836,703.351327 Z M1667.71053,763.990312 C1670.53006,763.990312 1672.81575,761.71534 1672.81575,758.909021 C1672.81575,756.102701 1670.53006,753.82773 1667.71053,753.82773 C1664.891,753.82773 1662.60531,756.102701 1662.60531,758.909021 C1662.60531,761.71534 1664.891,763.990312 1667.71053,763.990312 Z M1720.29278,703.351327 C1723.11232,703.351327 1725.398,701.076355 1725.398,698.270036 C1725.398,695.463716 1723.11232,693.188745 1720.29278,693.188745 C1717.47325,693.188745 1715.18757,695.463716 1715.18757,698.270036 C1715.18757,701.076355 1717.47325,703.351327 1720.29278,703.351327 Z M1523.52608,763.451897 C1526.34562,763.451897 1528.6313,761.176925 1528.6313,758.370606 C1528.6313,755.564286 1526.34562,753.289315 1523.52608,753.289315 C1520.70655,753.289315 1518.42087,755.564286 1518.42087,758.370606 C1518.42087,761.176925 1520.70655,763.451897 1523.52608,763.451897 Z M1605.05166,763.250258 C1607.87119,763.250258 1610.15688,760.975287 1610.15688,758.168967 C1610.15688,755.362648 1607.87119,753.087676 1605.05166,753.087676 C1602.23213,753.087676 1599.94644,755.362648 1599.94644,758.168967 C1599.94644,760.975287 1602.23213,763.250258 1605.05166,763.250258 Z M1647.13487,763.990312 C1649.9544,763.990312 1652.24008,761.71534 1652.24008,758.909021 C1652.24008,756.102701 1649.9544,753.82773 1647.13487,753.82773 C1644.31533,753.82773 1642.02965,756.102701 1642.02965,758.909021 C1642.02965,761.71534 1644.31533,763.990312 1647.13487,763.990312 Z M1699.71712,703.351327 C1702.53665,703.351327 1704.82234,701.076355 1704.82234,698.270036 C1704.82234,695.463716 1702.53665,693.188745 1699.71712,693.188745 C1696.89759,693.188745 1694.6119,695.463716 1694.6119,698.270036 C1694.6119,701.076355 1696.89759,703.351327 1699.71712,703.351327 Z M1564.36782,763.451897 C1567.18735,763.451897 1569.47303,761.176925 1569.47303,758.370606 C1569.47303,755.564286 1567.18735,753.289315 1564.36782,753.289315 C1561.54828,753.289315 1559.2626,755.564286 1559.2626,758.370606 C1559.2626,761.176925 1561.54828,763.451897 1564.36782,763.451897 Z M1503.10522,885.402886 C1505.92475,885.402886 1508.21043,883.127914 1508.21043,880.321594 C1508.21043,877.515275 1505.92475,875.240303 1503.10522,875.240303 C1500.28568,875.240303 1498,877.515275 1498,880.321594 C1498,883.127914 1500.28568,885.402886 1503.10522,885.402886 Z M1584.78868,885.402886 C1587.60822,885.402886 1589.8939,883.127914 1589.8939,880.321594 C1589.8939,877.515275 1587.60822,875.240303 1584.78868,875.240303 C1581.96915,875.240303 1579.68347,877.515275 1579.68347,880.321594 C1579.68347,883.127914 1581.96915,885.402886 1584.78868,885.402886 Z M1543.94695,885.402886 C1546.76648,885.402886 1549.05217,883.127914 1549.05217,880.321594 C1549.05217,877.515275 1546.76648,875.240303 1543.94695,875.240303 C1541.12742,875.240303 1538.84173,877.515275 1538.84173,880.321594 C1538.84173,883.127914 1541.12742,885.402886 1543.94695,885.402886 Z M1625.57779,885.281903 C1628.39732,885.281903 1630.683,883.006931 1630.683,880.200611 C1630.683,877.394292 1628.39732,875.11932 1625.57779,875.11932 C1622.75825,875.11932 1620.47257,877.394292 1620.47257,880.200611 C1620.47257,883.006931 1622.75825,885.281903 1625.57779,885.281903 Z M1667.78793,885.281903 C1670.60746,885.281903 1672.89315,883.006931 1672.89315,880.200611 C1672.89315,877.394292 1670.60746,875.11932 1667.78793,875.11932 C1664.9684,875.11932 1662.68271,877.394292 1662.68271,880.200611 C1662.68271,883.006931 1664.9684,885.281903 1667.78793,885.281903 Z M1523.52608,885.402886 C1526.34562,885.402886 1528.6313,883.127914 1528.6313,880.321594 C1528.6313,877.515275 1526.34562,875.240303 1523.52608,875.240303 C1520.70655,875.240303 1518.42087,877.515275 1518.42087,880.321594 C1518.42087,883.127914 1520.70655,885.402886 1523.52608,885.402886 Z M1605.05166,885.281903 C1607.87119,885.281903 1610.15688,883.006931 1610.15688,880.200611 C1610.15688,877.394292 1607.87119,875.11932 1605.05166,875.11932 C1602.23213,875.11932 1599.94644,877.394292 1599.94644,880.200611 C1599.94644,883.006931 1602.23213,885.281903 1605.05166,885.281903 Z M1647.2618,885.281903 C1650.08133,885.281903 1652.36702,883.006931 1652.36702,880.200611 C1652.36702,877.394292 1650.08133,875.11932 1647.2618,875.11932 C1644.44227,875.11932 1642.15658,877.394292 1642.15658,880.200611 C1642.15658,883.006931 1644.44227,885.281903 1647.2618,885.281903 Z M1564.36782,885.402886 C1567.18735,885.402886 1569.47303,883.127914 1569.47303,880.321594 C1569.47303,877.515275 1567.18735,875.240303 1564.36782,875.240303 C1561.54828,875.240303 1559.2626,877.515275 1559.2626,880.321594 C1559.2626,883.127914 1561.54828,885.402886 1564.36782,885.402886 Z M1503.10522,783.777062 C1505.92475,783.777062 1508.21043,781.50209 1508.21043,778.695771 C1508.21043,775.889451 1505.92475,773.614479 1503.10522,773.614479 C1500.28568,773.614479 1498,775.889451 1498,778.695771 C1498,781.50209 1500.28568,783.777062 1503.10522,783.777062 Z M1584.78868,783.777062 C1587.60822,783.777062 1589.8939,781.50209 1589.8939,778.695771 C1589.8939,775.889451 1587.60822,773.614479 1584.78868,773.614479 C1581.96915,773.614479 1579.68347,775.889451 1579.68347,778.695771 C1579.68347,781.50209 1581.96915,783.777062 1584.78868,783.777062 Z M1543.94695,783.777062 C1546.76648,783.777062 1549.05217,781.50209 1549.05217,778.695771 C1549.05217,775.889451 1546.76648,773.614479 1543.94695,773.614479 C1541.12742,773.614479 1538.84173,775.889451 1538.84173,778.695771 C1538.84173,781.50209 1541.12742,783.777062 1543.94695,783.777062 Z M1625.57779,783.817389 C1628.39732,783.817389 1630.683,781.542418 1630.683,778.736098 C1630.683,775.929779 1628.39732,773.654807 1625.57779,773.654807 C1622.75825,773.654807 1620.47257,775.929779 1620.47257,778.736098 C1620.47257,781.542418 1622.75825,783.817389 1625.57779,783.817389 Z M1667.78793,783.817389 C1670.60746,783.817389 1672.89315,781.542418 1672.89315,778.736098 C1672.89315,775.929779 1670.60746,773.654807 1667.78793,773.654807 C1664.9684,773.654807 1662.68271,775.929779 1662.68271,778.736098 C1662.68271,781.542418 1664.9684,783.817389 1667.78793,783.817389 Z M1523.52608,783.777062 C1526.34562,783.777062 1528.6313,781.50209 1528.6313,778.695771 C1528.6313,775.889451 1526.34562,773.614479 1523.52608,773.614479 C1520.70655,773.614479 1518.42087,775.889451 1518.42087,778.695771 C1518.42087,781.50209 1520.70655,783.777062 1523.52608,783.777062 Z M1605.05166,783.817389 C1607.87119,783.817389 1610.15688,781.542418 1610.15688,778.736098 C1610.15688,775.929779 1607.87119,773.654807 1605.05166,773.654807 C1602.23213,773.654807 1599.94644,775.929779 1599.94644,778.736098 C1599.94644,781.542418 1602.23213,783.817389 1605.05166,783.817389 Z M1647.2618,783.817389 C1650.08133,783.817389 1652.36702,781.542418 1652.36702,778.736098 C1652.36702,775.929779 1650.08133,773.654807 1647.2618,773.654807 C1644.44227,773.654807 1642.15658,775.929779 1642.15658,778.736098 C1642.15658,781.542418 1644.44227,783.817389 1647.2618,783.817389 Z M1564.36782,783.777062 C1567.18735,783.777062 1569.47303,781.50209 1569.47303,778.695771 C1569.47303,775.889451 1567.18735,773.614479 1564.36782,773.614479 C1561.54828,773.614479 1559.2626,775.889451 1559.2626,778.695771 C1559.2626,781.50209 1561.54828,783.777062 1564.36782,783.777062 Z" id="Combined-Shape" fill="#EBBB8B"></path>
                <path d="M1172.90293,195.736512 C1176.16303,195.736512 1178.80586,193.104584 1178.80586,189.857936 C1178.80586,186.611288 1176.16303,183.979359 1172.90293,183.979359 C1169.64283,183.979359 1167,186.611288 1167,189.857936 C1167,193.104584 1169.64283,195.736512 1172.90293,195.736512 Z M1268.06578,195.736512 C1271.32588,195.736512 1273.96871,193.104584 1273.96871,189.857936 C1273.96871,186.611288 1271.32588,183.979359 1268.06578,183.979359 C1264.80568,183.979359 1262.16285,186.611288 1262.16285,189.857936 C1262.16285,193.104584 1264.80568,195.736512 1268.06578,195.736512 Z M1220.48436,195.736512 C1223.74445,195.736512 1226.38729,193.104584 1226.38729,189.857936 C1226.38729,186.611288 1223.74445,183.979359 1220.48436,183.979359 C1217.22426,183.979359 1214.58142,186.611288 1214.58142,189.857936 C1214.58142,193.104584 1217.22426,195.736512 1220.48436,195.736512 Z M1314.3255,195.736512 C1317.58559,195.736512 1320.22843,193.104584 1320.22843,189.857936 C1320.22843,186.611288 1317.58559,183.979359 1314.3255,183.979359 C1311.0654,183.979359 1308.42256,186.611288 1308.42256,189.857936 C1308.42256,193.104584 1311.0654,195.736512 1314.3255,195.736512 Z M1363.22863,195.736512 C1366.48872,195.736512 1369.13156,193.104584 1369.13156,189.857936 C1369.13156,186.611288 1366.48872,183.979359 1363.22863,183.979359 C1359.96853,183.979359 1357.32569,186.611288 1357.32569,189.857936 C1357.32569,193.104584 1359.96853,195.736512 1363.22863,195.736512 Z M1196.69364,195.736512 C1199.95374,195.736512 1202.59657,193.104584 1202.59657,189.857936 C1202.59657,186.611288 1199.95374,183.979359 1196.69364,183.979359 C1193.43354,183.979359 1190.79071,186.611288 1190.79071,189.857936 C1190.79071,193.104584 1193.43354,195.736512 1196.69364,195.736512 Z M1290.53478,195.736512 C1293.79488,195.736512 1296.43772,193.104584 1296.43772,189.857936 C1296.43772,186.611288 1293.79488,183.979359 1290.53478,183.979359 C1287.27468,183.979359 1284.63185,186.611288 1284.63185,189.857936 C1284.63185,193.104584 1287.27468,195.736512 1290.53478,195.736512 Z M1339.43791,195.736512 C1342.69801,195.736512 1345.34085,193.104584 1345.34085,189.857936 C1345.34085,186.611288 1342.69801,183.979359 1339.43791,183.979359 C1336.17781,183.979359 1333.53498,186.611288 1333.53498,189.857936 C1333.53498,193.104584 1336.17781,195.736512 1339.43791,195.736512 Z M1244.27507,195.736512 C1247.53517,195.736512 1250.178,193.104584 1250.178,189.857936 C1250.178,186.611288 1247.53517,183.979359 1244.27507,183.979359 C1241.01497,183.979359 1238.37214,186.611288 1238.37214,189.857936 C1238.37214,193.104584 1241.01497,195.736512 1244.27507,195.736512 Z M1172.90293,218.238612 C1176.16303,218.238612 1178.80586,215.606684 1178.80586,212.360036 C1178.80586,209.113388 1176.16303,206.481459 1172.90293,206.481459 C1169.64283,206.481459 1167,209.113388 1167,212.360036 C1167,215.606684 1169.64283,218.238612 1172.90293,218.238612 Z M1268.06578,218.238612 C1271.32588,218.238612 1273.96871,215.606684 1273.96871,212.360036 C1273.96871,209.113388 1271.32588,206.481459 1268.06578,206.481459 C1264.80568,206.481459 1262.16285,209.113388 1262.16285,212.360036 C1262.16285,215.606684 1264.80568,218.238612 1268.06578,218.238612 Z M1220.48436,218.238612 C1223.74445,218.238612 1226.38729,215.606684 1226.38729,212.360036 C1226.38729,209.113388 1223.74445,206.481459 1220.48436,206.481459 C1217.22426,206.481459 1214.58142,209.113388 1214.58142,212.360036 C1214.58142,215.606684 1217.22426,218.238612 1220.48436,218.238612 Z M1314.3255,218.238612 C1317.58559,218.238612 1320.22843,215.606684 1320.22843,212.360036 C1320.22843,209.113388 1317.58559,206.481459 1314.3255,206.481459 C1311.0654,206.481459 1308.42256,209.113388 1308.42256,212.360036 C1308.42256,215.606684 1311.0654,218.238612 1314.3255,218.238612 Z M1363.22863,218.238612 C1366.48872,218.238612 1369.13156,215.606684 1369.13156,212.360036 C1369.13156,209.113388 1366.48872,206.481459 1363.22863,206.481459 C1359.96853,206.481459 1357.32569,209.113388 1357.32569,212.360036 C1357.32569,215.606684 1359.96853,218.238612 1363.22863,218.238612 Z M1196.69364,218.238612 C1199.95374,218.238612 1202.59657,215.606684 1202.59657,212.360036 C1202.59657,209.113388 1199.95374,206.481459 1196.69364,206.481459 C1193.43354,206.481459 1190.79071,209.113388 1190.79071,212.360036 C1190.79071,215.606684 1193.43354,218.238612 1196.69364,218.238612 Z M1290.53478,218.238612 C1293.79488,218.238612 1296.43772,215.606684 1296.43772,212.360036 C1296.43772,209.113388 1293.79488,206.481459 1290.53478,206.481459 C1287.27468,206.481459 1284.63185,209.113388 1284.63185,212.360036 C1284.63185,215.606684 1287.27468,218.238612 1290.53478,218.238612 Z M1339.43791,218.238612 C1342.69801,218.238612 1345.34085,215.606684 1345.34085,212.360036 C1345.34085,209.113388 1342.69801,206.481459 1339.43791,206.481459 C1336.17781,206.481459 1333.53498,209.113388 1333.53498,212.360036 C1333.53498,215.606684 1336.17781,218.238612 1339.43791,218.238612 Z M1244.27507,218.238612 C1247.53517,218.238612 1250.178,215.606684 1250.178,212.360036 C1250.178,209.113388 1247.53517,206.481459 1244.27507,206.481459 C1241.01497,206.481459 1238.37214,209.113388 1238.37214,212.360036 C1238.37214,215.606684 1241.01497,218.238612 1244.27507,218.238612 Z M1172.90293,101.757153 C1176.16303,101.757153 1178.80586,99.1252244 1178.80586,95.8785763 C1178.80586,92.6319283 1176.16303,90 1172.90293,90 C1169.64283,90 1167,92.6319283 1167,95.8785763 C1167,99.1252244 1169.64283,101.757153 1172.90293,101.757153 Z M1268.06578,101.757153 C1271.32588,101.757153 1273.96871,99.1252244 1273.96871,95.8785763 C1273.96871,92.6319283 1271.32588,90 1268.06578,90 C1264.80568,90 1262.16285,92.6319283 1262.16285,95.8785763 C1262.16285,99.1252244 1264.80568,101.757153 1268.06578,101.757153 Z M1220.48436,101.757153 C1223.74445,101.757153 1226.38729,99.1252244 1226.38729,95.8785763 C1226.38729,92.6319283 1223.74445,90 1220.48436,90 C1217.22426,90 1214.58142,92.6319283 1214.58142,95.8785763 C1214.58142,99.1252244 1217.22426,101.757153 1220.48436,101.757153 Z M1314.3255,101.757153 C1317.58559,101.757153 1320.22843,99.1252244 1320.22843,95.8785763 C1320.22843,92.6319283 1317.58559,90 1314.3255,90 C1311.0654,90 1308.42256,92.6319283 1308.42256,95.8785763 C1308.42256,99.1252244 1311.0654,101.757153 1314.3255,101.757153 Z M1363.22863,101.757153 C1366.48872,101.757153 1369.13156,99.1252244 1369.13156,95.8785763 C1369.13156,92.6319283 1366.48872,90 1363.22863,90 C1359.96853,90 1357.32569,92.6319283 1357.32569,95.8785763 C1357.32569,99.1252244 1359.96853,101.757153 1363.22863,101.757153 Z M1196.69364,101.757153 C1199.95374,101.757153 1202.59657,99.1252244 1202.59657,95.8785763 C1202.59657,92.6319283 1199.95374,90 1196.69364,90 C1193.43354,90 1190.79071,92.6319283 1190.79071,95.8785763 C1190.79071,99.1252244 1193.43354,101.757153 1196.69364,101.757153 Z M1290.53478,101.757153 C1293.79488,101.757153 1296.43772,99.1252244 1296.43772,95.8785763 C1296.43772,92.6319283 1293.79488,90 1290.53478,90 C1287.27468,90 1284.63185,92.6319283 1284.63185,95.8785763 C1284.63185,99.1252244 1287.27468,101.757153 1290.53478,101.757153 Z M1339.43791,101.757153 C1342.69801,101.757153 1345.34085,99.1252244 1345.34085,95.8785763 C1345.34085,92.6319283 1342.69801,90 1339.43791,90 C1336.17781,90 1333.53498,92.6319283 1333.53498,95.8785763 C1333.53498,99.1252244 1336.17781,101.757153 1339.43791,101.757153 Z M1244.27507,101.757153 C1247.53517,101.757153 1250.178,99.1252244 1250.178,95.8785763 C1250.178,92.6319283 1247.53517,90 1244.27507,90 C1241.01497,90 1238.37214,92.6319283 1238.37214,95.8785763 C1238.37214,99.1252244 1241.01497,101.757153 1244.27507,101.757153 Z M1172.90293,242.064365 C1176.16303,242.064365 1178.80586,239.432437 1178.80586,236.185789 C1178.80586,232.939141 1176.16303,230.307212 1172.90293,230.307212 C1169.64283,230.307212 1167,232.939141 1167,236.185789 C1167,239.432437 1169.64283,242.064365 1172.90293,242.064365 Z M1268.06578,242.064365 C1271.32588,242.064365 1273.96871,239.432437 1273.96871,236.185789 C1273.96871,232.939141 1271.32588,230.307212 1268.06578,230.307212 C1264.80568,230.307212 1262.16285,232.939141 1262.16285,236.185789 C1262.16285,239.432437 1264.80568,242.064365 1268.06578,242.064365 Z M1220.48436,242.064365 C1223.74445,242.064365 1226.38729,239.432437 1226.38729,236.185789 C1226.38729,232.939141 1223.74445,230.307212 1220.48436,230.307212 C1217.22426,230.307212 1214.58142,232.939141 1214.58142,236.185789 C1214.58142,239.432437 1217.22426,242.064365 1220.48436,242.064365 Z M1314.3255,242.064365 C1317.58559,242.064365 1320.22843,239.432437 1320.22843,236.185789 C1320.22843,232.939141 1317.58559,230.307212 1314.3255,230.307212 C1311.0654,230.307212 1308.42256,232.939141 1308.42256,236.185789 C1308.42256,239.432437 1311.0654,242.064365 1314.3255,242.064365 Z M1363.22863,242.064365 C1366.48872,242.064365 1369.13156,239.432437 1369.13156,236.185789 C1369.13156,232.939141 1366.48872,230.307212 1363.22863,230.307212 C1359.96853,230.307212 1357.32569,232.939141 1357.32569,236.185789 C1357.32569,239.432437 1359.96853,242.064365 1363.22863,242.064365 Z M1196.69364,242.064365 C1199.95374,242.064365 1202.59657,239.432437 1202.59657,236.185789 C1202.59657,232.939141 1199.95374,230.307212 1196.69364,230.307212 C1193.43354,230.307212 1190.79071,232.939141 1190.79071,236.185789 C1190.79071,239.432437 1193.43354,242.064365 1196.69364,242.064365 Z M1290.53478,242.064365 C1293.79488,242.064365 1296.43772,239.432437 1296.43772,236.185789 C1296.43772,232.939141 1293.79488,230.307212 1290.53478,230.307212 C1287.27468,230.307212 1284.63185,232.939141 1284.63185,236.185789 C1284.63185,239.432437 1287.27468,242.064365 1290.53478,242.064365 Z M1339.43791,242.064365 C1342.69801,242.064365 1345.34085,239.432437 1345.34085,236.185789 C1345.34085,232.939141 1342.69801,230.307212 1339.43791,230.307212 C1336.17781,230.307212 1333.53498,232.939141 1333.53498,236.185789 C1333.53498,239.432437 1336.17781,242.064365 1339.43791,242.064365 Z M1244.27507,242.064365 C1247.53517,242.064365 1250.178,239.432437 1250.178,236.185789 C1250.178,232.939141 1247.53517,230.307212 1244.27507,230.307212 C1241.01497,230.307212 1238.37214,232.939141 1238.37214,236.185789 C1238.37214,239.432437 1241.01497,242.064365 1244.27507,242.064365 Z M1172.90293,124.259253 C1176.16303,124.259253 1178.80586,121.627324 1178.80586,118.380676 C1178.80586,115.134028 1176.16303,112.5021 1172.90293,112.5021 C1169.64283,112.5021 1167,115.134028 1167,118.380676 C1167,121.627324 1169.64283,124.259253 1172.90293,124.259253 Z M1268.06578,124.259253 C1271.32588,124.259253 1273.96871,121.627324 1273.96871,118.380676 C1273.96871,115.134028 1271.32588,112.5021 1268.06578,112.5021 C1264.80568,112.5021 1262.16285,115.134028 1262.16285,118.380676 C1262.16285,121.627324 1264.80568,124.259253 1268.06578,124.259253 Z M1220.48436,124.259253 C1223.74445,124.259253 1226.38729,121.627324 1226.38729,118.380676 C1226.38729,115.134028 1223.74445,112.5021 1220.48436,112.5021 C1217.22426,112.5021 1214.58142,115.134028 1214.58142,118.380676 C1214.58142,121.627324 1217.22426,124.259253 1220.48436,124.259253 Z M1314.3255,125.582906 C1317.58559,125.582906 1320.22843,122.950977 1320.22843,119.704329 C1320.22843,116.457681 1317.58559,113.825753 1314.3255,113.825753 C1311.0654,113.825753 1308.42256,116.457681 1308.42256,119.704329 C1308.42256,122.950977 1311.0654,125.582906 1314.3255,125.582906 Z M1363.22863,125.582906 C1366.48872,125.582906 1369.13156,122.950977 1369.13156,119.704329 C1369.13156,116.457681 1366.48872,113.825753 1363.22863,113.825753 C1359.96853,113.825753 1357.32569,116.457681 1357.32569,119.704329 C1357.32569,122.950977 1359.96853,125.582906 1363.22863,125.582906 Z M1196.69364,124.259253 C1199.95374,124.259253 1202.59657,121.627324 1202.59657,118.380676 C1202.59657,115.134028 1199.95374,112.5021 1196.69364,112.5021 C1193.43354,112.5021 1190.79071,115.134028 1190.79071,118.380676 C1190.79071,121.627324 1193.43354,124.259253 1196.69364,124.259253 Z M1290.53478,125.582906 C1293.79488,125.582906 1296.43772,122.950977 1296.43772,119.704329 C1296.43772,116.457681 1293.79488,113.825753 1290.53478,113.825753 C1287.27468,113.825753 1284.63185,116.457681 1284.63185,119.704329 C1284.63185,122.950977 1287.27468,125.582906 1290.53478,125.582906 Z M1339.43791,125.582906 C1342.69801,125.582906 1345.34085,122.950977 1345.34085,119.704329 C1345.34085,116.457681 1342.69801,113.825753 1339.43791,113.825753 C1336.17781,113.825753 1333.53498,116.457681 1333.53498,119.704329 C1333.53498,122.950977 1336.17781,125.582906 1339.43791,125.582906 Z M1244.27507,124.259253 C1247.53517,124.259253 1250.178,121.627324 1250.178,118.380676 C1250.178,115.134028 1247.53517,112.5021 1244.27507,112.5021 C1241.01497,112.5021 1238.37214,115.134028 1238.37214,118.380676 C1238.37214,121.627324 1241.01497,124.259253 1244.27507,124.259253 Z M1172.90293,265.890118 C1176.16303,265.890118 1178.80586,263.25819 1178.80586,260.011542 C1178.80586,256.764894 1176.16303,254.132966 1172.90293,254.132966 C1169.64283,254.132966 1167,256.764894 1167,260.011542 C1167,263.25819 1169.64283,265.890118 1172.90293,265.890118 Z M1268.06578,265.890118 C1271.32588,265.890118 1273.96871,263.25819 1273.96871,260.011542 C1273.96871,256.764894 1271.32588,254.132966 1268.06578,254.132966 C1264.80568,254.132966 1262.16285,256.764894 1262.16285,260.011542 C1262.16285,263.25819 1264.80568,265.890118 1268.06578,265.890118 Z M1220.48436,265.890118 C1223.74445,265.890118 1226.38729,263.25819 1226.38729,260.011542 C1226.38729,256.764894 1223.74445,254.132966 1220.48436,254.132966 C1217.22426,254.132966 1214.58142,256.764894 1214.58142,260.011542 C1214.58142,263.25819 1217.22426,265.890118 1220.48436,265.890118 Z M1314.3255,265.890118 C1317.58559,265.890118 1320.22843,263.25819 1320.22843,260.011542 C1320.22843,256.764894 1317.58559,254.132966 1314.3255,254.132966 C1311.0654,254.132966 1308.42256,256.764894 1308.42256,260.011542 C1308.42256,263.25819 1311.0654,265.890118 1314.3255,265.890118 Z M1363.22863,265.890118 C1366.48872,265.890118 1369.13156,263.25819 1369.13156,260.011542 C1369.13156,256.764894 1366.48872,254.132966 1363.22863,254.132966 C1359.96853,254.132966 1357.32569,256.764894 1357.32569,260.011542 C1357.32569,263.25819 1359.96853,265.890118 1363.22863,265.890118 Z M1196.69364,265.890118 C1199.95374,265.890118 1202.59657,263.25819 1202.59657,260.011542 C1202.59657,256.764894 1199.95374,254.132966 1196.69364,254.132966 C1193.43354,254.132966 1190.79071,256.764894 1190.79071,260.011542 C1190.79071,263.25819 1193.43354,265.890118 1196.69364,265.890118 Z M1290.53478,265.890118 C1293.79488,265.890118 1296.43772,263.25819 1296.43772,260.011542 C1296.43772,256.764894 1293.79488,254.132966 1290.53478,254.132966 C1287.27468,254.132966 1284.63185,256.764894 1284.63185,260.011542 C1284.63185,263.25819 1287.27468,265.890118 1290.53478,265.890118 Z M1339.43791,265.890118 C1342.69801,265.890118 1345.34085,263.25819 1345.34085,260.011542 C1345.34085,256.764894 1342.69801,254.132966 1339.43791,254.132966 C1336.17781,254.132966 1333.53498,256.764894 1333.53498,260.011542 C1333.53498,263.25819 1336.17781,265.890118 1339.43791,265.890118 Z M1244.27507,265.890118 C1247.53517,265.890118 1250.178,263.25819 1250.178,260.011542 C1250.178,256.764894 1247.53517,254.132966 1244.27507,254.132966 C1241.01497,254.132966 1238.37214,256.764894 1238.37214,260.011542 C1238.37214,263.25819 1241.01497,265.890118 1244.27507,265.890118 Z M1172.90293,148.085006 C1176.16303,148.085006 1178.80586,145.453078 1178.80586,142.20643 C1178.80586,138.959781 1176.16303,136.327853 1172.90293,136.327853 C1169.64283,136.327853 1167,138.959781 1167,142.20643 C1167,145.453078 1169.64283,148.085006 1172.90293,148.085006 Z M1268.06578,148.085006 C1271.32588,148.085006 1273.96871,145.453078 1273.96871,142.20643 C1273.96871,138.959781 1271.32588,136.327853 1268.06578,136.327853 C1264.80568,136.327853 1262.16285,138.959781 1262.16285,142.20643 C1262.16285,145.453078 1264.80568,148.085006 1268.06578,148.085006 Z M1220.48436,148.085006 C1223.74445,148.085006 1226.38729,145.453078 1226.38729,142.20643 C1226.38729,138.959781 1223.74445,136.327853 1220.48436,136.327853 C1217.22426,136.327853 1214.58142,138.959781 1214.58142,142.20643 C1214.58142,145.453078 1217.22426,148.085006 1220.48436,148.085006 Z M1314.3255,148.085006 C1317.58559,148.085006 1320.22843,145.453078 1320.22843,142.20643 C1320.22843,138.959781 1317.58559,136.327853 1314.3255,136.327853 C1311.0654,136.327853 1308.42256,138.959781 1308.42256,142.20643 C1308.42256,145.453078 1311.0654,148.085006 1314.3255,148.085006 Z M1363.22863,149.408659 C1366.48872,149.408659 1369.13156,146.776731 1369.13156,143.530082 C1369.13156,140.283434 1366.48872,137.651506 1363.22863,137.651506 C1359.96853,137.651506 1357.32569,140.283434 1357.32569,143.530082 C1357.32569,146.776731 1359.96853,149.408659 1363.22863,149.408659 Z M1196.69364,148.085006 C1199.95374,148.085006 1202.59657,145.453078 1202.59657,142.20643 C1202.59657,138.959781 1199.95374,136.327853 1196.69364,136.327853 C1193.43354,136.327853 1190.79071,138.959781 1190.79071,142.20643 C1190.79071,145.453078 1193.43354,148.085006 1196.69364,148.085006 Z M1290.53478,148.085006 C1293.79488,148.085006 1296.43772,145.453078 1296.43772,142.20643 C1296.43772,138.959781 1293.79488,136.327853 1290.53478,136.327853 C1287.27468,136.327853 1284.63185,138.959781 1284.63185,142.20643 C1284.63185,145.453078 1287.27468,148.085006 1290.53478,148.085006 Z M1339.43791,149.408659 C1342.69801,149.408659 1345.34085,146.776731 1345.34085,143.530082 C1345.34085,140.283434 1342.69801,137.651506 1339.43791,137.651506 C1336.17781,137.651506 1333.53498,140.283434 1333.53498,143.530082 C1333.53498,146.776731 1336.17781,149.408659 1339.43791,149.408659 Z M1244.27507,148.085006 C1247.53517,148.085006 1250.178,145.453078 1250.178,142.20643 C1250.178,138.959781 1247.53517,136.327853 1244.27507,136.327853 C1241.01497,136.327853 1238.37214,138.959781 1238.37214,142.20643 C1238.37214,145.453078 1241.01497,148.085006 1244.27507,148.085006 Z M1172.90293,289.715871 C1176.16303,289.715871 1178.80586,287.083943 1178.80586,283.837295 C1178.80586,280.590647 1176.16303,277.958719 1172.90293,277.958719 C1169.64283,277.958719 1167,280.590647 1167,283.837295 C1167,287.083943 1169.64283,289.715871 1172.90293,289.715871 Z M1268.06578,289.715871 C1271.32588,289.715871 1273.96871,287.083943 1273.96871,283.837295 C1273.96871,280.590647 1271.32588,277.958719 1268.06578,277.958719 C1264.80568,277.958719 1262.16285,280.590647 1262.16285,283.837295 C1262.16285,287.083943 1264.80568,289.715871 1268.06578,289.715871 Z M1220.48436,289.715871 C1223.74445,289.715871 1226.38729,287.083943 1226.38729,283.837295 C1226.38729,280.590647 1223.74445,277.958719 1220.48436,277.958719 C1217.22426,277.958719 1214.58142,280.590647 1214.58142,283.837295 C1214.58142,287.083943 1217.22426,289.715871 1220.48436,289.715871 Z M1314.3255,289.715871 C1317.58559,289.715871 1320.22843,287.083943 1320.22843,283.837295 C1320.22843,280.590647 1317.58559,277.958719 1314.3255,277.958719 C1311.0654,277.958719 1308.42256,280.590647 1308.42256,283.837295 C1308.42256,287.083943 1311.0654,289.715871 1314.3255,289.715871 Z M1363.22863,289.715871 C1366.48872,289.715871 1369.13156,287.083943 1369.13156,283.837295 C1369.13156,280.590647 1366.48872,277.958719 1363.22863,277.958719 C1359.96853,277.958719 1357.32569,280.590647 1357.32569,283.837295 C1357.32569,287.083943 1359.96853,289.715871 1363.22863,289.715871 Z M1196.69364,289.715871 C1199.95374,289.715871 1202.59657,287.083943 1202.59657,283.837295 C1202.59657,280.590647 1199.95374,277.958719 1196.69364,277.958719 C1193.43354,277.958719 1190.79071,280.590647 1190.79071,283.837295 C1190.79071,287.083943 1193.43354,289.715871 1196.69364,289.715871 Z M1290.53478,289.715871 C1293.79488,289.715871 1296.43772,287.083943 1296.43772,283.837295 C1296.43772,280.590647 1293.79488,277.958719 1290.53478,277.958719 C1287.27468,277.958719 1284.63185,280.590647 1284.63185,283.837295 C1284.63185,287.083943 1287.27468,289.715871 1290.53478,289.715871 Z M1339.43791,289.715871 C1342.69801,289.715871 1345.34085,287.083943 1345.34085,283.837295 C1345.34085,280.590647 1342.69801,277.958719 1339.43791,277.958719 C1336.17781,277.958719 1333.53498,280.590647 1333.53498,283.837295 C1333.53498,287.083943 1336.17781,289.715871 1339.43791,289.715871 Z M1244.27507,289.715871 C1247.53517,289.715871 1250.178,287.083943 1250.178,283.837295 C1250.178,280.590647 1247.53517,277.958719 1244.27507,277.958719 C1241.01497,277.958719 1238.37214,280.590647 1238.37214,283.837295 C1238.37214,287.083943 1241.01497,289.715871 1244.27507,289.715871 Z M1172.90293,171.910759 C1176.16303,171.910759 1178.80586,169.278831 1178.80586,166.032183 C1178.80586,162.785535 1176.16303,160.153606 1172.90293,160.153606 C1169.64283,160.153606 1167,162.785535 1167,166.032183 C1167,169.278831 1169.64283,171.910759 1172.90293,171.910759 Z M1268.06578,171.910759 C1271.32588,171.910759 1273.96871,169.278831 1273.96871,166.032183 C1273.96871,162.785535 1271.32588,160.153606 1268.06578,160.153606 C1264.80568,160.153606 1262.16285,162.785535 1262.16285,166.032183 C1262.16285,169.278831 1264.80568,171.910759 1268.06578,171.910759 Z M1220.48436,171.910759 C1223.74445,171.910759 1226.38729,169.278831 1226.38729,166.032183 C1226.38729,162.785535 1223.74445,160.153606 1220.48436,160.153606 C1217.22426,160.153606 1214.58142,162.785535 1214.58142,166.032183 C1214.58142,169.278831 1217.22426,171.910759 1220.48436,171.910759 Z M1314.3255,171.910759 C1317.58559,171.910759 1320.22843,169.278831 1320.22843,166.032183 C1320.22843,162.785535 1317.58559,160.153606 1314.3255,160.153606 C1311.0654,160.153606 1308.42256,162.785535 1308.42256,166.032183 C1308.42256,169.278831 1311.0654,171.910759 1314.3255,171.910759 Z M1363.22863,171.910759 C1366.48872,171.910759 1369.13156,169.278831 1369.13156,166.032183 C1369.13156,162.785535 1366.48872,160.153606 1363.22863,160.153606 C1359.96853,160.153606 1357.32569,162.785535 1357.32569,166.032183 C1357.32569,169.278831 1359.96853,171.910759 1363.22863,171.910759 Z M1196.69364,171.910759 C1199.95374,171.910759 1202.59657,169.278831 1202.59657,166.032183 C1202.59657,162.785535 1199.95374,160.153606 1196.69364,160.153606 C1193.43354,160.153606 1190.79071,162.785535 1190.79071,166.032183 C1190.79071,169.278831 1193.43354,171.910759 1196.69364,171.910759 Z M1290.53478,171.910759 C1293.79488,171.910759 1296.43772,169.278831 1296.43772,166.032183 C1296.43772,162.785535 1293.79488,160.153606 1290.53478,160.153606 C1287.27468,160.153606 1284.63185,162.785535 1284.63185,166.032183 C1284.63185,169.278831 1287.27468,171.910759 1290.53478,171.910759 Z M1339.43791,171.910759 C1342.69801,171.910759 1345.34085,169.278831 1345.34085,166.032183 C1345.34085,162.785535 1342.69801,160.153606 1339.43791,160.153606 C1336.17781,160.153606 1333.53498,162.785535 1333.53498,166.032183 C1333.53498,169.278831 1336.17781,171.910759 1339.43791,171.910759 Z M1244.27507,171.910759 C1247.53517,171.910759 1250.178,169.278831 1250.178,166.032183 C1250.178,162.785535 1247.53517,160.153606 1244.27507,160.153606 C1241.01497,160.153606 1238.37214,162.785535 1238.37214,166.032183 C1238.37214,169.278831 1241.01497,171.910759 1244.27507,171.910759 Z" id="Combined-Shape" fill="#EF6261"></path>
            </g>
        </g>
    </g>
</svg>