<?xml version="1.0" encoding="UTF-8"?>
<svg width="1200px" height="900px" viewBox="0 0 1200 900" version="1.1" xmlns="http://www.w3.org/2000/svg" xmlns:xlink="http://www.w3.org/1999/xlink">
    <!-- Generator: Sketch 41.2 (35397) - http://www.bohemiancoding.com/sketch -->
    <title>background</title>
    <desc>Created with Sketch.</desc>
    <defs>
        <rect id="path-1" x="900" y="529" width="222" height="222"></rect>
        <filter x="-50%" y="-50%" width="200%" height="200%" filterUnits="objectBoundingBox" id="filter-2">
            <feOffset dx="0" dy="7" in="SourceAlpha" result="shadowOffsetOuter1"></feOffset>
            <feGaussianBlur stdDeviation="27.5" in="shadowOffsetOuter1" result="shadowBlurOuter1"></feGaussianBlur>
            <feColorMatrix values="0 0 0 0 0   0 0 0 0 0   0 0 0 0 0  0 0 0 0.25 0" type="matrix" in="shadowBlurOuter1"></feColorMatrix>
        </filter>
    </defs>
    <g id="Page-1" stroke="none" stroke-width="1" fill="none" fill-rule="evenodd">
        <g id="1200*900-copy-12">
            <g id="background" transform="translate(0.000000, -1.000000)">
                <polygon id="Path-4" fill="#EBBB8B" points="152.419938 1 1200.66699 784.494965 1200 0.84277356"></polygon>
                <polygon id="Path-6" fill="#EF6261" points="152.453901 1 1200 783.661586 1200 901 0 901 0 1"></polygon>
                <g id="Rectangle-8">
                    <use fill="black" fill-opacity="1" filter="url(#filter-2)" xlink:href="#path-1"></use>
                    <use fill="#EF6261" fill-rule="evenodd" xlink:href="#path-1"></use>
                </g>
                <rect id="Rectangle" fill="#F9F3E3" x="599" y="1" width="253" height="900"></rect>
                <path d="M921.243159,669.424452 C923.586592,669.424452 925.486319,667.533539 925.486319,665.20098 C925.486319,662.868421 923.586592,660.977509 921.243159,660.977509 C918.899727,660.977509 917,662.868421 917,665.20098 C917,667.533539 918.899727,669.424452 921.243159,669.424452 Z M989.13371,669.424452 C991.477142,669.424452 993.376869,667.533539 993.376869,665.20098 C993.376869,662.868421 991.477142,660.977509 989.13371,660.977509 C986.790277,660.977509 984.89055,662.868421 984.89055,665.20098 C984.89055,667.533539 986.790277,669.424452 989.13371,669.424452 Z M955.188434,669.424452 C957.531867,669.424452 959.431594,667.533539 959.431594,665.20098 C959.431594,662.868421 957.531867,660.977509 955.188434,660.977509 C952.845002,660.977509 950.945275,662.868421 950.945275,665.20098 C950.945275,667.533539 952.845002,669.424452 955.188434,669.424452 Z M1023.03524,669.659089 C1025.37867,669.659089 1027.2784,667.768177 1027.2784,665.435618 C1027.2784,663.103059 1025.37867,661.212146 1023.03524,661.212146 C1020.69181,661.212146 1018.79208,663.103059 1018.79208,665.435618 C1018.79208,667.768177 1020.69181,669.659089 1023.03524,669.659089 Z M1058.11786,669.659089 C1060.46129,669.659089 1062.36102,667.768177 1062.36102,665.435618 C1062.36102,663.103059 1060.46129,661.212146 1058.11786,661.212146 C1055.77443,661.212146 1053.8747,663.103059 1053.8747,665.435618 C1053.8747,667.768177 1055.77443,669.659089 1058.11786,669.659089 Z M938.215797,669.424452 C940.559229,669.424452 942.458956,667.533539 942.458956,665.20098 C942.458956,662.868421 940.559229,660.977509 938.215797,660.977509 C935.872365,660.977509 933.972638,662.868421 933.972638,665.20098 C933.972638,667.533539 935.872365,669.424452 938.215797,669.424452 Z M1005.97512,669.659089 C1008.31855,669.659089 1010.21827,667.768177 1010.21827,665.435618 C1010.21827,663.103059 1008.31855,661.212146 1005.97512,661.212146 C1003.63168,661.212146 1001.73196,663.103059 1001.73196,665.435618 C1001.73196,667.768177 1003.63168,669.659089 1005.97512,669.659089 Z M1041.05773,669.659089 C1043.40116,669.659089 1045.30089,667.768177 1045.30089,665.435618 C1045.30089,663.103059 1043.40116,661.212146 1041.05773,661.212146 C1038.7143,661.212146 1036.81457,663.103059 1036.81457,665.435618 C1036.81457,667.768177 1038.7143,669.659089 1041.05773,669.659089 Z M972.161072,669.424452 C974.504504,669.424452 976.404231,667.533539 976.404231,665.20098 C976.404231,662.868421 974.504504,660.977509 972.161072,660.977509 C969.81764,660.977509 967.917913,662.868421 967.917913,665.20098 C967.917913,667.533539 969.81764,669.424452 972.161072,669.424452 Z M921.243159,686.318339 C923.586592,686.318339 925.486319,684.427426 925.486319,682.094867 C925.486319,679.762308 923.586592,677.871396 921.243159,677.871396 C918.899727,677.871396 917,679.762308 917,682.094867 C917,684.427426 918.899727,686.318339 921.243159,686.318339 Z M989.13371,686.318339 C991.477142,686.318339 993.376869,684.427426 993.376869,682.094867 C993.376869,679.762308 991.477142,677.871396 989.13371,677.871396 C986.790277,677.871396 984.89055,679.762308 984.89055,682.094867 C984.89055,684.427426 986.790277,686.318339 989.13371,686.318339 Z M955.188434,686.318339 C957.531867,686.318339 959.431594,684.427426 959.431594,682.094867 C959.431594,679.762308 957.531867,677.871396 955.188434,677.871396 C952.845002,677.871396 950.945275,679.762308 950.945275,682.094867 C950.945275,684.427426 952.845002,686.318339 955.188434,686.318339 Z M1023.03524,686.184261 C1025.37867,686.184261 1027.2784,684.293348 1027.2784,681.960789 C1027.2784,679.62823 1025.37867,677.737317 1023.03524,677.737317 C1020.69181,677.737317 1018.79208,679.62823 1018.79208,681.960789 C1018.79208,684.293348 1020.69181,686.184261 1023.03524,686.184261 Z M1058.11786,686.184261 C1060.46129,686.184261 1062.36102,684.293348 1062.36102,681.960789 C1062.36102,679.62823 1060.46129,677.737317 1058.11786,677.737317 C1055.77443,677.737317 1053.8747,679.62823 1053.8747,681.960789 C1053.8747,684.293348 1055.77443,686.184261 1058.11786,686.184261 Z M938.215797,686.318339 C940.559229,686.318339 942.458956,684.427426 942.458956,682.094867 C942.458956,679.762308 940.559229,677.871396 938.215797,677.871396 C935.872365,677.871396 933.972638,679.762308 933.972638,682.094867 C933.972638,684.427426 935.872365,686.318339 938.215797,686.318339 Z M1005.97512,686.184261 C1008.31855,686.184261 1010.21827,684.293348 1010.21827,681.960789 C1010.21827,679.62823 1008.31855,677.737317 1005.97512,677.737317 C1003.63168,677.737317 1001.73196,679.62823 1001.73196,681.960789 C1001.73196,684.293348 1003.63168,686.184261 1005.97512,686.184261 Z M1041.05773,686.184261 C1043.40116,686.184261 1045.30089,684.293348 1045.30089,681.960789 C1045.30089,679.62823 1043.40116,677.737317 1041.05773,677.737317 C1038.7143,677.737317 1036.81457,679.62823 1036.81457,681.960789 C1036.81457,684.293348 1038.7143,686.184261 1041.05773,686.184261 Z M972.161072,686.318339 C974.504504,686.318339 976.404231,684.427426 976.404231,682.094867 C976.404231,679.762308 974.504504,677.871396 972.161072,677.871396 C969.81764,677.871396 967.917913,679.762308 967.917913,682.094867 C967.917913,684.427426 969.81764,686.318339 972.161072,686.318339 Z M921.243159,601.848904 C923.586592,601.848904 925.486319,599.957992 925.486319,597.625433 C925.486319,595.292873 923.586592,593.401961 921.243159,593.401961 C918.899727,593.401961 917,595.292873 917,597.625433 C917,599.957992 918.899727,601.848904 921.243159,601.848904 Z M989.13371,601.848904 C991.477142,601.848904 993.376869,599.957992 993.376869,597.625433 C993.376869,595.292873 991.477142,593.401961 989.13371,593.401961 C986.790277,593.401961 984.89055,595.292873 984.89055,597.625433 C984.89055,599.957992 986.790277,601.848904 989.13371,601.848904 Z M955.188434,601.848904 C957.531867,601.848904 959.431594,599.957992 959.431594,597.625433 C959.431594,595.292873 957.531867,593.401961 955.188434,593.401961 C952.845002,593.401961 950.945275,595.292873 950.945275,597.625433 C950.945275,599.957992 952.845002,601.848904 955.188434,601.848904 Z M1022.90086,601.848904 C1025.2443,601.848904 1027.14402,599.957992 1027.14402,597.625433 C1027.14402,595.292873 1025.2443,593.401961 1022.90086,593.401961 C1020.55743,593.401961 1018.6577,595.292873 1018.6577,597.625433 C1018.6577,599.957992 1020.55743,601.848904 1022.90086,601.848904 Z M1066.60418,551.446943 C1068.94761,551.446943 1070.84734,549.556031 1070.84734,547.223472 C1070.84734,544.890913 1068.94761,543 1066.60418,543 C1064.26074,543 1062.36102,544.890913 1062.36102,547.223472 C1062.36102,549.556031 1064.26074,551.446943 1066.60418,551.446943 Z M1058.05353,601.848904 C1060.39696,601.848904 1062.29669,599.957992 1062.29669,597.625433 C1062.29669,595.292873 1060.39696,593.401961 1058.05353,593.401961 C1055.7101,593.401961 1053.81037,595.292873 1053.81037,597.625433 C1053.81037,599.957992 1055.7101,601.848904 1058.05353,601.848904 Z M1101.75684,551.446943 C1104.10027,551.446943 1106,549.556031 1106,547.223472 C1106,544.890913 1104.10027,543 1101.75684,543 C1099.41341,543 1097.51368,544.890913 1097.51368,547.223472 C1097.51368,549.556031 1099.41341,551.446943 1101.75684,551.446943 Z M938.215797,601.848904 C940.559229,601.848904 942.458956,599.957992 942.458956,597.625433 C942.458956,595.292873 940.559229,593.401961 938.215797,593.401961 C935.872365,593.401961 933.972638,595.292873 933.972638,597.625433 C933.972638,599.957992 935.872365,601.848904 938.215797,601.848904 Z M1005.79957,601.848904 C1008.143,601.848904 1010.04273,599.957992 1010.04273,597.625433 C1010.04273,595.292873 1008.143,593.401961 1005.79957,593.401961 C1003.45614,593.401961 1001.55641,595.292873 1001.55641,597.625433 C1001.55641,599.957992 1003.45614,601.848904 1005.79957,601.848904 Z M1040.95223,601.848904 C1043.29566,601.848904 1045.19539,599.957992 1045.19539,597.625433 C1045.19539,595.292873 1043.29566,593.401961 1040.95223,593.401961 C1038.6088,593.401961 1036.70907,595.292873 1036.70907,597.625433 C1036.70907,599.957992 1038.6088,601.848904 1040.95223,601.848904 Z M1084.65554,551.446943 C1086.99898,551.446943 1088.8987,549.556031 1088.8987,547.223472 C1088.8987,544.890913 1086.99898,543 1084.65554,543 C1082.31211,543 1080.41239,544.890913 1080.41239,547.223472 C1080.41239,549.556031 1082.31211,551.446943 1084.65554,551.446943 Z M972.161072,601.848904 C974.504504,601.848904 976.404231,599.957992 976.404231,597.625433 C976.404231,595.292873 974.504504,593.401961 972.161072,593.401961 C969.81764,593.401961 967.917913,595.292873 967.917913,597.625433 C967.917913,599.957992 969.81764,601.848904 972.161072,601.848904 Z M921.243159,703.212226 C923.586592,703.212226 925.486319,701.321313 925.486319,698.988754 C925.486319,696.656195 923.586592,694.765283 921.243159,694.765283 C918.899727,694.765283 917,696.656195 917,698.988754 C917,701.321313 918.899727,703.212226 921.243159,703.212226 Z M989.13371,703.212226 C991.477142,703.212226 993.376869,701.321313 993.376869,698.988754 C993.376869,696.656195 991.477142,694.765283 989.13371,694.765283 C986.790277,694.765283 984.89055,696.656195 984.89055,698.988754 C984.89055,701.321313 986.790277,703.212226 989.13371,703.212226 Z M955.188434,703.212226 C957.531867,703.212226 959.431594,701.321313 959.431594,698.988754 C959.431594,696.656195 957.531867,694.765283 955.188434,694.765283 C952.845002,694.765283 950.945275,696.656195 950.945275,698.988754 C950.945275,701.321313 952.845002,703.212226 955.188434,703.212226 Z M1023.03524,703.279265 C1025.37867,703.279265 1027.2784,701.388353 1027.2784,699.055794 C1027.2784,696.723235 1025.37867,694.832322 1023.03524,694.832322 C1020.69181,694.832322 1018.79208,696.723235 1018.79208,699.055794 C1018.79208,701.388353 1020.69181,703.279265 1023.03524,703.279265 Z M1058.11786,703.279265 C1060.46129,703.279265 1062.36102,701.388353 1062.36102,699.055794 C1062.36102,696.723235 1060.46129,694.832322 1058.11786,694.832322 C1055.77443,694.832322 1053.8747,696.723235 1053.8747,699.055794 C1053.8747,701.388353 1055.77443,703.279265 1058.11786,703.279265 Z M938.215797,703.212226 C940.559229,703.212226 942.458956,701.321313 942.458956,698.988754 C942.458956,696.656195 940.559229,694.765283 938.215797,694.765283 C935.872365,694.765283 933.972638,696.656195 933.972638,698.988754 C933.972638,701.321313 935.872365,703.212226 938.215797,703.212226 Z M1005.97512,703.279265 C1008.31855,703.279265 1010.21827,701.388353 1010.21827,699.055794 C1010.21827,696.723235 1008.31855,694.832322 1005.97512,694.832322 C1003.63168,694.832322 1001.73196,696.723235 1001.73196,699.055794 C1001.73196,701.388353 1003.63168,703.279265 1005.97512,703.279265 Z M1041.05773,703.279265 C1043.40116,703.279265 1045.30089,701.388353 1045.30089,699.055794 C1045.30089,696.723235 1043.40116,694.832322 1041.05773,694.832322 C1038.7143,694.832322 1036.81457,696.723235 1036.81457,699.055794 C1036.81457,701.388353 1038.7143,703.279265 1041.05773,703.279265 Z M972.161072,703.212226 C974.504504,703.212226 976.404231,701.321313 976.404231,698.988754 C976.404231,696.656195 974.504504,694.765283 972.161072,694.765283 C969.81764,694.765283 967.917913,696.656195 967.917913,698.988754 C967.917913,701.321313 969.81764,703.212226 972.161072,703.212226 Z M921.243159,618.742791 C923.586592,618.742791 925.486319,616.851879 925.486319,614.519319 C925.486319,612.18676 923.586592,610.295848 921.243159,610.295848 C918.899727,610.295848 917,612.18676 917,614.519319 C917,616.851879 918.899727,618.742791 921.243159,618.742791 Z M989.13371,618.742791 C991.477142,618.742791 993.376869,616.851879 993.376869,614.519319 C993.376869,612.18676 991.477142,610.295848 989.13371,610.295848 C986.790277,610.295848 984.89055,612.18676 984.89055,614.519319 C984.89055,616.851879 986.790277,618.742791 989.13371,618.742791 Z M955.188434,618.742791 C957.531867,618.742791 959.431594,616.851879 959.431594,614.519319 C959.431594,612.18676 957.531867,610.295848 955.188434,610.295848 C952.845002,610.295848 950.945275,612.18676 950.945275,614.519319 C950.945275,616.851879 952.845002,618.742791 955.188434,618.742791 Z M1022.90086,618.966551 C1025.2443,618.966551 1027.14402,617.075639 1027.14402,614.74308 C1027.14402,612.410521 1025.2443,610.519608 1022.90086,610.519608 C1020.55743,610.519608 1018.6577,612.410521 1018.6577,614.74308 C1018.6577,617.075639 1020.55743,618.966551 1022.90086,618.966551 Z M1066.60418,568.564591 C1068.94761,568.564591 1070.84734,566.673678 1070.84734,564.341119 C1070.84734,562.00856 1068.94761,560.117647 1066.60418,560.117647 C1064.26074,560.117647 1062.36102,562.00856 1062.36102,564.341119 C1062.36102,566.673678 1064.26074,568.564591 1066.60418,568.564591 Z M1058.05353,618.966551 C1060.39696,618.966551 1062.29669,617.075639 1062.29669,614.74308 C1062.29669,612.410521 1060.39696,610.519608 1058.05353,610.519608 C1055.7101,610.519608 1053.81037,612.410521 1053.81037,614.74308 C1053.81037,617.075639 1055.7101,618.966551 1058.05353,618.966551 Z M1101.75684,568.564591 C1104.10027,568.564591 1106,566.673678 1106,564.341119 C1106,562.00856 1104.10027,560.117647 1101.75684,560.117647 C1099.41341,560.117647 1097.51368,562.00856 1097.51368,564.341119 C1097.51368,566.673678 1099.41341,568.564591 1101.75684,568.564591 Z M938.215797,618.742791 C940.559229,618.742791 942.458956,616.851879 942.458956,614.519319 C942.458956,612.18676 940.559229,610.295848 938.215797,610.295848 C935.872365,610.295848 933.972638,612.18676 933.972638,614.519319 C933.972638,616.851879 935.872365,618.742791 938.215797,618.742791 Z M1005.79957,618.966551 C1008.143,618.966551 1010.04273,617.075639 1010.04273,614.74308 C1010.04273,612.410521 1008.143,610.519608 1005.79957,610.519608 C1003.45614,610.519608 1001.55641,612.410521 1001.55641,614.74308 C1001.55641,617.075639 1003.45614,618.966551 1005.79957,618.966551 Z M1040.95223,618.966551 C1043.29566,618.966551 1045.19539,617.075639 1045.19539,614.74308 C1045.19539,612.410521 1043.29566,610.519608 1040.95223,610.519608 C1038.6088,610.519608 1036.70907,612.410521 1036.70907,614.74308 C1036.70907,617.075639 1038.6088,618.966551 1040.95223,618.966551 Z M1084.65554,568.564591 C1086.99898,568.564591 1088.8987,566.673678 1088.8987,564.341119 C1088.8987,562.00856 1086.99898,560.117647 1084.65554,560.117647 C1082.31211,560.117647 1080.41239,562.00856 1080.41239,564.341119 C1080.41239,566.673678 1082.31211,568.564591 1084.65554,568.564591 Z M972.161072,618.742791 C974.504504,618.742791 976.404231,616.851879 976.404231,614.519319 C976.404231,612.18676 974.504504,610.295848 972.161072,610.295848 C969.81764,610.295848 967.917913,612.18676 967.917913,614.519319 C967.917913,616.851879 969.81764,618.742791 972.161072,618.742791 Z M921.243159,720.106113 C923.586592,720.106113 925.486319,718.2152 925.486319,715.882641 C925.486319,713.550082 923.586592,711.65917 921.243159,711.65917 C918.899727,711.65917 917,713.550082 917,715.882641 C917,718.2152 918.899727,720.106113 921.243159,720.106113 Z M989.13371,720.106113 C991.477142,720.106113 993.376869,718.2152 993.376869,715.882641 C993.376869,713.550082 991.477142,711.65917 989.13371,711.65917 C986.790277,711.65917 984.89055,713.550082 984.89055,715.882641 C984.89055,718.2152 986.790277,720.106113 989.13371,720.106113 Z M955.188434,720.106113 C957.531867,720.106113 959.431594,718.2152 959.431594,715.882641 C959.431594,713.550082 957.531867,711.65917 955.188434,711.65917 C952.845002,711.65917 950.945275,713.550082 950.945275,715.882641 C950.945275,718.2152 952.845002,720.106113 955.188434,720.106113 Z M1023.03524,720.37427 C1025.37867,720.37427 1027.2784,718.483357 1027.2784,716.150798 C1027.2784,713.818239 1025.37867,711.927326 1023.03524,711.927326 C1020.69181,711.927326 1018.79208,713.818239 1018.79208,716.150798 C1018.79208,718.483357 1020.69181,720.37427 1023.03524,720.37427 Z M1058.11786,720.37427 C1060.46129,720.37427 1062.36102,718.483357 1062.36102,716.150798 C1062.36102,713.818239 1060.46129,711.927326 1058.11786,711.927326 C1055.77443,711.927326 1053.8747,713.818239 1053.8747,716.150798 C1053.8747,718.483357 1055.77443,720.37427 1058.11786,720.37427 Z M938.215797,720.106113 C940.559229,720.106113 942.458956,718.2152 942.458956,715.882641 C942.458956,713.550082 940.559229,711.65917 938.215797,711.65917 C935.872365,711.65917 933.972638,713.550082 933.972638,715.882641 C933.972638,718.2152 935.872365,720.106113 938.215797,720.106113 Z M1005.97512,720.37427 C1008.31855,720.37427 1010.21827,718.483357 1010.21827,716.150798 C1010.21827,713.818239 1008.31855,711.927326 1005.97512,711.927326 C1003.63168,711.927326 1001.73196,713.818239 1001.73196,716.150798 C1001.73196,718.483357 1003.63168,720.37427 1005.97512,720.37427 Z M1041.05773,720.37427 C1043.40116,720.37427 1045.30089,718.483357 1045.30089,716.150798 C1045.30089,713.818239 1043.40116,711.927326 1041.05773,711.927326 C1038.7143,711.927326 1036.81457,713.818239 1036.81457,716.150798 C1036.81457,718.483357 1038.7143,720.37427 1041.05773,720.37427 Z M972.161072,720.106113 C974.504504,720.106113 976.404231,718.2152 976.404231,715.882641 C976.404231,713.550082 974.504504,711.65917 972.161072,711.65917 C969.81764,711.65917 967.917913,713.550082 967.917913,715.882641 C967.917913,718.2152 969.81764,720.106113 972.161072,720.106113 Z M921.243159,635.636678 C923.586592,635.636678 925.486319,633.745765 925.486319,631.413206 C925.486319,629.080647 923.586592,627.189735 921.243159,627.189735 C918.899727,627.189735 917,629.080647 917,631.413206 C917,633.745765 918.899727,635.636678 921.243159,635.636678 Z M989.13371,635.636678 C991.477142,635.636678 993.376869,633.745765 993.376869,631.413206 C993.376869,629.080647 991.477142,627.189735 989.13371,627.189735 C986.790277,627.189735 984.89055,629.080647 984.89055,631.413206 C984.89055,633.745765 986.790277,635.636678 989.13371,635.636678 Z M955.188434,635.636678 C957.531867,635.636678 959.431594,633.745765 959.431594,631.413206 C959.431594,629.080647 957.531867,627.189735 955.188434,627.189735 C952.845002,627.189735 950.945275,629.080647 950.945275,631.413206 C950.945275,633.745765 952.845002,635.636678 955.188434,635.636678 Z M1022.90086,635.133218 C1025.2443,635.133218 1027.14402,633.242305 1027.14402,630.909746 C1027.14402,628.577187 1025.2443,626.686275 1022.90086,626.686275 C1020.55743,626.686275 1018.6577,628.577187 1018.6577,630.909746 C1018.6577,633.242305 1020.55743,635.133218 1022.90086,635.133218 Z M1066.60418,585.682238 C1068.94761,585.682238 1070.84734,583.791325 1070.84734,581.458766 C1070.84734,579.126207 1068.94761,577.235294 1066.60418,577.235294 C1064.26074,577.235294 1062.36102,579.126207 1062.36102,581.458766 C1062.36102,583.791325 1064.26074,585.682238 1066.60418,585.682238 Z M1058.05353,636.084198 C1060.39696,636.084198 1062.29669,634.193286 1062.29669,631.860727 C1062.29669,629.528168 1060.39696,627.637255 1058.05353,627.637255 C1055.7101,627.637255 1053.81037,629.528168 1053.81037,631.860727 C1053.81037,634.193286 1055.7101,636.084198 1058.05353,636.084198 Z M1101.75684,585.682238 C1104.10027,585.682238 1106,583.791325 1106,581.458766 C1106,579.126207 1104.10027,577.235294 1101.75684,577.235294 C1099.41341,577.235294 1097.51368,579.126207 1097.51368,581.458766 C1097.51368,583.791325 1099.41341,585.682238 1101.75684,585.682238 Z M938.215797,635.636678 C940.559229,635.636678 942.458956,633.745765 942.458956,631.413206 C942.458956,629.080647 940.559229,627.189735 938.215797,627.189735 C935.872365,627.189735 933.972638,629.080647 933.972638,631.413206 C933.972638,633.745765 935.872365,635.636678 938.215797,635.636678 Z M1005.97512,635.46908 C1008.31855,635.46908 1010.21827,633.578167 1010.21827,631.245608 C1010.21827,628.913049 1008.31855,627.022137 1005.97512,627.022137 C1003.63168,627.022137 1001.73196,628.913049 1001.73196,631.245608 C1001.73196,633.578167 1003.63168,635.46908 1005.97512,635.46908 Z M1040.95223,636.084198 C1043.29566,636.084198 1045.19539,634.193286 1045.19539,631.860727 C1045.19539,629.528168 1043.29566,627.637255 1040.95223,627.637255 C1038.6088,627.637255 1036.70907,629.528168 1036.70907,631.860727 C1036.70907,634.193286 1038.6088,636.084198 1040.95223,636.084198 Z M1084.65554,585.682238 C1086.99898,585.682238 1088.8987,583.791325 1088.8987,581.458766 C1088.8987,579.126207 1086.99898,577.235294 1084.65554,577.235294 C1082.31211,577.235294 1080.41239,579.126207 1080.41239,581.458766 C1080.41239,583.791325 1082.31211,585.682238 1084.65554,585.682238 Z M972.161072,635.636678 C974.504504,635.636678 976.404231,633.745765 976.404231,631.413206 C976.404231,629.080647 974.504504,627.189735 972.161072,627.189735 C969.81764,627.189735 967.917913,629.080647 967.917913,631.413206 C967.917913,633.745765 969.81764,635.636678 972.161072,635.636678 Z M921.243159,737 C923.586592,737 925.486319,735.109087 925.486319,732.776528 C925.486319,730.443969 923.586592,728.553057 921.243159,728.553057 C918.899727,728.553057 917,730.443969 917,732.776528 C917,735.109087 918.899727,737 921.243159,737 Z M989.13371,737 C991.477142,737 993.376869,735.109087 993.376869,732.776528 C993.376869,730.443969 991.477142,728.553057 989.13371,728.553057 C986.790277,728.553057 984.89055,730.443969 984.89055,732.776528 C984.89055,735.109087 986.790277,737 989.13371,737 Z M955.188434,737 C957.531867,737 959.431594,735.109087 959.431594,732.776528 C959.431594,730.443969 957.531867,728.553057 955.188434,728.553057 C952.845002,728.553057 950.945275,730.443969 950.945275,732.776528 C950.945275,735.109087 952.845002,737 955.188434,737 Z M1023.03524,736.899441 C1025.37867,736.899441 1027.2784,735.008528 1027.2784,732.675969 C1027.2784,730.34341 1025.37867,728.452498 1023.03524,728.452498 C1020.69181,728.452498 1018.79208,730.34341 1018.79208,732.675969 C1018.79208,735.008528 1020.69181,736.899441 1023.03524,736.899441 Z M1058.11786,736.899441 C1060.46129,736.899441 1062.36102,735.008528 1062.36102,732.675969 C1062.36102,730.34341 1060.46129,728.452498 1058.11786,728.452498 C1055.77443,728.452498 1053.8747,730.34341 1053.8747,732.675969 C1053.8747,735.008528 1055.77443,736.899441 1058.11786,736.899441 Z M938.215797,737 C940.559229,737 942.458956,735.109087 942.458956,732.776528 C942.458956,730.443969 940.559229,728.553057 938.215797,728.553057 C935.872365,728.553057 933.972638,730.443969 933.972638,732.776528 C933.972638,735.109087 935.872365,737 938.215797,737 Z M1005.97512,736.899441 C1008.31855,736.899441 1010.21827,735.008528 1010.21827,732.675969 C1010.21827,730.34341 1008.31855,728.452498 1005.97512,728.452498 C1003.63168,728.452498 1001.73196,730.34341 1001.73196,732.675969 C1001.73196,735.008528 1003.63168,736.899441 1005.97512,736.899441 Z M1041.05773,736.899441 C1043.40116,736.899441 1045.30089,735.008528 1045.30089,732.675969 C1045.30089,730.34341 1043.40116,728.452498 1041.05773,728.452498 C1038.7143,728.452498 1036.81457,730.34341 1036.81457,732.675969 C1036.81457,735.008528 1038.7143,736.899441 1041.05773,736.899441 Z M972.161072,737 C974.504504,737 976.404231,735.109087 976.404231,732.776528 C976.404231,730.443969 974.504504,728.553057 972.161072,728.553057 C969.81764,728.553057 967.917913,730.443969 967.917913,732.776528 C967.917913,735.109087 969.81764,737 972.161072,737 Z M921.243159,652.530565 C923.586592,652.530565 925.486319,650.639652 925.486319,648.307093 C925.486319,645.974534 923.586592,644.083622 921.243159,644.083622 C918.899727,644.083622 917,645.974534 917,648.307093 C917,650.639652 918.899727,652.530565 921.243159,652.530565 Z M989.13371,652.530565 C991.477142,652.530565 993.376869,650.639652 993.376869,648.307093 C993.376869,645.974534 991.477142,644.083622 989.13371,644.083622 C986.790277,644.083622 984.89055,645.974534 984.89055,648.307093 C984.89055,650.639652 986.790277,652.530565 989.13371,652.530565 Z M955.188434,652.530565 C957.531867,652.530565 959.431594,650.639652 959.431594,648.307093 C959.431594,645.974534 957.531867,644.083622 955.188434,644.083622 C952.845002,644.083622 950.945275,645.974534 950.945275,648.307093 C950.945275,650.639652 952.845002,652.530565 955.188434,652.530565 Z M1023.03524,652.564085 C1025.37867,652.564085 1027.2784,650.673172 1027.2784,648.340613 C1027.2784,646.008054 1025.37867,644.117141 1023.03524,644.117141 C1020.69181,644.117141 1018.79208,646.008054 1018.79208,648.340613 C1018.79208,650.673172 1020.69181,652.564085 1023.03524,652.564085 Z M1058.11786,652.564085 C1060.46129,652.564085 1062.36102,650.673172 1062.36102,648.340613 C1062.36102,646.008054 1060.46129,644.117141 1058.11786,644.117141 C1055.77443,644.117141 1053.8747,646.008054 1053.8747,648.340613 C1053.8747,650.673172 1055.77443,652.564085 1058.11786,652.564085 Z M938.215797,652.530565 C940.559229,652.530565 942.458956,650.639652 942.458956,648.307093 C942.458956,645.974534 940.559229,644.083622 938.215797,644.083622 C935.872365,644.083622 933.972638,645.974534 933.972638,648.307093 C933.972638,650.639652 935.872365,652.530565 938.215797,652.530565 Z M1005.97512,652.564085 C1008.31855,652.564085 1010.21827,650.673172 1010.21827,648.340613 C1010.21827,646.008054 1008.31855,644.117141 1005.97512,644.117141 C1003.63168,644.117141 1001.73196,646.008054 1001.73196,648.340613 C1001.73196,650.673172 1003.63168,652.564085 1005.97512,652.564085 Z M1041.05773,652.564085 C1043.40116,652.564085 1045.30089,650.673172 1045.30089,648.340613 C1045.30089,646.008054 1043.40116,644.117141 1041.05773,644.117141 C1038.7143,644.117141 1036.81457,646.008054 1036.81457,648.340613 C1036.81457,650.673172 1038.7143,652.564085 1041.05773,652.564085 Z M972.161072,652.530565 C974.504504,652.530565 976.404231,650.639652 976.404231,648.307093 C976.404231,645.974534 974.504504,644.083622 972.161072,644.083622 C969.81764,644.083622 967.917913,645.974534 967.917913,648.307093 C967.917913,650.639652 969.81764,652.530565 972.161072,652.530565 Z" id="Combined-Shape" fill="#EBBB8B"></path>
                <path d="M645.906174,163.88616 C648.615779,163.88616 650.812347,161.698552 650.812347,159 C650.812347,156.301448 648.615779,154.11384 645.906174,154.11384 C643.196569,154.11384 641,156.301448 641,159 C641,161.698552 643.196569,163.88616 645.906174,163.88616 Z M725,163.88616 C727.709605,163.88616 729.906174,161.698552 729.906174,159 C729.906174,156.301448 727.709605,154.11384 725,154.11384 C722.290395,154.11384 720.093826,156.301448 720.093826,159 C720.093826,161.698552 722.290395,163.88616 725,163.88616 Z M685.453087,163.88616 C688.162692,163.88616 690.35926,161.698552 690.35926,159 C690.35926,156.301448 688.162692,154.11384 685.453087,154.11384 C682.743482,154.11384 680.546913,156.301448 680.546913,159 C680.546913,161.698552 682.743482,163.88616 685.453087,163.88616 Z M763.448388,163.88616 C766.157993,163.88616 768.354561,161.698552 768.354561,159 C768.354561,156.301448 766.157993,154.11384 763.448388,154.11384 C760.738783,154.11384 758.542214,156.301448 758.542214,159 C758.542214,161.698552 760.738783,163.88616 763.448388,163.88616 Z M804.093826,163.88616 C806.803431,163.88616 809,161.698552 809,159 C809,156.301448 806.803431,154.11384 804.093826,154.11384 C801.384221,154.11384 799.187653,156.301448 799.187653,159 C799.187653,161.698552 801.384221,163.88616 804.093826,163.88616 Z M665.67963,163.88616 C668.389235,163.88616 670.585804,161.698552 670.585804,159 C670.585804,156.301448 668.389235,154.11384 665.67963,154.11384 C662.970025,154.11384 660.773457,156.301448 660.773457,159 C660.773457,161.698552 662.970025,163.88616 665.67963,163.88616 Z M743.674931,163.88616 C746.384536,163.88616 748.581105,161.698552 748.581105,159 C748.581105,156.301448 746.384536,154.11384 743.674931,154.11384 C740.965326,154.11384 738.768758,156.301448 738.768758,159 C738.768758,161.698552 740.965326,163.88616 743.674931,163.88616 Z M784.32037,163.88616 C787.029975,163.88616 789.226543,161.698552 789.226543,159 C789.226543,156.301448 787.029975,154.11384 784.32037,154.11384 C781.610765,154.11384 779.414196,156.301448 779.414196,159 C779.414196,161.698552 781.610765,163.88616 784.32037,163.88616 Z M705.226543,163.88616 C707.936148,163.88616 710.132717,161.698552 710.132717,159 C710.132717,156.301448 707.936148,154.11384 705.226543,154.11384 C702.516939,154.11384 700.32037,156.301448 700.32037,159 C700.32037,161.698552 702.516939,163.88616 705.226543,163.88616 Z M645.906174,182.589474 C648.615779,182.589474 650.812347,180.401865 650.812347,177.703314 C650.812347,175.004762 648.615779,172.817154 645.906174,172.817154 C643.196569,172.817154 641,175.004762 641,177.703314 C641,180.401865 643.196569,182.589474 645.906174,182.589474 Z M725,182.589474 C727.709605,182.589474 729.906174,180.401865 729.906174,177.703314 C729.906174,175.004762 727.709605,172.817154 725,172.817154 C722.290395,172.817154 720.093826,175.004762 720.093826,177.703314 C720.093826,180.401865 722.290395,182.589474 725,182.589474 Z M685.453087,182.589474 C688.162692,182.589474 690.35926,180.401865 690.35926,177.703314 C690.35926,175.004762 688.162692,172.817154 685.453087,172.817154 C682.743482,172.817154 680.546913,175.004762 680.546913,177.703314 C680.546913,180.401865 682.743482,182.589474 685.453087,182.589474 Z M763.448388,182.589474 C766.157993,182.589474 768.354561,180.401865 768.354561,177.703314 C768.354561,175.004762 766.157993,172.817154 763.448388,172.817154 C760.738783,172.817154 758.542214,175.004762 758.542214,177.703314 C758.542214,180.401865 760.738783,182.589474 763.448388,182.589474 Z M804.093826,182.589474 C806.803431,182.589474 809,180.401865 809,177.703314 C809,175.004762 806.803431,172.817154 804.093826,172.817154 C801.384221,172.817154 799.187653,175.004762 799.187653,177.703314 C799.187653,180.401865 801.384221,182.589474 804.093826,182.589474 Z M665.67963,182.589474 C668.389235,182.589474 670.585804,180.401865 670.585804,177.703314 C670.585804,175.004762 668.389235,172.817154 665.67963,172.817154 C662.970025,172.817154 660.773457,175.004762 660.773457,177.703314 C660.773457,180.401865 662.970025,182.589474 665.67963,182.589474 Z M743.674931,182.589474 C746.384536,182.589474 748.581105,180.401865 748.581105,177.703314 C748.581105,175.004762 746.384536,172.817154 743.674931,172.817154 C740.965326,172.817154 738.768758,175.004762 738.768758,177.703314 C738.768758,180.401865 740.965326,182.589474 743.674931,182.589474 Z M784.32037,182.589474 C787.029975,182.589474 789.226543,180.401865 789.226543,177.703314 C789.226543,175.004762 787.029975,172.817154 784.32037,172.817154 C781.610765,172.817154 779.414196,175.004762 779.414196,177.703314 C779.414196,180.401865 781.610765,182.589474 784.32037,182.589474 Z M705.226543,182.589474 C707.936148,182.589474 710.132717,180.401865 710.132717,177.703314 C710.132717,175.004762 707.936148,172.817154 705.226543,172.817154 C702.516939,172.817154 700.32037,175.004762 700.32037,177.703314 C700.32037,180.401865 702.516939,182.589474 705.226543,182.589474 Z M645.906174,85.7723197 C648.615779,85.7723197 650.812347,83.5847114 650.812347,80.8861598 C650.812347,78.1876083 648.615779,76 645.906174,76 C643.196569,76 641,78.1876083 641,80.8861598 C641,83.5847114 643.196569,85.7723197 645.906174,85.7723197 Z M725,85.7723197 C727.709605,85.7723197 729.906174,83.5847114 729.906174,80.8861598 C729.906174,78.1876083 727.709605,76 725,76 C722.290395,76 720.093826,78.1876083 720.093826,80.8861598 C720.093826,83.5847114 722.290395,85.7723197 725,85.7723197 Z M685.453087,85.7723197 C688.162692,85.7723197 690.35926,83.5847114 690.35926,80.8861598 C690.35926,78.1876083 688.162692,76 685.453087,76 C682.743482,76 680.546913,78.1876083 680.546913,80.8861598 C680.546913,83.5847114 682.743482,85.7723197 685.453087,85.7723197 Z M763.448388,85.7723197 C766.157993,85.7723197 768.354561,83.5847114 768.354561,80.8861598 C768.354561,78.1876083 766.157993,76 763.448388,76 C760.738783,76 758.542214,78.1876083 758.542214,80.8861598 C758.542214,83.5847114 760.738783,85.7723197 763.448388,85.7723197 Z M804.093826,85.7723197 C806.803431,85.7723197 809,83.5847114 809,80.8861598 C809,78.1876083 806.803431,76 804.093826,76 C801.384221,76 799.187653,78.1876083 799.187653,80.8861598 C799.187653,83.5847114 801.384221,85.7723197 804.093826,85.7723197 Z M665.67963,85.7723197 C668.389235,85.7723197 670.585804,83.5847114 670.585804,80.8861598 C670.585804,78.1876083 668.389235,76 665.67963,76 C662.970025,76 660.773457,78.1876083 660.773457,80.8861598 C660.773457,83.5847114 662.970025,85.7723197 665.67963,85.7723197 Z M743.674931,85.7723197 C746.384536,85.7723197 748.581105,83.5847114 748.581105,80.8861598 C748.581105,78.1876083 746.384536,76 743.674931,76 C740.965326,76 738.768758,78.1876083 738.768758,80.8861598 C738.768758,83.5847114 740.965326,85.7723197 743.674931,85.7723197 Z M784.32037,85.7723197 C787.029975,85.7723197 789.226543,83.5847114 789.226543,80.8861598 C789.226543,78.1876083 787.029975,76 784.32037,76 C781.610765,76 779.414196,78.1876083 779.414196,80.8861598 C779.414196,83.5847114 781.610765,85.7723197 784.32037,85.7723197 Z M705.226543,85.7723197 C707.936148,85.7723197 710.132717,83.5847114 710.132717,80.8861598 C710.132717,78.1876083 707.936148,76 705.226543,76 C702.516939,76 700.32037,78.1876083 700.32037,80.8861598 C700.32037,83.5847114 702.516939,85.7723197 705.226543,85.7723197 Z M645.906174,202.392982 C648.615779,202.392982 650.812347,200.205374 650.812347,197.506823 C650.812347,194.808271 648.615779,192.620663 645.906174,192.620663 C643.196569,192.620663 641,194.808271 641,197.506823 C641,200.205374 643.196569,202.392982 645.906174,202.392982 Z M725,202.392982 C727.709605,202.392982 729.906174,200.205374 729.906174,197.506823 C729.906174,194.808271 727.709605,192.620663 725,192.620663 C722.290395,192.620663 720.093826,194.808271 720.093826,197.506823 C720.093826,200.205374 722.290395,202.392982 725,202.392982 Z M685.453087,202.392982 C688.162692,202.392982 690.35926,200.205374 690.35926,197.506823 C690.35926,194.808271 688.162692,192.620663 685.453087,192.620663 C682.743482,192.620663 680.546913,194.808271 680.546913,197.506823 C680.546913,200.205374 682.743482,202.392982 685.453087,202.392982 Z M763.448388,202.392982 C766.157993,202.392982 768.354561,200.205374 768.354561,197.506823 C768.354561,194.808271 766.157993,192.620663 763.448388,192.620663 C760.738783,192.620663 758.542214,194.808271 758.542214,197.506823 C758.542214,200.205374 760.738783,202.392982 763.448388,202.392982 Z M804.093826,202.392982 C806.803431,202.392982 809,200.205374 809,197.506823 C809,194.808271 806.803431,192.620663 804.093826,192.620663 C801.384221,192.620663 799.187653,194.808271 799.187653,197.506823 C799.187653,200.205374 801.384221,202.392982 804.093826,202.392982 Z M665.67963,202.392982 C668.389235,202.392982 670.585804,200.205374 670.585804,197.506823 C670.585804,194.808271 668.389235,192.620663 665.67963,192.620663 C662.970025,192.620663 660.773457,194.808271 660.773457,197.506823 C660.773457,200.205374 662.970025,202.392982 665.67963,202.392982 Z M743.674931,202.392982 C746.384536,202.392982 748.581105,200.205374 748.581105,197.506823 C748.581105,194.808271 746.384536,192.620663 743.674931,192.620663 C740.965326,192.620663 738.768758,194.808271 738.768758,197.506823 C738.768758,200.205374 740.965326,202.392982 743.674931,202.392982 Z M784.32037,202.392982 C787.029975,202.392982 789.226543,200.205374 789.226543,197.506823 C789.226543,194.808271 787.029975,192.620663 784.32037,192.620663 C781.610765,192.620663 779.414196,194.808271 779.414196,197.506823 C779.414196,200.205374 781.610765,202.392982 784.32037,202.392982 Z M705.226543,202.392982 C707.936148,202.392982 710.132717,200.205374 710.132717,197.506823 C710.132717,194.808271 707.936148,192.620663 705.226543,192.620663 C702.516939,192.620663 700.32037,194.808271 700.32037,197.506823 C700.32037,200.205374 702.516939,202.392982 705.226543,202.392982 Z M645.906174,104.475634 C648.615779,104.475634 650.812347,102.288025 650.812347,99.5894737 C650.812347,96.8909221 648.615779,94.7033138 645.906174,94.7033138 C643.196569,94.7033138 641,96.8909221 641,99.5894737 C641,102.288025 643.196569,104.475634 645.906174,104.475634 Z M725,104.475634 C727.709605,104.475634 729.906174,102.288025 729.906174,99.5894737 C729.906174,96.8909221 727.709605,94.7033138 725,94.7033138 C722.290395,94.7033138 720.093826,96.8909221 720.093826,99.5894737 C720.093826,102.288025 722.290395,104.475634 725,104.475634 Z M685.453087,104.475634 C688.162692,104.475634 690.35926,102.288025 690.35926,99.5894737 C690.35926,96.8909221 688.162692,94.7033138 685.453087,94.7033138 C682.743482,94.7033138 680.546913,96.8909221 680.546913,99.5894737 C680.546913,102.288025 682.743482,104.475634 685.453087,104.475634 Z M763.448388,105.575828 C766.157993,105.575828 768.354561,103.38822 768.354561,100.689669 C768.354561,97.991117 766.157993,95.8035088 763.448388,95.8035088 C760.738783,95.8035088 758.542214,97.991117 758.542214,100.689669 C758.542214,103.38822 760.738783,105.575828 763.448388,105.575828 Z M804.093826,105.575828 C806.803431,105.575828 809,103.38822 809,100.689669 C809,97.991117 806.803431,95.8035088 804.093826,95.8035088 C801.384221,95.8035088 799.187653,97.991117 799.187653,100.689669 C799.187653,103.38822 801.384221,105.575828 804.093826,105.575828 Z M665.67963,104.475634 C668.389235,104.475634 670.585804,102.288025 670.585804,99.5894737 C670.585804,96.8909221 668.389235,94.7033138 665.67963,94.7033138 C662.970025,94.7033138 660.773457,96.8909221 660.773457,99.5894737 C660.773457,102.288025 662.970025,104.475634 665.67963,104.475634 Z M743.674931,105.575828 C746.384536,105.575828 748.581105,103.38822 748.581105,100.689669 C748.581105,97.991117 746.384536,95.8035088 743.674931,95.8035088 C740.965326,95.8035088 738.768758,97.991117 738.768758,100.689669 C738.768758,103.38822 740.965326,105.575828 743.674931,105.575828 Z M784.32037,105.575828 C787.029975,105.575828 789.226543,103.38822 789.226543,100.689669 C789.226543,97.991117 787.029975,95.8035088 784.32037,95.8035088 C781.610765,95.8035088 779.414196,97.991117 779.414196,100.689669 C779.414196,103.38822 781.610765,105.575828 784.32037,105.575828 Z M705.226543,104.475634 C707.936148,104.475634 710.132717,102.288025 710.132717,99.5894737 C710.132717,96.8909221 707.936148,94.7033138 705.226543,94.7033138 C702.516939,94.7033138 700.32037,96.8909221 700.32037,99.5894737 C700.32037,102.288025 702.516939,104.475634 705.226543,104.475634 Z M645.906174,222.196491 C648.615779,222.196491 650.812347,220.008883 650.812347,217.310331 C650.812347,214.61178 648.615779,212.424172 645.906174,212.424172 C643.196569,212.424172 641,214.61178 641,217.310331 C641,220.008883 643.196569,222.196491 645.906174,222.196491 Z M725,222.196491 C727.709605,222.196491 729.906174,220.008883 729.906174,217.310331 C729.906174,214.61178 727.709605,212.424172 725,212.424172 C722.290395,212.424172 720.093826,214.61178 720.093826,217.310331 C720.093826,220.008883 722.290395,222.196491 725,222.196491 Z M685.453087,222.196491 C688.162692,222.196491 690.35926,220.008883 690.35926,217.310331 C690.35926,214.61178 688.162692,212.424172 685.453087,212.424172 C682.743482,212.424172 680.546913,214.61178 680.546913,217.310331 C680.546913,220.008883 682.743482,222.196491 685.453087,222.196491 Z M763.448388,222.196491 C766.157993,222.196491 768.354561,220.008883 768.354561,217.310331 C768.354561,214.61178 766.157993,212.424172 763.448388,212.424172 C760.738783,212.424172 758.542214,214.61178 758.542214,217.310331 C758.542214,220.008883 760.738783,222.196491 763.448388,222.196491 Z M804.093826,222.196491 C806.803431,222.196491 809,220.008883 809,217.310331 C809,214.61178 806.803431,212.424172 804.093826,212.424172 C801.384221,212.424172 799.187653,214.61178 799.187653,217.310331 C799.187653,220.008883 801.384221,222.196491 804.093826,222.196491 Z M665.67963,222.196491 C668.389235,222.196491 670.585804,220.008883 670.585804,217.310331 C670.585804,214.61178 668.389235,212.424172 665.67963,212.424172 C662.970025,212.424172 660.773457,214.61178 660.773457,217.310331 C660.773457,220.008883 662.970025,222.196491 665.67963,222.196491 Z M743.674931,222.196491 C746.384536,222.196491 748.581105,220.008883 748.581105,217.310331 C748.581105,214.61178 746.384536,212.424172 743.674931,212.424172 C740.965326,212.424172 738.768758,214.61178 738.768758,217.310331 C738.768758,220.008883 740.965326,222.196491 743.674931,222.196491 Z M784.32037,222.196491 C787.029975,222.196491 789.226543,220.008883 789.226543,217.310331 C789.226543,214.61178 787.029975,212.424172 784.32037,212.424172 C781.610765,212.424172 779.414196,214.61178 779.414196,217.310331 C779.414196,220.008883 781.610765,222.196491 784.32037,222.196491 Z M705.226543,222.196491 C707.936148,222.196491 710.132717,220.008883 710.132717,217.310331 C710.132717,214.61178 707.936148,212.424172 705.226543,212.424172 C702.516939,212.424172 700.32037,214.61178 700.32037,217.310331 C700.32037,220.008883 702.516939,222.196491 705.226543,222.196491 Z M645.906174,124.279142 C648.615779,124.279142 650.812347,122.091534 650.812347,119.392982 C650.812347,116.694431 648.615779,114.506823 645.906174,114.506823 C643.196569,114.506823 641,116.694431 641,119.392982 C641,122.091534 643.196569,124.279142 645.906174,124.279142 Z M725,124.279142 C727.709605,124.279142 729.906174,122.091534 729.906174,119.392982 C729.906174,116.694431 727.709605,114.506823 725,114.506823 C722.290395,114.506823 720.093826,116.694431 720.093826,119.392982 C720.093826,122.091534 722.290395,124.279142 725,124.279142 Z M685.453087,124.279142 C688.162692,124.279142 690.35926,122.091534 690.35926,119.392982 C690.35926,116.694431 688.162692,114.506823 685.453087,114.506823 C682.743482,114.506823 680.546913,116.694431 680.546913,119.392982 C680.546913,122.091534 682.743482,124.279142 685.453087,124.279142 Z M763.448388,124.279142 C766.157993,124.279142 768.354561,122.091534 768.354561,119.392982 C768.354561,116.694431 766.157993,114.506823 763.448388,114.506823 C760.738783,114.506823 758.542214,116.694431 758.542214,119.392982 C758.542214,122.091534 760.738783,124.279142 763.448388,124.279142 Z M804.093826,125.379337 C806.803431,125.379337 809,123.191729 809,120.493177 C809,117.794626 806.803431,115.607018 804.093826,115.607018 C801.384221,115.607018 799.187653,117.794626 799.187653,120.493177 C799.187653,123.191729 801.384221,125.379337 804.093826,125.379337 Z M665.67963,124.279142 C668.389235,124.279142 670.585804,122.091534 670.585804,119.392982 C670.585804,116.694431 668.389235,114.506823 665.67963,114.506823 C662.970025,114.506823 660.773457,116.694431 660.773457,119.392982 C660.773457,122.091534 662.970025,124.279142 665.67963,124.279142 Z M743.674931,124.279142 C746.384536,124.279142 748.581105,122.091534 748.581105,119.392982 C748.581105,116.694431 746.384536,114.506823 743.674931,114.506823 C740.965326,114.506823 738.768758,116.694431 738.768758,119.392982 C738.768758,122.091534 740.965326,124.279142 743.674931,124.279142 Z M784.32037,125.379337 C787.029975,125.379337 789.226543,123.191729 789.226543,120.493177 C789.226543,117.794626 787.029975,115.607018 784.32037,115.607018 C781.610765,115.607018 779.414196,117.794626 779.414196,120.493177 C779.414196,123.191729 781.610765,125.379337 784.32037,125.379337 Z M705.226543,124.279142 C707.936148,124.279142 710.132717,122.091534 710.132717,119.392982 C710.132717,116.694431 707.936148,114.506823 705.226543,114.506823 C702.516939,114.506823 700.32037,116.694431 700.32037,119.392982 C700.32037,122.091534 702.516939,124.279142 705.226543,124.279142 Z M645.906174,242 C648.615779,242 650.812347,239.812392 650.812347,237.11384 C650.812347,234.415289 648.615779,232.22768 645.906174,232.22768 C643.196569,232.22768 641,234.415289 641,237.11384 C641,239.812392 643.196569,242 645.906174,242 Z M725,242 C727.709605,242 729.906174,239.812392 729.906174,237.11384 C729.906174,234.415289 727.709605,232.22768 725,232.22768 C722.290395,232.22768 720.093826,234.415289 720.093826,237.11384 C720.093826,239.812392 722.290395,242 725,242 Z M685.453087,242 C688.162692,242 690.35926,239.812392 690.35926,237.11384 C690.35926,234.415289 688.162692,232.22768 685.453087,232.22768 C682.743482,232.22768 680.546913,234.415289 680.546913,237.11384 C680.546913,239.812392 682.743482,242 685.453087,242 Z M763.448388,242 C766.157993,242 768.354561,239.812392 768.354561,237.11384 C768.354561,234.415289 766.157993,232.22768 763.448388,232.22768 C760.738783,232.22768 758.542214,234.415289 758.542214,237.11384 C758.542214,239.812392 760.738783,242 763.448388,242 Z M804.093826,242 C806.803431,242 809,239.812392 809,237.11384 C809,234.415289 806.803431,232.22768 804.093826,232.22768 C801.384221,232.22768 799.187653,234.415289 799.187653,237.11384 C799.187653,239.812392 801.384221,242 804.093826,242 Z M665.67963,242 C668.389235,242 670.585804,239.812392 670.585804,237.11384 C670.585804,234.415289 668.389235,232.22768 665.67963,232.22768 C662.970025,232.22768 660.773457,234.415289 660.773457,237.11384 C660.773457,239.812392 662.970025,242 665.67963,242 Z M743.674931,242 C746.384536,242 748.581105,239.812392 748.581105,237.11384 C748.581105,234.415289 746.384536,232.22768 743.674931,232.22768 C740.965326,232.22768 738.768758,234.415289 738.768758,237.11384 C738.768758,239.812392 740.965326,242 743.674931,242 Z M784.32037,242 C787.029975,242 789.226543,239.812392 789.226543,237.11384 C789.226543,234.415289 787.029975,232.22768 784.32037,232.22768 C781.610765,232.22768 779.414196,234.415289 779.414196,237.11384 C779.414196,239.812392 781.610765,242 784.32037,242 Z M705.226543,242 C707.936148,242 710.132717,239.812392 710.132717,237.11384 C710.132717,234.415289 707.936148,232.22768 705.226543,232.22768 C702.516939,232.22768 700.32037,234.415289 700.32037,237.11384 C700.32037,239.812392 702.516939,242 705.226543,242 Z M645.906174,144.082651 C648.615779,144.082651 650.812347,141.895043 650.812347,139.196491 C650.812347,136.49794 648.615779,134.310331 645.906174,134.310331 C643.196569,134.310331 641,136.49794 641,139.196491 C641,141.895043 643.196569,144.082651 645.906174,144.082651 Z M725,144.082651 C727.709605,144.082651 729.906174,141.895043 729.906174,139.196491 C729.906174,136.49794 727.709605,134.310331 725,134.310331 C722.290395,134.310331 720.093826,136.49794 720.093826,139.196491 C720.093826,141.895043 722.290395,144.082651 725,144.082651 Z M685.453087,144.082651 C688.162692,144.082651 690.35926,141.895043 690.35926,139.196491 C690.35926,136.49794 688.162692,134.310331 685.453087,134.310331 C682.743482,134.310331 680.546913,136.49794 680.546913,139.196491 C680.546913,141.895043 682.743482,144.082651 685.453087,144.082651 Z M763.448388,144.082651 C766.157993,144.082651 768.354561,141.895043 768.354561,139.196491 C768.354561,136.49794 766.157993,134.310331 763.448388,134.310331 C760.738783,134.310331 758.542214,136.49794 758.542214,139.196491 C758.542214,141.895043 760.738783,144.082651 763.448388,144.082651 Z M804.093826,144.082651 C806.803431,144.082651 809,141.895043 809,139.196491 C809,136.49794 806.803431,134.310331 804.093826,134.310331 C801.384221,134.310331 799.187653,136.49794 799.187653,139.196491 C799.187653,141.895043 801.384221,144.082651 804.093826,144.082651 Z M665.67963,144.082651 C668.389235,144.082651 670.585804,141.895043 670.585804,139.196491 C670.585804,136.49794 668.389235,134.310331 665.67963,134.310331 C662.970025,134.310331 660.773457,136.49794 660.773457,139.196491 C660.773457,141.895043 662.970025,144.082651 665.67963,144.082651 Z M743.674931,144.082651 C746.384536,144.082651 748.581105,141.895043 748.581105,139.196491 C748.581105,136.49794 746.384536,134.310331 743.674931,134.310331 C740.965326,134.310331 738.768758,136.49794 738.768758,139.196491 C738.768758,141.895043 740.965326,144.082651 743.674931,144.082651 Z M784.32037,144.082651 C787.029975,144.082651 789.226543,141.895043 789.226543,139.196491 C789.226543,136.49794 787.029975,134.310331 784.32037,134.310331 C781.610765,134.310331 779.414196,136.49794 779.414196,139.196491 C779.414196,141.895043 781.610765,144.082651 784.32037,144.082651 Z M705.226543,144.082651 C707.936148,144.082651 710.132717,141.895043 710.132717,139.196491 C710.132717,136.49794 707.936148,134.310331 705.226543,134.310331 C702.516939,134.310331 700.32037,136.49794 700.32037,139.196491 C700.32037,141.895043 702.516939,144.082651 705.226543,144.082651 Z" id="Combined-Shape" fill="#EF6261"></path>
            </g>
        </g>
    </g>
</svg>