<?xml version="1.0" encoding="UTF-8"?>
<svg width="1920px" height="1081px" viewBox="0 0 1920 1081" version="1.1" xmlns="http://www.w3.org/2000/svg" xmlns:xlink="http://www.w3.org/1999/xlink">
    <!-- Generator: Sketch 41.1 (35376) - http://www.bohemiancoding.com/sketch -->
    <title>Slice 1</title>
    <desc>Created with Sketch.</desc>
    <defs></defs>
    <g id="Page-1" stroke="none" stroke-width="1" fill="none" fill-rule="evenodd">
        <g id="background-home">
            <polygon id="c" fill="#F3F9F9" points="360 90 1560 90 1560 990 360 990"></polygon>
            <polygon id="c-2" fill="#000000" points="360 90 1560 90 1560 990 360 990"></polygon>
            <polygon id="e" fill="#FFFFFF" points="360 90 1560 90 1560 990 360 990"></polygon>
            <polygon id="e-2" fill="#000000" points="360 90 1560 90 1560 990 360 990"></polygon>
            <polygon id="Shape" fill="#F4E886" points="0 0 1920 0 1920 1081 0 1081"></polygon>
            <polygon id="Shape" fill="#00EAB3" points="782 0 1920 0 1920 705 782 705"></polygon>
            <path d="M1072,231 C1075.31371,231 1078,228.313708 1078,225 C1078,221.686292 1075.31371,219 1072,219 C1068.68629,219 1066,221.686292 1066,225 C1066,228.313708 1068.68629,231 1072,231 Z M1072,263 C1075.31371,263 1078,260.313708 1078,257 C1078,253.686292 1075.31371,251 1072,251 C1068.68629,251 1066,253.686292 1066,257 C1066,260.313708 1068.68629,263 1072,263 Z M1072,295 C1075.31371,295 1078,292.313708 1078,289 C1078,285.686292 1075.31371,283 1072,283 C1068.68629,283 1066,285.686292 1066,289 C1066,292.313708 1068.68629,295 1072,295 Z M1072,327 C1075.31371,327 1078,324.313708 1078,321 C1078,317.686292 1075.31371,315 1072,315 C1068.68629,315 1066,317.686292 1066,321 C1066,324.313708 1068.68629,327 1072,327 Z M1072,359 C1075.31371,359 1078,356.313708 1078,353 C1078,349.686292 1075.31371,347 1072,347 C1068.68629,347 1066,349.686292 1066,353 C1066,356.313708 1068.68629,359 1072,359 Z M1168,231 C1171.31371,231 1174,228.313708 1174,225 C1174,221.686292 1171.31371,219 1168,219 C1164.68629,219 1162,221.686292 1162,225 C1162,228.313708 1164.68629,231 1168,231 Z M1168,263 C1171.31371,263 1174,260.313708 1174,257 C1174,253.686292 1171.31371,251 1168,251 C1164.68629,251 1162,253.686292 1162,257 C1162,260.313708 1164.68629,263 1168,263 Z M1168,295 C1171.31371,295 1174,292.313708 1174,289 C1174,285.686292 1171.31371,283 1168,283 C1164.68629,283 1162,285.686292 1162,289 C1162,292.313708 1164.68629,295 1168,295 Z M1168,327 C1171.31371,327 1174,324.313708 1174,321 C1174,317.686292 1171.31371,315 1168,315 C1164.68629,315 1162,317.686292 1162,321 C1162,324.313708 1164.68629,327 1168,327 Z M1168,359 C1171.31371,359 1174,356.313708 1174,353 C1174,349.686292 1171.31371,347 1168,347 C1164.68629,347 1162,349.686292 1162,353 C1162,356.313708 1164.68629,359 1168,359 Z M1104,231 C1107.31371,231 1110,228.313708 1110,225 C1110,221.686292 1107.31371,219 1104,219 C1100.68629,219 1098,221.686292 1098,225 C1098,228.313708 1100.68629,231 1104,231 Z M1104,263 C1107.31371,263 1110,260.313708 1110,257 C1110,253.686292 1107.31371,251 1104,251 C1100.68629,251 1098,253.686292 1098,257 C1098,260.313708 1100.68629,263 1104,263 Z M1104,295 C1107.31371,295 1110,292.313708 1110,289 C1110,285.686292 1107.31371,283 1104,283 C1100.68629,283 1098,285.686292 1098,289 C1098,292.313708 1100.68629,295 1104,295 Z M1104,327 C1107.31371,327 1110,324.313708 1110,321 C1110,317.686292 1107.31371,315 1104,315 C1100.68629,315 1098,317.686292 1098,321 C1098,324.313708 1100.68629,327 1104,327 Z M1104,359 C1107.31371,359 1110,356.313708 1110,353 C1110,349.686292 1107.31371,347 1104,347 C1100.68629,347 1098,349.686292 1098,353 C1098,356.313708 1100.68629,359 1104,359 Z M1200,231 C1203.31371,231 1206,228.313708 1206,225 C1206,221.686292 1203.31371,219 1200,219 C1196.68629,219 1194,221.686292 1194,225 C1194,228.313708 1196.68629,231 1200,231 Z M1200,263 C1203.31371,263 1206,260.313708 1206,257 C1206,253.686292 1203.31371,251 1200,251 C1196.68629,251 1194,253.686292 1194,257 C1194,260.313708 1196.68629,263 1200,263 Z M1200,295 C1203.31371,295 1206,292.313708 1206,289 C1206,285.686292 1203.31371,283 1200,283 C1196.68629,283 1194,285.686292 1194,289 C1194,292.313708 1196.68629,295 1200,295 Z M1200,327 C1203.31371,327 1206,324.313708 1206,321 C1206,317.686292 1203.31371,315 1200,315 C1196.68629,315 1194,317.686292 1194,321 C1194,324.313708 1196.68629,327 1200,327 Z M1200,359 C1203.31371,359 1206,356.313708 1206,353 C1206,349.686292 1203.31371,347 1200,347 C1196.68629,347 1194,349.686292 1194,353 C1194,356.313708 1196.68629,359 1200,359 Z M1136,231 C1139.31371,231 1142,228.313708 1142,225 C1142,221.686292 1139.31371,219 1136,219 C1132.68629,219 1130,221.686292 1130,225 C1130,228.313708 1132.68629,231 1136,231 Z M1136,263 C1139.31371,263 1142,260.313708 1142,257 C1142,253.686292 1139.31371,251 1136,251 C1132.68629,251 1130,253.686292 1130,257 C1130,260.313708 1132.68629,263 1136,263 Z M1136,295 C1139.31371,295 1142,292.313708 1142,289 C1142,285.686292 1139.31371,283 1136,283 C1132.68629,283 1130,285.686292 1130,289 C1130,292.313708 1132.68629,295 1136,295 Z M1136,327 C1139.31371,327 1142,324.313708 1142,321 C1142,317.686292 1139.31371,315 1136,315 C1132.68629,315 1130,317.686292 1130,321 C1130,324.313708 1132.68629,327 1136,327 Z M1136,359 C1139.31371,359 1142,356.313708 1142,353 C1142,349.686292 1139.31371,347 1136,347 C1132.68629,347 1130,349.686292 1130,353 C1130,356.313708 1132.68629,359 1136,359 Z" id="Shape" fill="#518076"></path>
            <polygon id="Shape" fill="#508277" points="1429 588 1627 588 1627 814 1429 814"></polygon>
            <path d="M1469,705.94 C1471.72023,705.906958 1473.9018,703.680829 1473.87984,700.960485 C1473.85788,698.240142 1471.64065,696.049524 1468.92024,696.060404 C1466.19983,696.071284 1464.0002,698.279568 1464,701 C1464.03286,703.737964 1466.26184,705.940197 1469,705.94 Z M1548.38,705.94 C1551.10023,705.906958 1553.2818,703.680829 1553.25984,700.960485 C1553.23788,698.240142 1551.02065,696.049524 1548.30024,696.060404 C1545.57983,696.071284 1543.3802,698.279568 1543.38,701 C1543.41267,703.726319 1545.62353,705.923837 1548.35,705.94 L1548.38,705.94 Z M1508.69,705.94 C1511.41023,705.906958 1513.5918,703.680829 1513.56984,700.960485 C1513.54788,698.240142 1511.33065,696.049524 1508.61024,696.060404 C1505.88983,696.071284 1503.6902,698.279568 1503.69,701 C1503.72259,703.722456 1505.92743,705.918414 1508.65,705.94 L1508.69,705.94 Z M1588.07,705.94 C1590.79023,705.906958 1592.9718,703.680829 1592.94984,700.960485 C1592.92788,698.240142 1590.71065,696.049524 1587.99024,696.060404 C1585.26983,696.071284 1583.0702,698.279568 1583.07,701 C1583.10227,703.710924 1585.28915,705.902236 1588,705.94 L1588.07,705.94 Z M1488.84,705.94 C1491.56023,705.906958 1493.7418,703.680829 1493.71984,700.960485 C1493.69788,698.240142 1491.48065,696.049524 1488.76024,696.060404 C1486.03983,696.071284 1483.8402,698.279568 1483.84,701 C1483.87267,703.726319 1486.08353,705.923837 1488.81,705.94 L1488.84,705.94 Z M1568.22,705.94 C1570.94023,705.906958 1573.1218,703.680829 1573.09984,700.960485 C1573.07788,698.240142 1570.86065,696.049524 1568.14024,696.060404 C1565.41983,696.071284 1563.2202,698.279568 1563.22,701 C1563.25267,703.726319 1565.46353,705.923837 1568.19,705.94 L1568.22,705.94 Z M1528.53,705.94 C1531.25023,705.906958 1533.4318,703.680829 1533.40984,700.960485 C1533.38788,698.240142 1531.17065,696.049524 1528.45024,696.060404 C1525.72983,696.071284 1523.5302,698.279568 1523.53,701 C1523.56267,703.726319 1525.77353,705.923837 1528.5,705.94 L1528.53,705.94 Z M1469,725.71 C1471.72023,725.676958 1473.9018,723.450829 1473.87984,720.730485 C1473.85788,718.010142 1471.64065,715.819524 1468.92024,715.830404 C1466.19983,715.841284 1464.0002,718.049568 1464,720.77 C1464.03286,723.507964 1466.26184,725.710197 1469,725.71 L1469,725.71 Z M1548.38,725.71 C1551.10023,725.676958 1553.2818,723.450829 1553.25984,720.730485 C1553.23788,718.010142 1551.02065,715.819524 1548.30024,715.830404 C1545.57983,715.841284 1543.3802,718.049568 1543.38,720.77 C1543.41286,723.507964 1545.64184,725.710197 1548.38,725.71 L1548.38,725.71 Z M1508.69,725.71 C1511.41023,725.676958 1513.5918,723.450829 1513.56984,720.730485 C1513.54788,718.010142 1511.33065,715.819524 1508.61024,715.830404 C1505.88983,715.841284 1503.6902,718.049568 1503.69,720.77 C1503.72286,723.507964 1505.95184,725.710197 1508.69,725.71 L1508.69,725.71 Z M1588.07,725.71 C1590.79023,725.676958 1592.9718,723.450829 1592.94984,720.730485 C1592.92788,718.010142 1590.71065,715.819524 1587.99024,715.830404 C1585.26983,715.841284 1583.0702,718.049568 1583.07,720.77 C1583.10286,723.507964 1585.33184,725.710197 1588.07,725.71 L1588.07,725.71 Z M1488.84,725.71 C1491.56023,725.676958 1493.7418,723.450829 1493.71984,720.730485 C1493.69788,718.010142 1491.48065,715.819524 1488.76024,715.830404 C1486.03983,715.841284 1483.8402,718.049568 1483.84,720.77 C1483.87286,723.507964 1486.10184,725.710197 1488.84,725.71 L1488.84,725.71 Z M1568.22,725.71 C1570.94023,725.676958 1573.1218,723.450829 1573.09984,720.730485 C1573.07788,718.010142 1570.86065,715.819524 1568.14024,715.830404 C1565.41983,715.841284 1563.2202,718.049568 1563.22,720.77 C1563.25286,723.507964 1565.48184,725.710197 1568.22,725.71 L1568.22,725.71 Z M1528.53,725.71 C1531.25023,725.676958 1533.4318,723.450829 1533.40984,720.730485 C1533.38788,718.010142 1531.17065,715.819524 1528.45024,715.830404 C1525.72983,715.841284 1523.5302,718.049568 1523.53,720.77 C1523.56286,723.507964 1525.79184,725.710197 1528.53,725.71 L1528.53,725.71 Z M1469,626.88 C1471.72023,626.846958 1473.9018,624.620829 1473.87984,621.900485 C1473.85788,619.180142 1471.64065,616.989524 1468.92024,617.000404 C1466.19983,617.011284 1464.0002,619.219568 1464,621.94 C1464.03286,624.677964 1466.26184,626.880197 1469,626.88 Z M1548.38,626.88 C1551.10023,626.846958 1553.2818,624.620829 1553.25984,621.900485 C1553.23788,619.180142 1551.02065,616.989524 1548.30024,617.000404 C1545.57983,617.011284 1543.3802,619.219568 1543.38,621.94 C1543.41286,624.677964 1545.64184,626.880197 1548.38,626.88 Z M1508.69,626.88 C1511.41023,626.846958 1513.5918,624.620829 1513.56984,621.900485 C1513.54788,619.180142 1511.33065,616.989524 1508.61024,617.000404 C1505.88983,617.011284 1503.6902,619.219568 1503.69,621.94 C1503.72286,624.677964 1505.95184,626.880197 1508.69,626.88 L1508.69,626.88 Z M1588.07,626.88 C1590.79023,626.846958 1592.9718,624.620829 1592.94984,621.900485 C1592.92788,619.180142 1590.71065,616.989524 1587.99024,617.000404 C1585.26983,617.011284 1583.0702,619.219568 1583.07,621.94 C1583.10286,624.677964 1585.33184,626.880197 1588.07,626.88 L1588.07,626.88 Z M1488.84,626.88 C1491.56023,626.846958 1493.7418,624.620829 1493.71984,621.900485 C1493.69788,619.180142 1491.48065,616.989524 1488.76024,617.000404 C1486.03983,617.011284 1483.8402,619.219568 1483.84,621.94 C1483.87286,624.677964 1486.10184,626.880197 1488.84,626.88 L1488.84,626.88 Z M1568.22,626.88 C1570.94023,626.846958 1573.1218,624.620829 1573.09984,621.900485 C1573.07788,619.180142 1570.86065,616.989524 1568.14024,617.000404 C1565.41983,617.011284 1563.2202,619.219568 1563.22,621.94 C1563.25286,624.677964 1565.48184,626.880197 1568.22,626.88 L1568.22,626.88 Z M1528.53,626.88 C1531.25023,626.846958 1533.4318,624.620829 1533.40984,621.900485 C1533.38788,619.180142 1531.17065,616.989524 1528.45024,617.000404 C1525.72983,617.011284 1523.5302,619.219568 1523.53,621.94 C1523.56286,624.677964 1525.79184,626.880197 1528.53,626.88 L1528.53,626.88 Z M1469,745.47 C1471.72023,745.436958 1473.9018,743.210829 1473.87984,740.490485 C1473.85788,737.770142 1471.64065,735.579524 1468.92024,735.590404 C1466.19983,735.601284 1464.0002,737.809568 1464,740.53 C1464.03286,743.267964 1466.26184,745.470197 1469,745.47 L1469,745.47 Z M1548.38,745.47 C1551.10023,745.436958 1553.2818,743.210829 1553.25984,740.490485 C1553.23788,737.770142 1551.02065,735.579524 1548.30024,735.590404 C1545.57983,735.601284 1543.3802,737.809568 1543.38,740.53 C1543.41267,743.256319 1545.62353,745.453837 1548.35,745.47 L1548.38,745.47 Z M1508.69,745.47 C1511.41023,745.436958 1513.5918,743.210829 1513.56984,740.490485 C1513.54788,737.770142 1511.33065,735.579524 1508.61024,735.590404 C1505.88983,735.601284 1503.6902,737.809568 1503.69,740.53 C1503.72259,743.252456 1505.92743,745.448414 1508.65,745.47 L1508.69,745.47 Z M1588.07,745.47 C1590.79023,745.436958 1592.9718,743.210829 1592.94984,740.490485 C1592.92788,737.770142 1590.71065,735.579524 1587.99024,735.590404 C1585.26983,735.601284 1583.0702,737.809568 1583.07,740.53 C1583.10227,743.240924 1585.28915,745.432236 1588,745.47 L1588.07,745.47 Z M1488.84,745.47 C1491.56023,745.436958 1493.7418,743.210829 1493.71984,740.490485 C1493.69788,737.770142 1491.48065,735.579524 1488.76024,735.590404 C1486.03983,735.601284 1483.8402,737.809568 1483.84,740.53 C1483.87267,743.256319 1486.08353,745.453837 1488.81,745.47 L1488.84,745.47 Z M1568.22,745.47 C1570.94023,745.436958 1573.1218,743.210829 1573.09984,740.490485 C1573.07788,737.770142 1570.86065,735.579524 1568.14024,735.590404 C1565.41983,735.601284 1563.2202,737.809568 1563.22,740.53 C1563.25267,743.256319 1565.46353,745.453837 1568.19,745.47 L1568.22,745.47 Z M1528.53,745.47 C1531.25023,745.436958 1533.4318,743.210829 1533.40984,740.490485 C1533.38788,737.770142 1531.17065,735.579524 1528.45024,735.590404 C1525.72983,735.601284 1523.5302,737.809568 1523.53,740.53 C1523.56267,743.256319 1525.77353,745.453837 1528.5,745.47 L1528.53,745.47 Z M1469,646.65 C1471.72023,646.616958 1473.9018,644.390829 1473.87984,641.670485 C1473.85788,638.950142 1471.64065,636.759524 1468.92024,636.770404 C1466.19983,636.781284 1464.0002,638.989568 1464,641.71 C1464.03286,644.447964 1466.26184,646.650197 1469,646.65 L1469,646.65 Z M1548.38,646.65 C1551.10023,646.616958 1553.2818,644.390829 1553.25984,641.670485 C1553.23788,638.950142 1551.02065,636.759524 1548.30024,636.770404 C1545.57983,636.781284 1543.3802,638.989568 1543.38,641.71 C1543.41286,644.447964 1545.64184,646.650197 1548.38,646.65 L1548.38,646.65 Z M1508.69,646.65 C1511.41023,646.616958 1513.5918,644.390829 1513.56984,641.670485 C1513.54788,638.950142 1511.33065,636.759524 1508.61024,636.770404 C1505.88983,636.781284 1503.6902,638.989568 1503.69,641.71 C1503.72286,644.447964 1505.95184,646.650197 1508.69,646.65 L1508.69,646.65 Z M1588.07,646.65 C1590.79023,646.616958 1592.9718,644.390829 1592.94984,641.670485 C1592.92788,638.950142 1590.71065,636.759524 1587.99024,636.770404 C1585.26983,636.781284 1583.0702,638.989568 1583.07,641.71 C1583.10286,644.447964 1585.33184,646.650197 1588.07,646.65 L1588.07,646.65 Z M1488.84,646.65 C1491.56023,646.616958 1493.7418,644.390829 1493.71984,641.670485 C1493.69788,638.950142 1491.48065,636.759524 1488.76024,636.770404 C1486.03983,636.781284 1483.8402,638.989568 1483.84,641.71 C1483.87286,644.447964 1486.10184,646.650197 1488.84,646.65 L1488.84,646.65 Z M1568.22,646.65 C1570.94023,646.616958 1573.1218,644.390829 1573.09984,641.670485 C1573.07788,638.950142 1570.86065,636.759524 1568.14024,636.770404 C1565.41983,636.781284 1563.2202,638.989568 1563.22,641.71 C1563.25286,644.447964 1565.48184,646.650197 1568.22,646.65 L1568.22,646.65 Z M1528.53,646.65 C1531.25023,646.616958 1533.4318,644.390829 1533.40984,641.670485 C1533.38788,638.950142 1531.17065,636.759524 1528.45024,636.770404 C1525.72983,636.781284 1523.5302,638.989568 1523.53,641.71 C1523.56286,644.447964 1525.79184,646.650197 1528.53,646.65 L1528.53,646.65 Z M1469,765.24 C1471.72023,765.206958 1473.9018,762.980829 1473.87984,760.260485 C1473.85788,757.540142 1471.64065,755.349524 1468.92024,755.360404 C1466.19983,755.371284 1464.0002,757.579568 1464,760.3 C1464.03286,763.037964 1466.26184,765.240197 1469,765.24 L1469,765.24 Z M1548.38,765.24 C1551.10023,765.206958 1553.2818,762.980829 1553.25984,760.260485 C1553.23788,757.540142 1551.02065,755.349524 1548.30024,755.360404 C1545.57983,755.371284 1543.3802,757.579568 1543.38,760.3 C1543.41286,763.037964 1545.64184,765.240197 1548.38,765.24 L1548.38,765.24 Z M1508.69,765.24 C1511.41023,765.206958 1513.5918,762.980829 1513.56984,760.260485 C1513.54788,757.540142 1511.33065,755.349524 1508.61024,755.360404 C1505.88983,755.371284 1503.6902,757.579568 1503.69,760.3 C1503.72286,763.037964 1505.95184,765.240197 1508.69,765.24 L1508.69,765.24 Z M1588.07,765.24 C1590.79023,765.206958 1592.9718,762.980829 1592.94984,760.260485 C1592.92788,757.540142 1590.71065,755.349524 1587.99024,755.360404 C1585.26983,755.371284 1583.0702,757.579568 1583.07,760.3 C1583.10286,763.037964 1585.33184,765.240197 1588.07,765.24 L1588.07,765.24 Z M1488.84,765.24 C1491.56023,765.206958 1493.7418,762.980829 1493.71984,760.260485 C1493.69788,757.540142 1491.48065,755.349524 1488.76024,755.360404 C1486.03983,755.371284 1483.8402,757.579568 1483.84,760.3 C1483.87286,763.037964 1486.10184,765.240197 1488.84,765.24 L1488.84,765.24 Z M1568.22,765.24 C1570.94023,765.206958 1573.1218,762.980829 1573.09984,760.260485 C1573.07788,757.540142 1570.86065,755.349524 1568.14024,755.360404 C1565.41983,755.371284 1563.2202,757.579568 1563.22,760.3 C1563.25286,763.037964 1565.48184,765.240197 1568.22,765.24 L1568.22,765.24 Z M1528.53,765.24 C1531.25023,765.206958 1533.4318,762.980829 1533.40984,760.260485 C1533.38788,757.540142 1531.17065,755.349524 1528.45024,755.360404 C1525.72983,755.371284 1523.5302,757.579568 1523.53,760.3 C1523.56286,763.037964 1525.79184,765.240197 1528.53,765.24 L1528.53,765.24 Z M1469,666.41 C1471.72023,666.376958 1473.9018,664.150829 1473.87984,661.430485 C1473.85788,658.710142 1471.64065,656.519524 1468.92024,656.530404 C1466.19983,656.541284 1464.0002,658.749568 1464,661.47 C1464.03286,664.207964 1466.26184,666.410197 1469,666.41 L1469,666.41 Z M1548.38,666.41 C1551.10023,666.376958 1553.2818,664.150829 1553.25984,661.430485 C1553.23788,658.710142 1551.02065,656.519524 1548.30024,656.530404 C1545.57983,656.541284 1543.3802,658.749568 1543.38,661.47 C1543.41286,664.207964 1545.64184,666.410197 1548.38,666.41 L1548.38,666.41 Z M1508.69,666.41 C1511.41023,666.376958 1513.5918,664.150829 1513.56984,661.430485 C1513.54788,658.710142 1511.33065,656.519524 1508.61024,656.530404 C1505.88983,656.541284 1503.6902,658.749568 1503.69,661.47 C1503.72286,664.207964 1505.95184,666.410197 1508.69,666.41 L1508.69,666.41 Z M1588.07,666.41 C1590.79023,666.376958 1592.9718,664.150829 1592.94984,661.430485 C1592.92788,658.710142 1590.71065,656.519524 1587.99024,656.530404 C1585.26983,656.541284 1583.0702,658.749568 1583.07,661.47 C1583.10286,664.207964 1585.33184,666.410197 1588.07,666.41 L1588.07,666.41 Z M1488.84,666.41 C1491.56023,666.376958 1493.7418,664.150829 1493.71984,661.430485 C1493.69788,658.710142 1491.48065,656.519524 1488.76024,656.530404 C1486.03983,656.541284 1483.8402,658.749568 1483.84,661.47 C1483.87286,664.207964 1486.10184,666.410197 1488.84,666.41 L1488.84,666.41 Z M1568.22,666.41 C1570.94023,666.376958 1573.1218,664.150829 1573.09984,661.430485 C1573.07788,658.710142 1570.86065,656.519524 1568.14024,656.530404 C1565.41983,656.541284 1563.2202,658.749568 1563.22,661.47 C1563.25286,664.207964 1565.48184,666.410197 1568.22,666.41 L1568.22,666.41 Z M1528.53,666.41 C1531.25023,666.376958 1533.4318,664.150829 1533.40984,661.430485 C1533.38788,658.710142 1531.17065,656.519524 1528.45024,656.530404 C1525.72983,656.541284 1523.5302,658.749568 1523.53,661.47 C1523.56286,664.207964 1525.79184,666.410197 1528.53,666.41 L1528.53,666.41 Z M1469,785 C1471.72023,784.966958 1473.9018,782.740829 1473.87984,780.020485 C1473.85788,777.300142 1471.64065,775.109524 1468.92024,775.120404 C1466.19983,775.131284 1464.0002,777.339568 1464,780.06 C1464.03286,782.797964 1466.26184,785.000197 1469,785 L1469,785 Z M1548.38,785 C1551.10023,784.966958 1553.2818,782.740829 1553.25984,780.020485 C1553.23788,777.300142 1551.02065,775.109524 1548.30024,775.120404 C1545.57983,775.131284 1543.3802,777.339568 1543.38,780.06 C1543.41286,782.797964 1545.64184,785.000197 1548.38,785 L1548.38,785 Z M1508.69,785 C1511.41023,784.966958 1513.5918,782.740829 1513.56984,780.020485 C1513.54788,777.300142 1511.33065,775.109524 1508.61024,775.120404 C1505.88983,775.131284 1503.6902,777.339568 1503.69,780.06 C1503.72286,782.797964 1505.95184,785.000197 1508.69,785 L1508.69,785 Z M1588.07,785 C1590.79023,784.966958 1592.9718,782.740829 1592.94984,780.020485 C1592.92788,777.300142 1590.71065,775.109524 1587.99024,775.120404 C1585.26983,775.131284 1583.0702,777.339568 1583.07,780.06 C1583.10286,782.797964 1585.33184,785.000197 1588.07,785 L1588.07,785 Z M1488.84,785 C1491.56023,784.966958 1493.7418,782.740829 1493.71984,780.020485 C1493.69788,777.300142 1491.48065,775.109524 1488.76024,775.120404 C1486.03983,775.131284 1483.8402,777.339568 1483.84,780.06 C1483.87286,782.797964 1486.10184,785.000197 1488.84,785 L1488.84,785 Z M1568.22,785 C1570.94023,784.966958 1573.1218,782.740829 1573.09984,780.020485 C1573.07788,777.300142 1570.86065,775.109524 1568.14024,775.120404 C1565.41983,775.131284 1563.2202,777.339568 1563.22,780.06 C1563.25286,782.797964 1565.48184,785.000197 1568.22,785 L1568.22,785 Z M1528.53,785 C1531.25023,784.966958 1533.4318,782.740829 1533.40984,780.020485 C1533.38788,777.300142 1531.17065,775.109524 1528.45024,775.120404 C1525.72983,775.131284 1523.5302,777.339568 1523.53,780.06 C1523.56286,782.797964 1525.79184,785.000197 1528.53,785 L1528.53,785 Z M1469,686.18 C1471.72023,686.146958 1473.9018,683.920829 1473.87984,681.200485 C1473.85788,678.480142 1471.64065,676.289524 1468.92024,676.300404 C1466.19983,676.311284 1464.0002,678.519568 1464,681.24 C1464.03286,683.977964 1466.26184,686.180197 1469,686.18 Z M1548.38,686.18 C1551.10023,686.146958 1553.2818,683.920829 1553.25984,681.200485 C1553.23788,678.480142 1551.02065,676.289524 1548.30024,676.300404 C1545.57983,676.311284 1543.3802,678.519568 1543.38,681.24 C1543.41286,683.977964 1545.64184,686.180197 1548.38,686.18 Z M1508.69,686.18 C1511.41023,686.146958 1513.5918,683.920829 1513.56984,681.200485 C1513.54788,678.480142 1511.33065,676.289524 1508.61024,676.300404 C1505.88983,676.311284 1503.6902,678.519568 1503.69,681.24 C1503.72286,683.977964 1505.95184,686.180197 1508.69,686.18 L1508.69,686.18 Z M1588.07,686.18 C1590.79023,686.146958 1592.9718,683.920829 1592.94984,681.200485 C1592.92788,678.480142 1590.71065,676.289524 1587.99024,676.300404 C1585.26983,676.311284 1583.0702,678.519568 1583.07,681.24 C1583.10286,683.977964 1585.33184,686.180197 1588.07,686.18 L1588.07,686.18 Z M1488.84,686.18 C1491.56023,686.146958 1493.7418,683.920829 1493.71984,681.200485 C1493.69788,678.480142 1491.48065,676.289524 1488.76024,676.300404 C1486.03983,676.311284 1483.8402,678.519568 1483.84,681.24 C1483.87286,683.977964 1486.10184,686.180197 1488.84,686.18 L1488.84,686.18 Z M1568.22,686.18 C1570.94023,686.146958 1573.1218,683.920829 1573.09984,681.200485 C1573.07788,678.480142 1570.86065,676.289524 1568.14024,676.300404 C1565.41983,676.311284 1563.2202,678.519568 1563.22,681.24 C1563.25286,683.977964 1565.48184,686.180197 1568.22,686.18 L1568.22,686.18 Z M1528.53,686.18 C1531.25023,686.146958 1533.4318,683.920829 1533.40984,681.200485 C1533.38788,678.480142 1531.17065,676.289524 1528.45024,676.300404 C1525.72983,676.311284 1523.5302,678.519568 1523.53,681.24 C1523.56286,683.977964 1525.79184,686.180197 1528.53,686.18 L1528.53,686.18 Z" id="Shape" fill="#F3E785"></path>
        </g>
    </g>
</svg>