<svg width="1920" height="1080" viewBox="0 0 1920 1080" xmlns="http://www.w3.org/2000/svg" xmlns:xlink="http://www.w3.org/1999/xlink"><title>C0A42332-07D1-40CB-91D5-A9812B5D87F1</title><defs><ellipse id="a" cx="337" cy="337" rx="337" ry="337"/></defs><g fill="none" fill-rule="evenodd"><path fill="#A3C9E0" d="M0 0h1920v1080H0z"/><g transform="translate(392.385 -29)"><mask id="b" fill="#fff"><use xlink:href="#a"/></mask><use fill="#A3C9E0" xlink:href="#a"/><path fill="#FDACAB" mask="url(#b)" transform="rotate(33 493.703 157.333)" d="M208.203 146.833h571v21h-571z"/><path fill="#FDACAB" mask="url(#b)" transform="rotate(33 462.158 178.771)" d="M163 168.271h598.316v21H163z"/><path fill="#FDACAB" mask="url(#b)" transform="rotate(33 321.575 296.833)" d="M-63.012 286.333h769.174v21H-63.012z"/><path fill="#FDACAB" mask="url(#b)" transform="rotate(33 272.294 428.467)" d="M-80.316 417.967h705.22v21h-705.22z"/><path fill="#FDACAB" mask="url(#b)" transform="rotate(33 209.724 597.432)" d="M-32.171 586.932H451.62v21H-32.171z"/><path fill="#FDACAB" mask="url(#b)" transform="rotate(33 328.853 342.548)" d="M-44.224 332.048H701.93v21H-44.224z"/><path fill="#FDACAB" mask="url(#b)" transform="rotate(33 414.772 230.994)" d="M77.772 220.494h674v21h-674z"/><path fill="#FDACAB" mask="url(#b)" transform="rotate(33 250.98 455.873)" d="M-96.184 445.373h694.327v21H-96.184z"/><path fill="#FDACAB" mask="url(#b)" transform="rotate(33 309.233 369.91)" d="M-51.853 359.41h722.172v21H-51.853z"/><path fill="#FDACAB" mask="url(#b)" transform="rotate(33 348.51 228.445)" d="M-55.711 217.945h808.442v21H-55.711z"/><path fill="#FDACAB" mask="url(#b)" transform="rotate(33 206.133 467.358)" d="M-130.867 456.858h674v21h-674z"/><path fill="#FDACAB" mask="url(#b)" transform="rotate(33 272.991 388.713)" d="M-94.291 378.213h734.564v21H-94.291z"/><path fill="#FDACAB" mask="url(#b)" transform="rotate(33 172.104 532.144)" d="M-108.566 521.644h561.34v21h-561.34z"/><path fill="#FDACAB" mask="url(#b)" transform="rotate(33 354.014 273.944)" d="M-22.736 263.444h753.499v21H-22.736z"/><path fill="#FDACAB" mask="url(#b)" transform="rotate(33 224.462 521.86)" d="M-51.156 511.359h551.237v21H-51.156z"/><path fill="#FDACAB" mask="url(#b)" transform="rotate(33 223.487 647.617)" d="M16.239 637.117h414.497v21H16.239z"/><path fill="#FDACAB" mask="url(#b)" transform="rotate(33 428.851 199.149)" d="M106.554 188.649h644.595v21H106.554z"/><path fill="#FDACAB" mask="url(#b)" transform="rotate(33 495.06 79.744)" d="M267.561 69.244h455v21h-455z"/><path fill="#FDACAB" mask="url(#b)" transform="rotate(33 502.656 122.664)" d="M242.252 112.164h520.807v21H242.252z"/></g><path d="M1280.846 184.412c4.121 0 7.462-3.319 7.462-7.412s-3.341-7.412-7.462-7.412c-4.12 0-7.461 3.319-7.461 7.412s3.34 7.412 7.461 7.412zm119.385 0c4.12 0 7.461-3.319 7.461-7.412s-3.34-7.412-7.461-7.412-7.462 3.319-7.462 7.412 3.34 7.412 7.462 7.412zm-59.693 0c4.121 0 7.462-3.319 7.462-7.412s-3.34-7.412-7.462-7.412c-4.12 0-7.461 3.319-7.461 7.412s3.34 7.412 7.461 7.412zm119.308.412c4.121 0 7.462-3.319 7.462-7.412 0-4.094-3.341-7.412-7.462-7.412-4.12 0-7.461 3.318-7.461 7.412 0 4.093 3.34 7.412 7.461 7.412zm61.692 0c4.121 0 7.462-3.319 7.462-7.412 0-4.094-3.34-7.412-7.462-7.412-4.12 0-7.461 3.318-7.461 7.412 0 4.093 3.34 7.412 7.461 7.412zm-210.846-.412c4.121 0 7.462-3.319 7.462-7.412s-3.34-7.412-7.462-7.412c-4.12 0-7.461 3.319-7.461 7.412s3.34 7.412 7.461 7.412zm119.154.412c4.121 0 7.462-3.319 7.462-7.412 0-4.094-3.341-7.412-7.462-7.412-4.12 0-7.461 3.318-7.461 7.412 0 4.093 3.34 7.412 7.461 7.412zm61.692 0c4.121 0 7.462-3.319 7.462-7.412 0-4.094-3.34-7.412-7.462-7.412-4.12 0-7.461 3.318-7.461 7.412 0 4.093 3.34 7.412 7.461 7.412zm-121.153-.412c4.12 0 7.461-3.319 7.461-7.412s-3.34-7.412-7.461-7.412-7.462 3.319-7.462 7.412 3.34 7.412 7.462 7.412zm-89.539 29.647c4.121 0 7.462-3.319 7.462-7.412s-3.341-7.412-7.462-7.412c-4.12 0-7.461 3.319-7.461 7.412s3.34 7.412 7.461 7.412zm119.385 0c4.12 0 7.461-3.319 7.461-7.412s-3.34-7.412-7.461-7.412-7.462 3.319-7.462 7.412 3.34 7.412 7.462 7.412zm-59.693 0c4.121 0 7.462-3.319 7.462-7.412s-3.34-7.412-7.462-7.412c-4.12 0-7.461 3.319-7.461 7.412s3.34 7.412 7.461 7.412zm119.308-.235c4.121 0 7.462-3.319 7.462-7.412 0-4.094-3.341-7.412-7.462-7.412-4.12 0-7.461 3.318-7.461 7.412 0 4.093 3.34 7.412 7.461 7.412zm61.692 0c4.121 0 7.462-3.319 7.462-7.412 0-4.094-3.34-7.412-7.462-7.412-4.12 0-7.461 3.318-7.461 7.412 0 4.093 3.34 7.412 7.461 7.412zm-210.846.235c4.121 0 7.462-3.319 7.462-7.412s-3.34-7.412-7.462-7.412c-4.12 0-7.461 3.319-7.461 7.412s3.34 7.412 7.461 7.412zm119.154-.235c4.121 0 7.462-3.319 7.462-7.412 0-4.094-3.341-7.412-7.462-7.412-4.12 0-7.461 3.318-7.461 7.412 0 4.093 3.34 7.412 7.461 7.412zm61.692 0c4.121 0 7.462-3.319 7.462-7.412 0-4.094-3.34-7.412-7.462-7.412-4.12 0-7.461 3.318-7.461 7.412 0 4.093 3.34 7.412 7.461 7.412zm-121.153.235c4.12 0 7.461-3.319 7.461-7.412s-3.34-7.412-7.461-7.412-7.462 3.319-7.462 7.412 3.34 7.412 7.462 7.412zm-89.539-148.235c4.121 0 7.462-3.319 7.462-7.412 0-4.094-3.341-7.412-7.462-7.412-4.12 0-7.461 3.318-7.461 7.412 0 4.093 3.34 7.412 7.461 7.412zm119.385 0c4.12 0 7.461-3.319 7.461-7.412 0-4.094-3.34-7.412-7.461-7.412s-7.462 3.318-7.462 7.412c0 4.093 3.34 7.412 7.462 7.412zm-59.693 0c4.121 0 7.462-3.319 7.462-7.412 0-4.094-3.34-7.412-7.462-7.412-4.12 0-7.461 3.318-7.461 7.412 0 4.093 3.34 7.412 7.461 7.412zm119.308 0c4.121 0 7.462-3.319 7.462-7.412 0-4.094-3.341-7.412-7.462-7.412-4.12 0-7.461 3.318-7.461 7.412 0 4.093 3.34 7.412 7.461 7.412zm61.692 0c4.121 0 7.462-3.319 7.462-7.412 0-4.094-3.34-7.412-7.462-7.412-4.12 0-7.461 3.318-7.461 7.412 0 4.093 3.34 7.412 7.461 7.412zm-210.846 0c4.121 0 7.462-3.319 7.462-7.412 0-4.094-3.34-7.412-7.462-7.412-4.12 0-7.461 3.318-7.461 7.412 0 4.093 3.34 7.412 7.461 7.412zm119.154 0c4.121 0 7.462-3.319 7.462-7.412 0-4.094-3.341-7.412-7.462-7.412-4.12 0-7.461 3.318-7.461 7.412 0 4.093 3.34 7.412 7.461 7.412zm61.692 0c4.121 0 7.462-3.319 7.462-7.412 0-4.094-3.34-7.412-7.462-7.412-4.12 0-7.461 3.318-7.461 7.412 0 4.093 3.34 7.412 7.461 7.412zm-121.153 0c4.12 0 7.461-3.319 7.461-7.412 0-4.094-3.34-7.412-7.461-7.412s-7.462 3.318-7.462 7.412c0 4.093 3.34 7.412 7.462 7.412zm-89.539 177.882c4.121 0 7.462-3.318 7.462-7.412 0-4.093-3.341-7.412-7.462-7.412-4.12 0-7.461 3.319-7.461 7.412 0 4.094 3.34 7.412 7.461 7.412zm119.385 0c4.12 0 7.461-3.318 7.461-7.412 0-4.093-3.34-7.412-7.461-7.412s-7.462 3.319-7.462 7.412c0 4.094 3.34 7.412 7.462 7.412zm-59.693 0c4.121 0 7.462-3.318 7.462-7.412 0-4.093-3.34-7.412-7.462-7.412-4.12 0-7.461 3.319-7.461 7.412 0 4.094 3.34 7.412 7.461 7.412zm119.308.118c4.121 0 7.462-3.319 7.462-7.412 0-4.094-3.341-7.412-7.462-7.412-4.12 0-7.461 3.318-7.461 7.412 0 4.093 3.34 7.412 7.461 7.412zm61.692 0c4.121 0 7.462-3.319 7.462-7.412 0-4.094-3.34-7.412-7.462-7.412-4.12 0-7.461 3.318-7.461 7.412 0 4.093 3.34 7.412 7.461 7.412zm-210.846-.118c4.121 0 7.462-3.318 7.462-7.412 0-4.093-3.34-7.412-7.462-7.412-4.12 0-7.461 3.319-7.461 7.412 0 4.094 3.34 7.412 7.461 7.412zm119.154.118c4.121 0 7.462-3.319 7.462-7.412 0-4.094-3.341-7.412-7.462-7.412-4.12 0-7.461 3.318-7.461 7.412 0 4.093 3.34 7.412 7.461 7.412zm61.692 0c4.121 0 7.462-3.319 7.462-7.412 0-4.094-3.34-7.412-7.462-7.412-4.12 0-7.461 3.318-7.461 7.412 0 4.093 3.34 7.412 7.461 7.412zm-121.153-.118c4.12 0 7.461-3.318 7.461-7.412 0-4.093-3.34-7.412-7.461-7.412s-7.462 3.319-7.462 7.412c0 4.094 3.34 7.412 7.462 7.412zM1280.846 95.47c4.121 0 7.462-3.319 7.462-7.412 0-4.094-3.341-7.412-7.462-7.412-4.12 0-7.461 3.318-7.461 7.412 0 4.093 3.34 7.412 7.461 7.412zm119.385 0c4.12 0 7.461-3.319 7.461-7.412 0-4.094-3.34-7.412-7.461-7.412s-7.462 3.318-7.462 7.412c0 4.093 3.34 7.412 7.462 7.412zm-59.693 0c4.121 0 7.462-3.319 7.462-7.412 0-4.094-3.34-7.412-7.462-7.412-4.12 0-7.461 3.318-7.461 7.412 0 4.093 3.34 7.412 7.461 7.412zm119.308.353c4.121 0 7.462-3.319 7.462-7.412 0-4.094-3.341-7.412-7.462-7.412-4.12 0-7.461 3.318-7.461 7.412 0 4.093 3.34 7.412 7.461 7.412zm61.692 0c4.121 0 7.462-3.319 7.462-7.412 0-4.094-3.34-7.412-7.462-7.412-4.12 0-7.461 3.318-7.461 7.412 0 4.093 3.34 7.412 7.461 7.412zm-210.846-.353c4.121 0 7.462-3.319 7.462-7.412 0-4.094-3.34-7.412-7.462-7.412-4.12 0-7.461 3.318-7.461 7.412 0 4.093 3.34 7.412 7.461 7.412zm119.154.353c4.121 0 7.462-3.319 7.462-7.412 0-4.094-3.341-7.412-7.462-7.412-4.12 0-7.461 3.318-7.461 7.412 0 4.093 3.34 7.412 7.461 7.412zm61.692 0c4.121 0 7.462-3.319 7.462-7.412 0-4.094-3.34-7.412-7.462-7.412-4.12 0-7.461 3.318-7.461 7.412 0 4.093 3.34 7.412 7.461 7.412zm-121.153-.353c4.12 0 7.461-3.319 7.461-7.412 0-4.094-3.34-7.412-7.461-7.412s-7.462 3.318-7.462 7.412c0 4.093 3.34 7.412 7.462 7.412zm-89.539 177.882c4.121 0 7.462-3.318 7.462-7.412 0-4.093-3.341-7.412-7.462-7.412-4.12 0-7.461 3.319-7.461 7.412 0 4.094 3.34 7.412 7.461 7.412zm119.385 0c4.12 0 7.461-3.318 7.461-7.412 0-4.093-3.34-7.412-7.461-7.412s-7.462 3.319-7.462 7.412c0 4.094 3.34 7.412 7.462 7.412zm-59.693 0c4.121 0 7.462-3.318 7.462-7.412 0-4.093-3.34-7.412-7.462-7.412-4.12 0-7.461 3.319-7.461 7.412 0 4.094 3.34 7.412 7.461 7.412zm119.308.47c4.121 0 7.462-3.318 7.462-7.411 0-4.094-3.341-7.412-7.462-7.412-4.12 0-7.461 3.318-7.461 7.412 0 4.093 3.34 7.412 7.461 7.412zm61.692 0c4.121 0 7.462-3.318 7.462-7.411 0-4.094-3.34-7.412-7.462-7.412-4.12 0-7.461 3.318-7.461 7.412 0 4.093 3.34 7.412 7.461 7.412zm-210.846-.47c4.121 0 7.462-3.318 7.462-7.412 0-4.093-3.34-7.412-7.462-7.412-4.12 0-7.461 3.319-7.461 7.412 0 4.094 3.34 7.412 7.461 7.412zm119.154.47c4.121 0 7.462-3.318 7.462-7.411 0-4.094-3.341-7.412-7.462-7.412-4.12 0-7.461 3.318-7.461 7.412 0 4.093 3.34 7.412 7.461 7.412zm61.692 0c4.121 0 7.462-3.318 7.462-7.411 0-4.094-3.34-7.412-7.462-7.412-4.12 0-7.461 3.318-7.461 7.412 0 4.093 3.34 7.412 7.461 7.412zm-121.153-.47c4.12 0 7.461-3.318 7.461-7.412 0-4.093-3.34-7.412-7.461-7.412s-7.462 3.319-7.462 7.412c0 4.094 3.34 7.412 7.462 7.412zm-89.539-148.235c4.121 0 7.462-3.319 7.462-7.412 0-4.094-3.341-7.412-7.462-7.412-4.12 0-7.461 3.318-7.461 7.412 0 4.093 3.34 7.412 7.461 7.412zm119.385 0c4.12 0 7.461-3.319 7.461-7.412 0-4.094-3.34-7.412-7.461-7.412s-7.462 3.318-7.462 7.412c0 4.093 3.34 7.412 7.462 7.412zm-59.693 0c4.121 0 7.462-3.319 7.462-7.412 0-4.094-3.34-7.412-7.462-7.412-4.12 0-7.461 3.318-7.461 7.412 0 4.093 3.34 7.412 7.461 7.412zm119.308-.294c4.121 0 7.462-3.319 7.462-7.412 0-4.094-3.341-7.412-7.462-7.412-4.12 0-7.461 3.318-7.461 7.412 0 4.093 3.34 7.412 7.461 7.412zm61.692 1c4.121 0 7.462-3.319 7.462-7.412 0-4.094-3.34-7.412-7.462-7.412-4.12 0-7.461 3.318-7.461 7.412 0 4.093 3.34 7.412 7.461 7.412zm-210.846-.706c4.121 0 7.462-3.319 7.462-7.412 0-4.094-3.34-7.412-7.462-7.412-4.12 0-7.461 3.318-7.461 7.412 0 4.093 3.34 7.412 7.461 7.412zm119.154-.294c4.121 0 7.462-3.319 7.462-7.412 0-4.094-3.341-7.412-7.462-7.412-4.12 0-7.461 3.318-7.461 7.412 0 4.093 3.34 7.412 7.461 7.412zm61.692 1c4.121 0 7.462-3.319 7.462-7.412 0-4.094-3.34-7.412-7.462-7.412-4.12 0-7.461 3.318-7.461 7.412 0 4.093 3.34 7.412 7.461 7.412zm-121.153-.706c4.12 0 7.461-3.319 7.461-7.412 0-4.094-3.34-7.412-7.461-7.412s-7.462 3.318-7.462 7.412c0 4.093 3.34 7.412 7.462 7.412zM1280.846 303c4.121 0 7.462-3.318 7.462-7.412 0-4.093-3.341-7.412-7.462-7.412-4.12 0-7.461 3.319-7.461 7.412 0 4.094 3.34 7.412 7.461 7.412zm119.385 0c4.12 0 7.461-3.318 7.461-7.412 0-4.093-3.34-7.412-7.461-7.412s-7.462 3.319-7.462 7.412c0 4.094 3.34 7.412 7.462 7.412zm-59.693 0c4.121 0 7.462-3.318 7.462-7.412 0-4.093-3.34-7.412-7.462-7.412-4.12 0-7.461 3.319-7.461 7.412 0 4.094 3.34 7.412 7.461 7.412zm119.308-.176c4.121 0 7.462-3.319 7.462-7.412 0-4.094-3.341-7.412-7.462-7.412-4.12 0-7.461 3.318-7.461 7.412 0 4.093 3.34 7.412 7.461 7.412zm61.692 0c4.121 0 7.462-3.319 7.462-7.412 0-4.094-3.34-7.412-7.462-7.412-4.12 0-7.461 3.318-7.461 7.412 0 4.093 3.34 7.412 7.461 7.412zm-210.846.176c4.121 0 7.462-3.318 7.462-7.412 0-4.093-3.34-7.412-7.462-7.412-4.12 0-7.461 3.319-7.461 7.412 0 4.094 3.34 7.412 7.461 7.412zm119.154-.176c4.121 0 7.462-3.319 7.462-7.412 0-4.094-3.341-7.412-7.462-7.412-4.12 0-7.461 3.318-7.461 7.412 0 4.093 3.34 7.412 7.461 7.412zm61.692 0c4.121 0 7.462-3.319 7.462-7.412 0-4.094-3.34-7.412-7.462-7.412-4.12 0-7.461 3.318-7.461 7.412 0 4.093 3.34 7.412 7.461 7.412zm-121.153.176c4.12 0 7.461-3.318 7.461-7.412 0-4.093-3.34-7.412-7.461-7.412s-7.462 3.319-7.462 7.412c0 4.094 3.34 7.412 7.462 7.412zm-89.539-148.235c4.121 0 7.462-3.319 7.462-7.412s-3.341-7.412-7.462-7.412c-4.12 0-7.461 3.319-7.461 7.412s3.34 7.412 7.461 7.412zm119.385 0c4.12 0 7.461-3.319 7.461-7.412s-3.34-7.412-7.461-7.412-7.462 3.319-7.462 7.412 3.34 7.412 7.462 7.412zm-59.693 0c4.121 0 7.462-3.319 7.462-7.412s-3.34-7.412-7.462-7.412c-4.12 0-7.461 3.319-7.461 7.412s3.34 7.412 7.461 7.412zm119.308.059c4.121 0 7.462-3.319 7.462-7.412 0-4.094-3.341-7.412-7.462-7.412-4.12 0-7.461 3.318-7.461 7.412 0 4.093 3.34 7.412 7.461 7.412zm61.692 0c4.121 0 7.462-3.319 7.462-7.412 0-4.094-3.34-7.412-7.462-7.412-4.12 0-7.461 3.318-7.461 7.412 0 4.093 3.34 7.412 7.461 7.412zm-210.846-.06c4.121 0 7.462-3.318 7.462-7.411s-3.34-7.412-7.462-7.412c-4.12 0-7.461 3.319-7.461 7.412s3.34 7.412 7.461 7.412zm119.154.06c4.121 0 7.462-3.319 7.462-7.412 0-4.094-3.341-7.412-7.462-7.412-4.12 0-7.461 3.318-7.461 7.412 0 4.093 3.34 7.412 7.461 7.412zm61.692 0c4.121 0 7.462-3.319 7.462-7.412 0-4.094-3.34-7.412-7.462-7.412-4.12 0-7.461 3.318-7.461 7.412 0 4.093 3.34 7.412 7.461 7.412zm-121.153-.06c4.12 0 7.461-3.318 7.461-7.411s-3.34-7.412-7.461-7.412-7.462 3.319-7.462 7.412 3.34 7.412 7.462 7.412zM1253.385 576h210v532h-210z" fill="#FFF"/><path d="M1364.346 699.47a2.966 2.966 0 0 0 2.962-2.97c0-1.64-1.326-2.97-2.962-2.97a2.966 2.966 0 0 0-2.961 2.97c0 1.64 1.326 2.97 2.961 2.97zm47.385 0a2.966 2.966 0 0 0 2.961-2.97c0-1.64-1.326-2.97-2.961-2.97a2.966 2.966 0 0 0-2.962 2.97c0 1.64 1.326 2.97 2.962 2.97zm-23.693 0a2.966 2.966 0 0 0 2.962-2.97c0-1.64-1.326-2.97-2.962-2.97a2.966 2.966 0 0 0-2.961 2.97c0 1.64 1.326 2.97 2.961 2.97zm47.385 0a2.966 2.966 0 0 0 2.962-2.97c0-1.64-1.326-2.97-2.962-2.97a2.966 2.966 0 0 0-2.961 2.97c0 1.64 1.325 2.97 2.961 2.97zm-59.23 0a2.966 2.966 0 0 0 2.96-2.97c0-1.64-1.325-2.97-2.96-2.97a2.966 2.966 0 0 0-2.962 2.97c0 1.64 1.326 2.97 2.961 2.97zm47.384 0a2.966 2.966 0 0 0 2.961-2.97c0-1.64-1.325-2.97-2.961-2.97a2.966 2.966 0 0 0-2.962 2.97c0 1.64 1.326 2.97 2.962 2.97zm-23.692 0a2.966 2.966 0 0 0 2.961-2.97c0-1.64-1.326-2.97-2.961-2.97a2.966 2.966 0 0 0-2.962 2.97c0 1.64 1.326 2.97 2.962 2.97zm-35.539 11.883a2.966 2.966 0 0 0 2.962-2.97c0-1.641-1.326-2.971-2.962-2.971a2.966 2.966 0 0 0-2.961 2.97c0 1.641 1.326 2.97 2.961 2.97zm47.385 0a2.966 2.966 0 0 0 2.961-2.97c0-1.641-1.326-2.971-2.961-2.971a2.966 2.966 0 0 0-2.962 2.97c0 1.641 1.326 2.97 2.962 2.97zm-23.693 0a2.966 2.966 0 0 0 2.962-2.97c0-1.641-1.326-2.971-2.962-2.971a2.966 2.966 0 0 0-2.961 2.97c0 1.641 1.326 2.97 2.961 2.97zm47.385 0a2.966 2.966 0 0 0 2.962-2.97c0-1.641-1.326-2.971-2.962-2.971a2.966 2.966 0 0 0-2.961 2.97c0 1.641 1.325 2.97 2.961 2.97zm-59.23 0a2.966 2.966 0 0 0 2.96-2.97c0-1.641-1.325-2.971-2.96-2.971a2.966 2.966 0 0 0-2.962 2.97c0 1.641 1.326 2.97 2.961 2.97zm47.384 0a2.966 2.966 0 0 0 2.961-2.97c0-1.641-1.325-2.971-2.961-2.971a2.966 2.966 0 0 0-2.962 2.97c0 1.641 1.326 2.97 2.962 2.97zm-23.692 0a2.966 2.966 0 0 0 2.961-2.97c0-1.641-1.326-2.971-2.961-2.971a2.966 2.966 0 0 0-2.962 2.97c0 1.641 1.326 2.97 2.962 2.97zm-35.539-59.412a2.966 2.966 0 0 0 2.962-2.97c0-1.641-1.326-2.971-2.962-2.971a2.966 2.966 0 0 0-2.961 2.97c0 1.641 1.326 2.971 2.961 2.971zm47.385 0a2.966 2.966 0 0 0 2.961-2.97c0-1.641-1.326-2.971-2.961-2.971a2.966 2.966 0 0 0-2.962 2.97c0 1.641 1.326 2.971 2.962 2.971zm-23.693 0a2.966 2.966 0 0 0 2.962-2.97c0-1.641-1.326-2.971-2.962-2.971a2.966 2.966 0 0 0-2.961 2.97c0 1.641 1.326 2.971 2.961 2.971zm47.385 0a2.966 2.966 0 0 0 2.962-2.97c0-1.641-1.326-2.971-2.962-2.971a2.966 2.966 0 0 0-2.961 2.97c0 1.641 1.325 2.971 2.961 2.971zm-59.23 0a2.966 2.966 0 0 0 2.96-2.97c0-1.641-1.325-2.971-2.96-2.971a2.966 2.966 0 0 0-2.962 2.97c0 1.641 1.326 2.971 2.961 2.971zm47.384 0a2.966 2.966 0 0 0 2.961-2.97c0-1.641-1.325-2.971-2.961-2.971a2.966 2.966 0 0 0-2.962 2.97c0 1.641 1.326 2.971 2.962 2.971zm-23.692 0a2.966 2.966 0 0 0 2.961-2.97c0-1.641-1.326-2.971-2.961-2.971a2.966 2.966 0 0 0-2.962 2.97c0 1.641 1.326 2.971 2.962 2.971zm-35.539 71.294a2.966 2.966 0 0 0 2.962-2.97c0-1.64-1.326-2.97-2.962-2.97a2.966 2.966 0 0 0-2.961 2.97c0 1.64 1.326 2.97 2.961 2.97zm47.385 0a2.966 2.966 0 0 0 2.961-2.97c0-1.64-1.326-2.97-2.961-2.97a2.966 2.966 0 0 0-2.962 2.97c0 1.64 1.326 2.97 2.962 2.97zm-23.693 0a2.966 2.966 0 0 0 2.962-2.97c0-1.64-1.326-2.97-2.962-2.97a2.966 2.966 0 0 0-2.961 2.97c0 1.64 1.326 2.97 2.961 2.97zm47.385 0a2.966 2.966 0 0 0 2.962-2.97c0-1.64-1.326-2.97-2.962-2.97a2.966 2.966 0 0 0-2.961 2.97c0 1.64 1.325 2.97 2.961 2.97zm-59.23 0a2.966 2.966 0 0 0 2.96-2.97c0-1.64-1.325-2.97-2.96-2.97a2.966 2.966 0 0 0-2.962 2.97c0 1.64 1.326 2.97 2.961 2.97zm47.384 0a2.966 2.966 0 0 0 2.961-2.97c0-1.64-1.325-2.97-2.961-2.97a2.966 2.966 0 0 0-2.962 2.97c0 1.64 1.326 2.97 2.962 2.97zm-23.692 0a2.966 2.966 0 0 0 2.961-2.97c0-1.64-1.326-2.97-2.961-2.97a2.966 2.966 0 0 0-2.962 2.97c0 1.64 1.326 2.97 2.962 2.97zm-35.539-59.411a2.966 2.966 0 0 0 2.962-2.971c0-1.64-1.326-2.97-2.962-2.97a2.966 2.966 0 0 0-2.961 2.97c0 1.64 1.326 2.97 2.961 2.97zm47.385 0a2.966 2.966 0 0 0 2.961-2.971c0-1.64-1.326-2.97-2.961-2.97a2.966 2.966 0 0 0-2.962 2.97c0 1.64 1.326 2.97 2.962 2.97zm-23.693 0a2.966 2.966 0 0 0 2.962-2.971c0-1.64-1.326-2.97-2.962-2.97a2.966 2.966 0 0 0-2.961 2.97c0 1.64 1.326 2.97 2.961 2.97zm47.385 0a2.966 2.966 0 0 0 2.962-2.971c0-1.64-1.326-2.97-2.962-2.97a2.966 2.966 0 0 0-2.961 2.97c0 1.64 1.325 2.97 2.961 2.97zm-59.23 0a2.966 2.966 0 0 0 2.96-2.971c0-1.64-1.325-2.97-2.96-2.97a2.966 2.966 0 0 0-2.962 2.97c0 1.64 1.326 2.97 2.961 2.97zm47.384 0a2.966 2.966 0 0 0 2.961-2.971c0-1.64-1.325-2.97-2.961-2.97a2.966 2.966 0 0 0-2.962 2.97c0 1.64 1.326 2.97 2.962 2.97zm-23.692 0a2.966 2.966 0 0 0 2.961-2.971c0-1.64-1.326-2.97-2.961-2.97a2.966 2.966 0 0 0-2.962 2.97c0 1.64 1.326 2.97 2.962 2.97zm-35.539 71.294a2.966 2.966 0 0 0 2.962-2.97c0-1.642-1.326-2.972-2.962-2.972a2.966 2.966 0 0 0-2.961 2.971c0 1.64 1.326 2.97 2.961 2.97zm47.385 0a2.966 2.966 0 0 0 2.961-2.97c0-1.642-1.326-2.972-2.961-2.972a2.966 2.966 0 0 0-2.962 2.971c0 1.64 1.326 2.97 2.962 2.97zm-23.693 0a2.966 2.966 0 0 0 2.962-2.97c0-1.642-1.326-2.972-2.962-2.972a2.966 2.966 0 0 0-2.961 2.971c0 1.64 1.326 2.97 2.961 2.97zm47.385 0a2.966 2.966 0 0 0 2.962-2.97c0-1.642-1.326-2.972-2.962-2.972a2.966 2.966 0 0 0-2.961 2.971c0 1.64 1.325 2.97 2.961 2.97zm-59.23 0a2.966 2.966 0 0 0 2.96-2.97c0-1.642-1.325-2.972-2.96-2.972a2.966 2.966 0 0 0-2.962 2.971c0 1.64 1.326 2.97 2.961 2.97zm47.384 0a2.966 2.966 0 0 0 2.961-2.97c0-1.642-1.325-2.972-2.961-2.972a2.966 2.966 0 0 0-2.962 2.971c0 1.64 1.326 2.97 2.962 2.97zm-23.692 0a2.966 2.966 0 0 0 2.961-2.97c0-1.642-1.326-2.972-2.961-2.972a2.966 2.966 0 0 0-2.962 2.971c0 1.64 1.326 2.97 2.962 2.97zm-35.539-59.412a2.966 2.966 0 0 0 2.962-2.97c0-1.641-1.326-2.971-2.962-2.971a2.966 2.966 0 0 0-2.961 2.97c0 1.64 1.326 2.97 2.961 2.97zm47.385 0a2.966 2.966 0 0 0 2.961-2.97c0-1.641-1.326-2.971-2.961-2.971a2.966 2.966 0 0 0-2.962 2.97c0 1.64 1.326 2.97 2.962 2.97zm-23.693 0a2.966 2.966 0 0 0 2.962-2.97c0-1.641-1.326-2.971-2.962-2.971a2.966 2.966 0 0 0-2.961 2.97c0 1.64 1.326 2.97 2.961 2.97zm47.385 0a2.966 2.966 0 0 0 2.962-2.97c0-1.641-1.326-2.971-2.962-2.971a2.966 2.966 0 0 0-2.961 2.97c0 1.64 1.325 2.97 2.961 2.97zm-59.23 0a2.966 2.966 0 0 0 2.96-2.97c0-1.641-1.325-2.971-2.96-2.971a2.966 2.966 0 0 0-2.962 2.97c0 1.64 1.326 2.97 2.961 2.97zm47.384 0a2.966 2.966 0 0 0 2.961-2.97c0-1.641-1.325-2.971-2.961-2.971a2.966 2.966 0 0 0-2.962 2.97c0 1.64 1.326 2.97 2.962 2.97zm-23.692 0a2.966 2.966 0 0 0 2.961-2.97c0-1.641-1.326-2.971-2.961-2.971a2.966 2.966 0 0 0-2.962 2.97c0 1.64 1.326 2.97 2.962 2.97zM1364.346 747a2.966 2.966 0 0 0 2.962-2.97c0-1.641-1.326-2.971-2.962-2.971a2.966 2.966 0 0 0-2.961 2.97c0 1.641 1.326 2.971 2.961 2.971zm47.385 0a2.966 2.966 0 0 0 2.961-2.97c0-1.641-1.326-2.971-2.961-2.971a2.966 2.966 0 0 0-2.962 2.97c0 1.641 1.326 2.971 2.962 2.971zm-23.693 0a2.966 2.966 0 0 0 2.962-2.97c0-1.641-1.326-2.971-2.962-2.971a2.966 2.966 0 0 0-2.961 2.97c0 1.641 1.326 2.971 2.961 2.971zm47.385 0a2.966 2.966 0 0 0 2.962-2.97c0-1.641-1.326-2.971-2.962-2.971a2.966 2.966 0 0 0-2.961 2.97c0 1.641 1.325 2.971 2.961 2.971zm-59.23 0a2.966 2.966 0 0 0 2.96-2.97c0-1.641-1.325-2.971-2.96-2.971a2.966 2.966 0 0 0-2.962 2.97c0 1.641 1.326 2.971 2.961 2.971zm47.384 0a2.966 2.966 0 0 0 2.961-2.97c0-1.641-1.325-2.971-2.961-2.971a2.966 2.966 0 0 0-2.962 2.97c0 1.641 1.326 2.971 2.962 2.971zm-23.692 0a2.966 2.966 0 0 0 2.961-2.97c0-1.641-1.326-2.971-2.961-2.971a2.966 2.966 0 0 0-2.962 2.97c0 1.641 1.326 2.971 2.962 2.971zm-35.539-59.412a2.966 2.966 0 0 0 2.962-2.97c0-1.641-1.326-2.97-2.962-2.97a2.966 2.966 0 0 0-2.961 2.97c0 1.64 1.326 2.97 2.961 2.97zm47.385 0a2.966 2.966 0 0 0 2.961-2.97c0-1.641-1.326-2.97-2.961-2.97a2.966 2.966 0 0 0-2.962 2.97c0 1.64 1.326 2.97 2.962 2.97zm-23.693 0a2.966 2.966 0 0 0 2.962-2.97c0-1.641-1.326-2.97-2.962-2.97a2.966 2.966 0 0 0-2.961 2.97c0 1.64 1.326 2.97 2.961 2.97zm47.385 0a2.966 2.966 0 0 0 2.962-2.97c0-1.641-1.326-2.97-2.962-2.97a2.966 2.966 0 0 0-2.961 2.97c0 1.64 1.325 2.97 2.961 2.97zm-59.23 0a2.966 2.966 0 0 0 2.96-2.97c0-1.641-1.325-2.97-2.96-2.97a2.966 2.966 0 0 0-2.962 2.97c0 1.64 1.326 2.97 2.961 2.97zm47.384 0a2.966 2.966 0 0 0 2.961-2.97c0-1.641-1.325-2.97-2.961-2.97a2.966 2.966 0 0 0-2.962 2.97c0 1.64 1.326 2.97 2.962 2.97zm-23.692 0a2.966 2.966 0 0 0 2.961-2.97c0-1.641-1.326-2.97-2.961-2.97a2.966 2.966 0 0 0-2.962 2.97c0 1.64 1.326 2.97 2.962 2.97zm-118.539 11.883a2.966 2.966 0 0 0 2.962-2.971c0-1.64-1.326-2.97-2.962-2.97a2.966 2.966 0 0 0-2.961 2.97c0 1.64 1.326 2.97 2.961 2.97zm47.385 0a2.966 2.966 0 0 0 2.961-2.971c0-1.64-1.326-2.97-2.961-2.97a2.966 2.966 0 0 0-2.962 2.97c0 1.64 1.326 2.97 2.962 2.97zm-23.693 0A2.966 2.966 0 0 0 1308 696.5c0-1.64-1.326-2.97-2.962-2.97a2.966 2.966 0 0 0-2.961 2.97c0 1.64 1.326 2.97 2.961 2.97zm47.385 0a2.966 2.966 0 0 0 2.962-2.971c0-1.64-1.326-2.97-2.962-2.97a2.966 2.966 0 0 0-2.961 2.97c0 1.64 1.325 2.97 2.961 2.97zm-59.23 0a2.966 2.966 0 0 0 2.96-2.971c0-1.64-1.325-2.97-2.96-2.97a2.966 2.966 0 0 0-2.962 2.97c0 1.64 1.326 2.97 2.961 2.97zm47.384 0a2.966 2.966 0 0 0 2.961-2.971c0-1.64-1.325-2.97-2.961-2.97a2.966 2.966 0 0 0-2.962 2.97c0 1.64 1.326 2.97 2.962 2.97zm-23.692 0a2.966 2.966 0 0 0 2.961-2.971c0-1.64-1.326-2.97-2.961-2.97a2.966 2.966 0 0 0-2.962 2.97c0 1.64 1.326 2.97 2.962 2.97zm-35.539 11.882a2.966 2.966 0 0 0 2.962-2.97c0-1.641-1.326-2.971-2.962-2.971a2.966 2.966 0 0 0-2.961 2.97c0 1.641 1.326 2.97 2.961 2.97zm47.385 0a2.966 2.966 0 0 0 2.961-2.97c0-1.641-1.326-2.971-2.961-2.971a2.966 2.966 0 0 0-2.962 2.97c0 1.641 1.326 2.97 2.962 2.97zm-23.693 0a2.966 2.966 0 0 0 2.962-2.97c0-1.641-1.326-2.971-2.962-2.971a2.966 2.966 0 0 0-2.961 2.97c0 1.641 1.326 2.97 2.961 2.97zm47.385 0a2.966 2.966 0 0 0 2.962-2.97c0-1.641-1.326-2.971-2.962-2.971a2.966 2.966 0 0 0-2.961 2.97c0 1.641 1.325 2.97 2.961 2.97zm-59.23 0a2.966 2.966 0 0 0 2.96-2.97c0-1.641-1.325-2.971-2.96-2.971a2.966 2.966 0 0 0-2.962 2.97c0 1.641 1.326 2.97 2.961 2.97zm47.384 0a2.966 2.966 0 0 0 2.961-2.97c0-1.641-1.325-2.971-2.961-2.971a2.966 2.966 0 0 0-2.962 2.97c0 1.641 1.326 2.97 2.962 2.97zm-23.692 0a2.966 2.966 0 0 0 2.961-2.97c0-1.641-1.326-2.971-2.961-2.971a2.966 2.966 0 0 0-2.962 2.97c0 1.641 1.326 2.97 2.962 2.97zm-35.539-59.412a2.966 2.966 0 0 0 2.962-2.97c0-1.641-1.326-2.971-2.962-2.971a2.966 2.966 0 0 0-2.961 2.97c0 1.641 1.326 2.971 2.961 2.971zm47.385 0a2.966 2.966 0 0 0 2.961-2.97c0-1.641-1.326-2.971-2.961-2.971a2.966 2.966 0 0 0-2.962 2.97c0 1.641 1.326 2.971 2.962 2.971zm-23.693 0a2.966 2.966 0 0 0 2.962-2.97c0-1.641-1.326-2.971-2.962-2.971a2.966 2.966 0 0 0-2.961 2.97c0 1.641 1.326 2.971 2.961 2.971zm47.385 0a2.966 2.966 0 0 0 2.962-2.97c0-1.641-1.326-2.971-2.962-2.971a2.966 2.966 0 0 0-2.961 2.97c0 1.641 1.325 2.971 2.961 2.971zm-59.23 0a2.966 2.966 0 0 0 2.96-2.97c0-1.641-1.325-2.971-2.96-2.971a2.966 2.966 0 0 0-2.962 2.97c0 1.641 1.326 2.971 2.961 2.971zm47.384 0a2.966 2.966 0 0 0 2.961-2.97c0-1.641-1.325-2.971-2.961-2.971a2.966 2.966 0 0 0-2.962 2.97c0 1.641 1.326 2.971 2.962 2.971zm-23.692 0a2.966 2.966 0 0 0 2.961-2.97c0-1.641-1.326-2.971-2.961-2.971a2.966 2.966 0 0 0-2.962 2.97c0 1.641 1.326 2.971 2.962 2.971zm-35.539 71.294a2.966 2.966 0 0 0 2.962-2.97c0-1.64-1.326-2.97-2.962-2.97a2.966 2.966 0 0 0-2.961 2.97c0 1.64 1.326 2.97 2.961 2.97zm47.385 0a2.966 2.966 0 0 0 2.961-2.97c0-1.64-1.326-2.97-2.961-2.97a2.966 2.966 0 0 0-2.962 2.97c0 1.64 1.326 2.97 2.962 2.97zm-23.693 0a2.966 2.966 0 0 0 2.962-2.97c0-1.64-1.326-2.97-2.962-2.97a2.966 2.966 0 0 0-2.961 2.97c0 1.64 1.326 2.97 2.961 2.97zm47.385 0a2.966 2.966 0 0 0 2.962-2.97c0-1.64-1.326-2.97-2.962-2.97a2.966 2.966 0 0 0-2.961 2.97c0 1.64 1.325 2.97 2.961 2.97zm-59.23 0a2.966 2.966 0 0 0 2.96-2.97c0-1.64-1.325-2.97-2.96-2.97a2.966 2.966 0 0 0-2.962 2.97c0 1.64 1.326 2.97 2.961 2.97zm47.384 0a2.966 2.966 0 0 0 2.961-2.97c0-1.64-1.325-2.97-2.961-2.97a2.966 2.966 0 0 0-2.962 2.97c0 1.64 1.326 2.97 2.962 2.97zm-23.692 0a2.966 2.966 0 0 0 2.961-2.97c0-1.64-1.326-2.97-2.961-2.97a2.966 2.966 0 0 0-2.962 2.97c0 1.64 1.326 2.97 2.962 2.97zm-35.539-59.411a2.966 2.966 0 0 0 2.962-2.971c0-1.64-1.326-2.97-2.962-2.97a2.966 2.966 0 0 0-2.961 2.97c0 1.64 1.326 2.97 2.961 2.97zm47.385 0a2.966 2.966 0 0 0 2.961-2.971c0-1.64-1.326-2.97-2.961-2.97a2.966 2.966 0 0 0-2.962 2.97c0 1.64 1.326 2.97 2.962 2.97zm-23.693 0a2.966 2.966 0 0 0 2.962-2.971c0-1.64-1.326-2.97-2.962-2.97a2.966 2.966 0 0 0-2.961 2.97c0 1.64 1.326 2.97 2.961 2.97zm47.385 0a2.966 2.966 0 0 0 2.962-2.971c0-1.64-1.326-2.97-2.962-2.97a2.966 2.966 0 0 0-2.961 2.97c0 1.64 1.325 2.97 2.961 2.97zm-59.23 0a2.966 2.966 0 0 0 2.96-2.971c0-1.64-1.325-2.97-2.96-2.97a2.966 2.966 0 0 0-2.962 2.97c0 1.64 1.326 2.97 2.961 2.97zm47.384 0a2.966 2.966 0 0 0 2.961-2.971c0-1.64-1.325-2.97-2.961-2.97a2.966 2.966 0 0 0-2.962 2.97c0 1.64 1.326 2.97 2.962 2.97zm-23.692 0a2.966 2.966 0 0 0 2.961-2.971c0-1.64-1.326-2.97-2.961-2.97a2.966 2.966 0 0 0-2.962 2.97c0 1.64 1.326 2.97 2.962 2.97zm-35.539 71.294a2.966 2.966 0 0 0 2.962-2.97c0-1.642-1.326-2.972-2.962-2.972a2.966 2.966 0 0 0-2.961 2.971c0 1.64 1.326 2.97 2.961 2.97zm47.385 0a2.966 2.966 0 0 0 2.961-2.97c0-1.642-1.326-2.972-2.961-2.972a2.966 2.966 0 0 0-2.962 2.971c0 1.64 1.326 2.97 2.962 2.97zm-23.693 0a2.966 2.966 0 0 0 2.962-2.97c0-1.642-1.326-2.972-2.962-2.972a2.966 2.966 0 0 0-2.961 2.971c0 1.64 1.326 2.97 2.961 2.97zm47.385 0a2.966 2.966 0 0 0 2.962-2.97c0-1.642-1.326-2.972-2.962-2.972a2.966 2.966 0 0 0-2.961 2.971c0 1.64 1.325 2.97 2.961 2.97zm-59.23 0a2.966 2.966 0 0 0 2.96-2.97c0-1.642-1.325-2.972-2.96-2.972a2.966 2.966 0 0 0-2.962 2.971c0 1.64 1.326 2.97 2.961 2.97zm47.384 0a2.966 2.966 0 0 0 2.961-2.97c0-1.642-1.325-2.972-2.961-2.972a2.966 2.966 0 0 0-2.962 2.971c0 1.64 1.326 2.97 2.962 2.97zm-23.692 0a2.966 2.966 0 0 0 2.961-2.97c0-1.642-1.326-2.972-2.961-2.972a2.966 2.966 0 0 0-2.962 2.971c0 1.64 1.326 2.97 2.962 2.97zm-35.539-59.412a2.966 2.966 0 0 0 2.962-2.97c0-1.641-1.326-2.971-2.962-2.971a2.966 2.966 0 0 0-2.961 2.97c0 1.64 1.326 2.97 2.961 2.97zm47.385 0a2.966 2.966 0 0 0 2.961-2.97c0-1.641-1.326-2.971-2.961-2.971a2.966 2.966 0 0 0-2.962 2.97c0 1.64 1.326 2.97 2.962 2.97zm-23.693 0a2.966 2.966 0 0 0 2.962-2.97c0-1.641-1.326-2.971-2.962-2.971a2.966 2.966 0 0 0-2.961 2.97c0 1.64 1.326 2.97 2.961 2.97zm47.385 0a2.966 2.966 0 0 0 2.962-2.97c0-1.641-1.326-2.971-2.962-2.971a2.966 2.966 0 0 0-2.961 2.97c0 1.64 1.325 2.97 2.961 2.97zm-59.23 0a2.966 2.966 0 0 0 2.96-2.97c0-1.641-1.325-2.971-2.96-2.971a2.966 2.966 0 0 0-2.962 2.97c0 1.64 1.326 2.97 2.961 2.97zm47.384 0a2.966 2.966 0 0 0 2.961-2.97c0-1.641-1.325-2.971-2.961-2.971a2.966 2.966 0 0 0-2.962 2.97c0 1.64 1.326 2.97 2.962 2.97zm-23.692 0a2.966 2.966 0 0 0 2.961-2.97c0-1.641-1.326-2.971-2.961-2.971a2.966 2.966 0 0 0-2.962 2.97c0 1.64 1.326 2.97 2.962 2.97zM1281.346 747a2.966 2.966 0 0 0 2.962-2.97c0-1.641-1.326-2.971-2.962-2.971a2.966 2.966 0 0 0-2.961 2.97c0 1.641 1.326 2.971 2.961 2.971zm47.385 0a2.966 2.966 0 0 0 2.961-2.97c0-1.641-1.326-2.971-2.961-2.971a2.966 2.966 0 0 0-2.962 2.97c0 1.641 1.326 2.971 2.962 2.971zm-23.693 0a2.966 2.966 0 0 0 2.962-2.97c0-1.641-1.326-2.971-2.962-2.971a2.966 2.966 0 0 0-2.961 2.97c0 1.641 1.326 2.971 2.961 2.971zm47.385 0a2.966 2.966 0 0 0 2.962-2.97c0-1.641-1.326-2.971-2.962-2.971a2.966 2.966 0 0 0-2.961 2.97c0 1.641 1.325 2.971 2.961 2.971zm-59.23 0a2.966 2.966 0 0 0 2.96-2.97c0-1.641-1.325-2.971-2.96-2.971a2.966 2.966 0 0 0-2.962 2.97c0 1.641 1.326 2.971 2.961 2.971zm47.384 0a2.966 2.966 0 0 0 2.961-2.97c0-1.641-1.325-2.971-2.961-2.971a2.966 2.966 0 0 0-2.962 2.97c0 1.641 1.326 2.971 2.962 2.971zm-23.692 0a2.966 2.966 0 0 0 2.961-2.97c0-1.641-1.326-2.971-2.961-2.971a2.966 2.966 0 0 0-2.962 2.97c0 1.641 1.326 2.971 2.962 2.971zm-35.539-59.412a2.966 2.966 0 0 0 2.962-2.97c0-1.641-1.326-2.97-2.962-2.97a2.966 2.966 0 0 0-2.961 2.97c0 1.64 1.326 2.97 2.961 2.97zm47.385 0a2.966 2.966 0 0 0 2.961-2.97c0-1.641-1.326-2.97-2.961-2.97a2.966 2.966 0 0 0-2.962 2.97c0 1.64 1.326 2.97 2.962 2.97zm-23.693 0a2.966 2.966 0 0 0 2.962-2.97c0-1.641-1.326-2.97-2.962-2.97a2.966 2.966 0 0 0-2.961 2.97c0 1.64 1.326 2.97 2.961 2.97zm47.385 0a2.966 2.966 0 0 0 2.962-2.97c0-1.641-1.326-2.97-2.962-2.97a2.966 2.966 0 0 0-2.961 2.97c0 1.64 1.325 2.97 2.961 2.97zm-59.23 0a2.966 2.966 0 0 0 2.96-2.97c0-1.641-1.325-2.97-2.96-2.97a2.966 2.966 0 0 0-2.962 2.97c0 1.64 1.326 2.97 2.961 2.97zm47.384 0a2.966 2.966 0 0 0 2.961-2.97c0-1.641-1.325-2.97-2.961-2.97a2.966 2.966 0 0 0-2.962 2.97c0 1.64 1.326 2.97 2.962 2.97zm-23.692 0a2.966 2.966 0 0 0 2.961-2.97c0-1.641-1.326-2.97-2.961-2.97a2.966 2.966 0 0 0-2.962 2.97c0 1.64 1.326 2.97 2.962 2.97zm47.461 225.883a2.966 2.966 0 0 0 2.962-2.971c0-1.64-1.326-2.97-2.962-2.97a2.966 2.966 0 0 0-2.961 2.97c0 1.64 1.326 2.97 2.961 2.97zm47.385 0a2.966 2.966 0 0 0 2.961-2.971c0-1.64-1.326-2.97-2.961-2.97a2.966 2.966 0 0 0-2.962 2.97c0 1.64 1.326 2.97 2.962 2.97zm-23.693 0A2.966 2.966 0 0 0 1391 910.5c0-1.64-1.326-2.97-2.962-2.97a2.966 2.966 0 0 0-2.961 2.97c0 1.64 1.326 2.97 2.961 2.97zm47.385 0a2.966 2.966 0 0 0 2.962-2.971c0-1.64-1.326-2.97-2.962-2.97a2.966 2.966 0 0 0-2.961 2.97c0 1.64 1.325 2.97 2.961 2.97zm-59.23 0a2.966 2.966 0 0 0 2.96-2.971c0-1.64-1.325-2.97-2.96-2.97a2.966 2.966 0 0 0-2.962 2.97c0 1.64 1.326 2.97 2.961 2.97zm47.384 0a2.966 2.966 0 0 0 2.961-2.971c0-1.64-1.325-2.97-2.961-2.97a2.966 2.966 0 0 0-2.962 2.97c0 1.64 1.326 2.97 2.962 2.97zm-23.692 0a2.966 2.966 0 0 0 2.961-2.971c0-1.64-1.326-2.97-2.961-2.97a2.966 2.966 0 0 0-2.962 2.97c0 1.64 1.326 2.97 2.962 2.97zm-35.539 11.882a2.966 2.966 0 0 0 2.962-2.97c0-1.641-1.326-2.971-2.962-2.971a2.966 2.966 0 0 0-2.961 2.97c0 1.641 1.326 2.97 2.961 2.97zm47.385 0a2.966 2.966 0 0 0 2.961-2.97c0-1.641-1.326-2.971-2.961-2.971a2.966 2.966 0 0 0-2.962 2.97c0 1.641 1.326 2.97 2.962 2.97zm-23.693 0a2.966 2.966 0 0 0 2.962-2.97c0-1.641-1.326-2.971-2.962-2.971a2.966 2.966 0 0 0-2.961 2.97c0 1.641 1.326 2.97 2.961 2.97zm47.385 0a2.966 2.966 0 0 0 2.962-2.97c0-1.641-1.326-2.971-2.962-2.971a2.966 2.966 0 0 0-2.961 2.97c0 1.641 1.325 2.97 2.961 2.97zm-59.23 0a2.966 2.966 0 0 0 2.96-2.97c0-1.641-1.325-2.971-2.96-2.971a2.966 2.966 0 0 0-2.962 2.97c0 1.641 1.326 2.97 2.961 2.97zm47.384 0a2.966 2.966 0 0 0 2.961-2.97c0-1.641-1.325-2.971-2.961-2.971a2.966 2.966 0 0 0-2.962 2.97c0 1.641 1.326 2.97 2.962 2.97zm-23.692 0a2.966 2.966 0 0 0 2.961-2.97c0-1.641-1.326-2.971-2.961-2.971a2.966 2.966 0 0 0-2.962 2.97c0 1.641 1.326 2.97 2.962 2.97zm-35.539-59.412a2.966 2.966 0 0 0 2.962-2.97c0-1.641-1.326-2.971-2.962-2.971a2.966 2.966 0 0 0-2.961 2.97c0 1.641 1.326 2.971 2.961 2.971zm47.385 0a2.966 2.966 0 0 0 2.961-2.97c0-1.641-1.326-2.971-2.961-2.971a2.966 2.966 0 0 0-2.962 2.97c0 1.641 1.326 2.971 2.962 2.971zm-23.693 0a2.966 2.966 0 0 0 2.962-2.97c0-1.641-1.326-2.971-2.962-2.971a2.966 2.966 0 0 0-2.961 2.97c0 1.641 1.326 2.971 2.961 2.971zm47.385 0a2.966 2.966 0 0 0 2.962-2.97c0-1.641-1.326-2.971-2.962-2.971a2.966 2.966 0 0 0-2.961 2.97c0 1.641 1.325 2.971 2.961 2.971zm-59.23 0a2.966 2.966 0 0 0 2.96-2.97c0-1.641-1.325-2.971-2.96-2.971a2.966 2.966 0 0 0-2.962 2.97c0 1.641 1.326 2.971 2.961 2.971zm47.384 0a2.966 2.966 0 0 0 2.961-2.97c0-1.641-1.325-2.971-2.961-2.971a2.966 2.966 0 0 0-2.962 2.97c0 1.641 1.326 2.971 2.962 2.971zm-23.692 0a2.966 2.966 0 0 0 2.961-2.97c0-1.641-1.326-2.971-2.961-2.971a2.966 2.966 0 0 0-2.962 2.97c0 1.641 1.326 2.971 2.962 2.971zm-35.539 71.294a2.966 2.966 0 0 0 2.962-2.97c0-1.64-1.326-2.97-2.962-2.97a2.966 2.966 0 0 0-2.961 2.97c0 1.64 1.326 2.97 2.961 2.97zm47.385 0a2.966 2.966 0 0 0 2.961-2.97c0-1.64-1.326-2.97-2.961-2.97a2.966 2.966 0 0 0-2.962 2.97c0 1.64 1.326 2.97 2.962 2.97zm-23.693 0a2.966 2.966 0 0 0 2.962-2.97c0-1.64-1.326-2.97-2.962-2.97a2.966 2.966 0 0 0-2.961 2.97c0 1.64 1.326 2.97 2.961 2.97zm47.385 0a2.966 2.966 0 0 0 2.962-2.97c0-1.64-1.326-2.97-2.962-2.97a2.966 2.966 0 0 0-2.961 2.97c0 1.64 1.325 2.97 2.961 2.97zm-59.23 0a2.966 2.966 0 0 0 2.96-2.97c0-1.64-1.325-2.97-2.96-2.97a2.966 2.966 0 0 0-2.962 2.97c0 1.64 1.326 2.97 2.961 2.97zm47.384 0a2.966 2.966 0 0 0 2.961-2.97c0-1.64-1.325-2.97-2.961-2.97a2.966 2.966 0 0 0-2.962 2.97c0 1.64 1.326 2.97 2.962 2.97zm-23.692 0a2.966 2.966 0 0 0 2.961-2.97c0-1.64-1.326-2.97-2.961-2.97a2.966 2.966 0 0 0-2.962 2.97c0 1.64 1.326 2.97 2.962 2.97zm-35.539-59.411a2.966 2.966 0 0 0 2.962-2.971c0-1.64-1.326-2.97-2.962-2.97a2.966 2.966 0 0 0-2.961 2.97c0 1.64 1.326 2.97 2.961 2.97zm47.385 0a2.966 2.966 0 0 0 2.961-2.971c0-1.64-1.326-2.97-2.961-2.97a2.966 2.966 0 0 0-2.962 2.97c0 1.64 1.326 2.97 2.962 2.97zm-23.693 0a2.966 2.966 0 0 0 2.962-2.971c0-1.64-1.326-2.97-2.962-2.97a2.966 2.966 0 0 0-2.961 2.97c0 1.64 1.326 2.97 2.961 2.97zm47.385 0a2.966 2.966 0 0 0 2.962-2.971c0-1.64-1.326-2.97-2.962-2.97a2.966 2.966 0 0 0-2.961 2.97c0 1.64 1.325 2.97 2.961 2.97zm-59.23 0a2.966 2.966 0 0 0 2.96-2.971c0-1.64-1.325-2.97-2.96-2.97a2.966 2.966 0 0 0-2.962 2.97c0 1.64 1.326 2.97 2.961 2.97zm47.384 0a2.966 2.966 0 0 0 2.961-2.971c0-1.64-1.325-2.97-2.961-2.97a2.966 2.966 0 0 0-2.962 2.97c0 1.64 1.326 2.97 2.962 2.97zm-23.692 0a2.966 2.966 0 0 0 2.961-2.971c0-1.64-1.326-2.97-2.961-2.97a2.966 2.966 0 0 0-2.962 2.97c0 1.64 1.326 2.97 2.962 2.97zm-35.539 71.294a2.966 2.966 0 0 0 2.962-2.97c0-1.642-1.326-2.972-2.962-2.972a2.966 2.966 0 0 0-2.961 2.971c0 1.64 1.326 2.97 2.961 2.97zm47.385 0a2.966 2.966 0 0 0 2.961-2.97c0-1.642-1.326-2.972-2.961-2.972a2.966 2.966 0 0 0-2.962 2.971c0 1.64 1.326 2.97 2.962 2.97zm-23.693 0a2.966 2.966 0 0 0 2.962-2.97c0-1.642-1.326-2.972-2.962-2.972a2.966 2.966 0 0 0-2.961 2.971c0 1.64 1.326 2.97 2.961 2.97zm47.385 0a2.966 2.966 0 0 0 2.962-2.97c0-1.642-1.326-2.972-2.962-2.972a2.966 2.966 0 0 0-2.961 2.971c0 1.64 1.325 2.97 2.961 2.97zm-59.23 0a2.966 2.966 0 0 0 2.96-2.97c0-1.642-1.325-2.972-2.96-2.972a2.966 2.966 0 0 0-2.962 2.971c0 1.64 1.326 2.97 2.961 2.97zm47.384 0a2.966 2.966 0 0 0 2.961-2.97c0-1.642-1.325-2.972-2.961-2.972a2.966 2.966 0 0 0-2.962 2.971c0 1.64 1.326 2.97 2.962 2.97zm-23.692 0a2.966 2.966 0 0 0 2.961-2.97c0-1.642-1.326-2.972-2.961-2.972a2.966 2.966 0 0 0-2.962 2.971c0 1.64 1.326 2.97 2.962 2.97zm-35.539-59.412a2.966 2.966 0 0 0 2.962-2.97c0-1.641-1.326-2.971-2.962-2.971a2.966 2.966 0 0 0-2.961 2.97c0 1.64 1.326 2.97 2.961 2.97zm47.385 0a2.966 2.966 0 0 0 2.961-2.97c0-1.641-1.326-2.971-2.961-2.971a2.966 2.966 0 0 0-2.962 2.97c0 1.64 1.326 2.97 2.962 2.97zm-23.693 0a2.966 2.966 0 0 0 2.962-2.97c0-1.641-1.326-2.971-2.962-2.971a2.966 2.966 0 0 0-2.961 2.97c0 1.64 1.326 2.97 2.961 2.97zm47.385 0a2.966 2.966 0 0 0 2.962-2.97c0-1.641-1.326-2.971-2.962-2.971a2.966 2.966 0 0 0-2.961 2.97c0 1.64 1.325 2.97 2.961 2.97zm-59.23 0a2.966 2.966 0 0 0 2.96-2.97c0-1.641-1.325-2.971-2.96-2.971a2.966 2.966 0 0 0-2.962 2.97c0 1.64 1.326 2.97 2.961 2.97zm47.384 0a2.966 2.966 0 0 0 2.961-2.97c0-1.641-1.325-2.971-2.961-2.971a2.966 2.966 0 0 0-2.962 2.97c0 1.64 1.326 2.97 2.962 2.97zm-23.692 0a2.966 2.966 0 0 0 2.961-2.97c0-1.641-1.326-2.971-2.961-2.971a2.966 2.966 0 0 0-2.962 2.97c0 1.64 1.326 2.97 2.962 2.97zM1364.346 961a2.966 2.966 0 0 0 2.962-2.97c0-1.641-1.326-2.971-2.962-2.971a2.966 2.966 0 0 0-2.961 2.97c0 1.641 1.326 2.971 2.961 2.971zm47.385 0a2.966 2.966 0 0 0 2.961-2.97c0-1.641-1.326-2.971-2.961-2.971a2.966 2.966 0 0 0-2.962 2.97c0 1.641 1.326 2.971 2.962 2.971zm-23.693 0a2.966 2.966 0 0 0 2.962-2.97c0-1.641-1.326-2.971-2.962-2.971a2.966 2.966 0 0 0-2.961 2.97c0 1.641 1.326 2.971 2.961 2.971zm47.385 0a2.966 2.966 0 0 0 2.962-2.97c0-1.641-1.326-2.971-2.962-2.971a2.966 2.966 0 0 0-2.961 2.97c0 1.641 1.325 2.971 2.961 2.971zm-59.23 0a2.966 2.966 0 0 0 2.96-2.97c0-1.641-1.325-2.971-2.96-2.971a2.966 2.966 0 0 0-2.962 2.97c0 1.641 1.326 2.971 2.961 2.971zm47.384 0a2.966 2.966 0 0 0 2.961-2.97c0-1.641-1.325-2.971-2.961-2.971a2.966 2.966 0 0 0-2.962 2.97c0 1.641 1.326 2.971 2.962 2.971zm-23.692 0a2.966 2.966 0 0 0 2.961-2.97c0-1.641-1.326-2.971-2.961-2.971a2.966 2.966 0 0 0-2.962 2.97c0 1.641 1.326 2.971 2.962 2.971zm-35.539-59.412a2.966 2.966 0 0 0 2.962-2.97c0-1.641-1.326-2.97-2.962-2.97a2.966 2.966 0 0 0-2.961 2.97c0 1.64 1.326 2.97 2.961 2.97zm47.385 0a2.966 2.966 0 0 0 2.961-2.97c0-1.641-1.326-2.97-2.961-2.97a2.966 2.966 0 0 0-2.962 2.97c0 1.64 1.326 2.97 2.962 2.97zm-23.693 0a2.966 2.966 0 0 0 2.962-2.97c0-1.641-1.326-2.97-2.962-2.97a2.966 2.966 0 0 0-2.961 2.97c0 1.64 1.326 2.97 2.961 2.97zm47.385 0a2.966 2.966 0 0 0 2.962-2.97c0-1.641-1.326-2.97-2.962-2.97a2.966 2.966 0 0 0-2.961 2.97c0 1.64 1.325 2.97 2.961 2.97zm-59.23 0a2.966 2.966 0 0 0 2.96-2.97c0-1.641-1.325-2.97-2.96-2.97a2.966 2.966 0 0 0-2.962 2.97c0 1.64 1.326 2.97 2.961 2.97zm47.384 0a2.966 2.966 0 0 0 2.961-2.97c0-1.641-1.325-2.97-2.961-2.97a2.966 2.966 0 0 0-2.962 2.97c0 1.64 1.326 2.97 2.962 2.97zm-23.692 0a2.966 2.966 0 0 0 2.961-2.97c0-1.641-1.326-2.97-2.961-2.97a2.966 2.966 0 0 0-2.962 2.97c0 1.64 1.326 2.97 2.962 2.97zm-118.539 11.883a2.966 2.966 0 0 0 2.962-2.971c0-1.64-1.326-2.97-2.962-2.97a2.966 2.966 0 0 0-2.961 2.97c0 1.64 1.326 2.97 2.961 2.97zm47.385 0a2.966 2.966 0 0 0 2.961-2.971c0-1.64-1.326-2.97-2.961-2.97a2.966 2.966 0 0 0-2.962 2.97c0 1.64 1.326 2.97 2.962 2.97zm-23.693 0A2.966 2.966 0 0 0 1308 910.5c0-1.64-1.326-2.97-2.962-2.97a2.966 2.966 0 0 0-2.961 2.97c0 1.64 1.326 2.97 2.961 2.97zm47.385 0a2.966 2.966 0 0 0 2.962-2.971c0-1.64-1.326-2.97-2.962-2.97a2.966 2.966 0 0 0-2.961 2.97c0 1.64 1.325 2.97 2.961 2.97zm-59.23 0a2.966 2.966 0 0 0 2.96-2.971c0-1.64-1.325-2.97-2.96-2.97a2.966 2.966 0 0 0-2.962 2.97c0 1.64 1.326 2.97 2.961 2.97zm47.384 0a2.966 2.966 0 0 0 2.961-2.971c0-1.64-1.325-2.97-2.961-2.97a2.966 2.966 0 0 0-2.962 2.97c0 1.64 1.326 2.97 2.962 2.97zm-23.692 0a2.966 2.966 0 0 0 2.961-2.971c0-1.64-1.326-2.97-2.961-2.97a2.966 2.966 0 0 0-2.962 2.97c0 1.64 1.326 2.97 2.962 2.97zm-35.539 11.882a2.966 2.966 0 0 0 2.962-2.97c0-1.641-1.326-2.971-2.962-2.971a2.966 2.966 0 0 0-2.961 2.97c0 1.641 1.326 2.97 2.961 2.97zm47.385 0a2.966 2.966 0 0 0 2.961-2.97c0-1.641-1.326-2.971-2.961-2.971a2.966 2.966 0 0 0-2.962 2.97c0 1.641 1.326 2.97 2.962 2.97zm-23.693 0a2.966 2.966 0 0 0 2.962-2.97c0-1.641-1.326-2.971-2.962-2.971a2.966 2.966 0 0 0-2.961 2.97c0 1.641 1.326 2.97 2.961 2.97zm47.385 0a2.966 2.966 0 0 0 2.962-2.97c0-1.641-1.326-2.971-2.962-2.971a2.966 2.966 0 0 0-2.961 2.97c0 1.641 1.325 2.97 2.961 2.97zm-59.23 0a2.966 2.966 0 0 0 2.96-2.97c0-1.641-1.325-2.971-2.96-2.971a2.966 2.966 0 0 0-2.962 2.97c0 1.641 1.326 2.97 2.961 2.97zm47.384 0a2.966 2.966 0 0 0 2.961-2.97c0-1.641-1.325-2.971-2.961-2.971a2.966 2.966 0 0 0-2.962 2.97c0 1.641 1.326 2.97 2.962 2.97zm-23.692 0a2.966 2.966 0 0 0 2.961-2.97c0-1.641-1.326-2.971-2.961-2.971a2.966 2.966 0 0 0-2.962 2.97c0 1.641 1.326 2.97 2.962 2.97zm-35.539-59.412a2.966 2.966 0 0 0 2.962-2.97c0-1.641-1.326-2.971-2.962-2.971a2.966 2.966 0 0 0-2.961 2.97c0 1.641 1.326 2.971 2.961 2.971zm47.385 0a2.966 2.966 0 0 0 2.961-2.97c0-1.641-1.326-2.971-2.961-2.971a2.966 2.966 0 0 0-2.962 2.97c0 1.641 1.326 2.971 2.962 2.971zm-23.693 0a2.966 2.966 0 0 0 2.962-2.97c0-1.641-1.326-2.971-2.962-2.971a2.966 2.966 0 0 0-2.961 2.97c0 1.641 1.326 2.971 2.961 2.971zm47.385 0a2.966 2.966 0 0 0 2.962-2.97c0-1.641-1.326-2.971-2.962-2.971a2.966 2.966 0 0 0-2.961 2.97c0 1.641 1.325 2.971 2.961 2.971zm-59.23 0a2.966 2.966 0 0 0 2.96-2.97c0-1.641-1.325-2.971-2.96-2.971a2.966 2.966 0 0 0-2.962 2.97c0 1.641 1.326 2.971 2.961 2.971zm47.384 0a2.966 2.966 0 0 0 2.961-2.97c0-1.641-1.325-2.971-2.961-2.971a2.966 2.966 0 0 0-2.962 2.97c0 1.641 1.326 2.971 2.962 2.971zm-23.692 0a2.966 2.966 0 0 0 2.961-2.97c0-1.641-1.326-2.971-2.961-2.971a2.966 2.966 0 0 0-2.962 2.97c0 1.641 1.326 2.971 2.962 2.971zm-35.539 71.294a2.966 2.966 0 0 0 2.962-2.97c0-1.64-1.326-2.97-2.962-2.97a2.966 2.966 0 0 0-2.961 2.97c0 1.64 1.326 2.97 2.961 2.97zm47.385 0a2.966 2.966 0 0 0 2.961-2.97c0-1.64-1.326-2.97-2.961-2.97a2.966 2.966 0 0 0-2.962 2.97c0 1.64 1.326 2.97 2.962 2.97zm-23.693 0a2.966 2.966 0 0 0 2.962-2.97c0-1.64-1.326-2.97-2.962-2.97a2.966 2.966 0 0 0-2.961 2.97c0 1.64 1.326 2.97 2.961 2.97zm47.385 0a2.966 2.966 0 0 0 2.962-2.97c0-1.64-1.326-2.97-2.962-2.97a2.966 2.966 0 0 0-2.961 2.97c0 1.64 1.325 2.97 2.961 2.97zm-59.23 0a2.966 2.966 0 0 0 2.96-2.97c0-1.64-1.325-2.97-2.96-2.97a2.966 2.966 0 0 0-2.962 2.97c0 1.64 1.326 2.97 2.961 2.97zm47.384 0a2.966 2.966 0 0 0 2.961-2.97c0-1.64-1.325-2.97-2.961-2.97a2.966 2.966 0 0 0-2.962 2.97c0 1.64 1.326 2.97 2.962 2.97zm-23.692 0a2.966 2.966 0 0 0 2.961-2.97c0-1.64-1.326-2.97-2.961-2.97a2.966 2.966 0 0 0-2.962 2.97c0 1.64 1.326 2.97 2.962 2.97zm-35.539-59.411a2.966 2.966 0 0 0 2.962-2.971c0-1.64-1.326-2.97-2.962-2.97a2.966 2.966 0 0 0-2.961 2.97c0 1.64 1.326 2.97 2.961 2.97zm47.385 0a2.966 2.966 0 0 0 2.961-2.971c0-1.64-1.326-2.97-2.961-2.97a2.966 2.966 0 0 0-2.962 2.97c0 1.64 1.326 2.97 2.962 2.97zm-23.693 0a2.966 2.966 0 0 0 2.962-2.971c0-1.64-1.326-2.97-2.962-2.97a2.966 2.966 0 0 0-2.961 2.97c0 1.64 1.326 2.97 2.961 2.97zm47.385 0a2.966 2.966 0 0 0 2.962-2.971c0-1.64-1.326-2.97-2.962-2.97a2.966 2.966 0 0 0-2.961 2.97c0 1.64 1.325 2.97 2.961 2.97zm-59.23 0a2.966 2.966 0 0 0 2.96-2.971c0-1.64-1.325-2.97-2.96-2.97a2.966 2.966 0 0 0-2.962 2.97c0 1.64 1.326 2.97 2.961 2.97zm47.384 0a2.966 2.966 0 0 0 2.961-2.971c0-1.64-1.325-2.97-2.961-2.97a2.966 2.966 0 0 0-2.962 2.97c0 1.64 1.326 2.97 2.962 2.97zm-23.692 0a2.966 2.966 0 0 0 2.961-2.971c0-1.64-1.326-2.97-2.961-2.97a2.966 2.966 0 0 0-2.962 2.97c0 1.64 1.326 2.97 2.962 2.97zm-35.539 71.294a2.966 2.966 0 0 0 2.962-2.97c0-1.642-1.326-2.972-2.962-2.972a2.966 2.966 0 0 0-2.961 2.971c0 1.64 1.326 2.97 2.961 2.97zm47.385 0a2.966 2.966 0 0 0 2.961-2.97c0-1.642-1.326-2.972-2.961-2.972a2.966 2.966 0 0 0-2.962 2.971c0 1.64 1.326 2.97 2.962 2.97zm-23.693 0a2.966 2.966 0 0 0 2.962-2.97c0-1.642-1.326-2.972-2.962-2.972a2.966 2.966 0 0 0-2.961 2.971c0 1.64 1.326 2.97 2.961 2.97zm47.385 0a2.966 2.966 0 0 0 2.962-2.97c0-1.642-1.326-2.972-2.962-2.972a2.966 2.966 0 0 0-2.961 2.971c0 1.64 1.325 2.97 2.961 2.97zm-59.23 0a2.966 2.966 0 0 0 2.96-2.97c0-1.642-1.325-2.972-2.96-2.972a2.966 2.966 0 0 0-2.962 2.971c0 1.64 1.326 2.97 2.961 2.97zm47.384 0a2.966 2.966 0 0 0 2.961-2.97c0-1.642-1.325-2.972-2.961-2.972a2.966 2.966 0 0 0-2.962 2.971c0 1.64 1.326 2.97 2.962 2.97zm-23.692 0a2.966 2.966 0 0 0 2.961-2.97c0-1.642-1.326-2.972-2.961-2.972a2.966 2.966 0 0 0-2.962 2.971c0 1.64 1.326 2.97 2.962 2.97zm-35.539-59.412a2.966 2.966 0 0 0 2.962-2.97c0-1.641-1.326-2.971-2.962-2.971a2.966 2.966 0 0 0-2.961 2.97c0 1.64 1.326 2.97 2.961 2.97zm47.385 0a2.966 2.966 0 0 0 2.961-2.97c0-1.641-1.326-2.971-2.961-2.971a2.966 2.966 0 0 0-2.962 2.97c0 1.64 1.326 2.97 2.962 2.97zm-23.693 0a2.966 2.966 0 0 0 2.962-2.97c0-1.641-1.326-2.971-2.962-2.971a2.966 2.966 0 0 0-2.961 2.97c0 1.64 1.326 2.97 2.961 2.97zm47.385 0a2.966 2.966 0 0 0 2.962-2.97c0-1.641-1.326-2.971-2.962-2.971a2.966 2.966 0 0 0-2.961 2.97c0 1.64 1.325 2.97 2.961 2.97zm-59.23 0a2.966 2.966 0 0 0 2.96-2.97c0-1.641-1.325-2.971-2.96-2.971a2.966 2.966 0 0 0-2.962 2.97c0 1.64 1.326 2.97 2.961 2.97zm47.384 0a2.966 2.966 0 0 0 2.961-2.97c0-1.641-1.325-2.971-2.961-2.971a2.966 2.966 0 0 0-2.962 2.97c0 1.64 1.326 2.97 2.962 2.97zm-23.692 0a2.966 2.966 0 0 0 2.961-2.97c0-1.641-1.326-2.971-2.961-2.971a2.966 2.966 0 0 0-2.962 2.97c0 1.64 1.326 2.97 2.962 2.97zM1281.346 961a2.966 2.966 0 0 0 2.962-2.97c0-1.641-1.326-2.971-2.962-2.971a2.966 2.966 0 0 0-2.961 2.97c0 1.641 1.326 2.971 2.961 2.971zm47.385 0a2.966 2.966 0 0 0 2.961-2.97c0-1.641-1.326-2.971-2.961-2.971a2.966 2.966 0 0 0-2.962 2.97c0 1.641 1.326 2.971 2.962 2.971zm-23.693 0a2.966 2.966 0 0 0 2.962-2.97c0-1.641-1.326-2.971-2.962-2.971a2.966 2.966 0 0 0-2.961 2.97c0 1.641 1.326 2.971 2.961 2.971zm47.385 0a2.966 2.966 0 0 0 2.962-2.97c0-1.641-1.326-2.971-2.962-2.971a2.966 2.966 0 0 0-2.961 2.97c0 1.641 1.325 2.971 2.961 2.971zm-59.23 0a2.966 2.966 0 0 0 2.96-2.97c0-1.641-1.325-2.971-2.96-2.971a2.966 2.966 0 0 0-2.962 2.97c0 1.641 1.326 2.971 2.961 2.971zm47.384 0a2.966 2.966 0 0 0 2.961-2.97c0-1.641-1.325-2.971-2.961-2.971a2.966 2.966 0 0 0-2.962 2.97c0 1.641 1.326 2.971 2.962 2.971zm-23.692 0a2.966 2.966 0 0 0 2.961-2.97c0-1.641-1.326-2.971-2.961-2.971a2.966 2.966 0 0 0-2.962 2.97c0 1.641 1.326 2.971 2.962 2.971zm-35.539-59.412a2.966 2.966 0 0 0 2.962-2.97c0-1.641-1.326-2.97-2.962-2.97a2.966 2.966 0 0 0-2.961 2.97c0 1.64 1.326 2.97 2.961 2.97zm47.385 0a2.966 2.966 0 0 0 2.961-2.97c0-1.641-1.326-2.97-2.961-2.97a2.966 2.966 0 0 0-2.962 2.97c0 1.64 1.326 2.97 2.962 2.97zm-23.693 0a2.966 2.966 0 0 0 2.962-2.97c0-1.641-1.326-2.97-2.962-2.97a2.966 2.966 0 0 0-2.961 2.97c0 1.64 1.326 2.97 2.961 2.97zm47.385 0a2.966 2.966 0 0 0 2.962-2.97c0-1.641-1.326-2.97-2.962-2.97a2.966 2.966 0 0 0-2.961 2.97c0 1.64 1.325 2.97 2.961 2.97zm-59.23 0a2.966 2.966 0 0 0 2.96-2.97c0-1.641-1.325-2.97-2.96-2.97a2.966 2.966 0 0 0-2.962 2.97c0 1.64 1.326 2.97 2.961 2.97zm47.384 0a2.966 2.966 0 0 0 2.961-2.97c0-1.641-1.325-2.97-2.961-2.97a2.966 2.966 0 0 0-2.962 2.97c0 1.64 1.326 2.97 2.962 2.97zm-23.692 0a2.966 2.966 0 0 0 2.961-2.97c0-1.641-1.326-2.97-2.961-2.97a2.966 2.966 0 0 0-2.962 2.97c0 1.64 1.326 2.97 2.962 2.97zm47.461-95.117a2.966 2.966 0 0 0 2.962-2.971c0-1.64-1.326-2.97-2.962-2.97a2.966 2.966 0 0 0-2.961 2.97c0 1.64 1.326 2.97 2.961 2.97zm47.385 0a2.966 2.966 0 0 0 2.961-2.971c0-1.64-1.326-2.97-2.961-2.97a2.966 2.966 0 0 0-2.962 2.97c0 1.64 1.326 2.97 2.962 2.97zm-23.693 0A2.966 2.966 0 0 0 1391 803.5c0-1.64-1.326-2.97-2.962-2.97a2.966 2.966 0 0 0-2.961 2.97c0 1.64 1.326 2.97 2.961 2.97zm47.385 0a2.966 2.966 0 0 0 2.962-2.971c0-1.64-1.326-2.97-2.962-2.97a2.966 2.966 0 0 0-2.961 2.97c0 1.64 1.325 2.97 2.961 2.97zm-59.23 0a2.966 2.966 0 0 0 2.96-2.971c0-1.64-1.325-2.97-2.96-2.97a2.966 2.966 0 0 0-2.962 2.97c0 1.64 1.326 2.97 2.961 2.97zm47.384 0a2.966 2.966 0 0 0 2.961-2.971c0-1.64-1.325-2.97-2.961-2.97a2.966 2.966 0 0 0-2.962 2.97c0 1.64 1.326 2.97 2.962 2.97zm-23.692 0a2.966 2.966 0 0 0 2.961-2.971c0-1.64-1.326-2.97-2.961-2.97a2.966 2.966 0 0 0-2.962 2.97c0 1.64 1.326 2.97 2.962 2.97zm-35.539 11.882a2.966 2.966 0 0 0 2.962-2.97c0-1.641-1.326-2.971-2.962-2.971a2.966 2.966 0 0 0-2.961 2.97c0 1.641 1.326 2.97 2.961 2.97zm47.385 0a2.966 2.966 0 0 0 2.961-2.97c0-1.641-1.326-2.971-2.961-2.971a2.966 2.966 0 0 0-2.962 2.97c0 1.641 1.326 2.97 2.962 2.97zm-23.693 0a2.966 2.966 0 0 0 2.962-2.97c0-1.641-1.326-2.971-2.962-2.971a2.966 2.966 0 0 0-2.961 2.97c0 1.641 1.326 2.97 2.961 2.97zm47.385 0a2.966 2.966 0 0 0 2.962-2.97c0-1.641-1.326-2.971-2.962-2.971a2.966 2.966 0 0 0-2.961 2.97c0 1.641 1.325 2.97 2.961 2.97zm-59.23 0a2.966 2.966 0 0 0 2.96-2.97c0-1.641-1.325-2.971-2.96-2.971a2.966 2.966 0 0 0-2.962 2.97c0 1.641 1.326 2.97 2.961 2.97zm47.384 0a2.966 2.966 0 0 0 2.961-2.97c0-1.641-1.325-2.971-2.961-2.971a2.966 2.966 0 0 0-2.962 2.97c0 1.641 1.326 2.97 2.962 2.97zm-23.692 0a2.966 2.966 0 0 0 2.961-2.97c0-1.641-1.326-2.971-2.961-2.971a2.966 2.966 0 0 0-2.962 2.97c0 1.641 1.326 2.97 2.962 2.97zm-35.539-59.412a2.966 2.966 0 0 0 2.962-2.97c0-1.641-1.326-2.971-2.962-2.971a2.966 2.966 0 0 0-2.961 2.97c0 1.641 1.326 2.971 2.961 2.971zm47.385 0a2.966 2.966 0 0 0 2.961-2.97c0-1.641-1.326-2.971-2.961-2.971a2.966 2.966 0 0 0-2.962 2.97c0 1.641 1.326 2.971 2.962 2.971zm-23.693 0a2.966 2.966 0 0 0 2.962-2.97c0-1.641-1.326-2.971-2.962-2.971a2.966 2.966 0 0 0-2.961 2.97c0 1.641 1.326 2.971 2.961 2.971zm47.385 0a2.966 2.966 0 0 0 2.962-2.97c0-1.641-1.326-2.971-2.962-2.971a2.966 2.966 0 0 0-2.961 2.97c0 1.641 1.325 2.971 2.961 2.971zm-59.23 0a2.966 2.966 0 0 0 2.96-2.97c0-1.641-1.325-2.971-2.96-2.971a2.966 2.966 0 0 0-2.962 2.97c0 1.641 1.326 2.971 2.961 2.971zm47.384 0a2.966 2.966 0 0 0 2.961-2.97c0-1.641-1.325-2.971-2.961-2.971a2.966 2.966 0 0 0-2.962 2.97c0 1.641 1.326 2.971 2.962 2.971zm-23.692 0a2.966 2.966 0 0 0 2.961-2.97c0-1.641-1.326-2.971-2.961-2.971a2.966 2.966 0 0 0-2.962 2.97c0 1.641 1.326 2.971 2.962 2.971zm-35.539 71.294a2.966 2.966 0 0 0 2.962-2.97c0-1.64-1.326-2.97-2.962-2.97a2.966 2.966 0 0 0-2.961 2.97c0 1.64 1.326 2.97 2.961 2.97zm47.385 0a2.966 2.966 0 0 0 2.961-2.97c0-1.64-1.326-2.97-2.961-2.97a2.966 2.966 0 0 0-2.962 2.97c0 1.64 1.326 2.97 2.962 2.97zm-23.693 0a2.966 2.966 0 0 0 2.962-2.97c0-1.64-1.326-2.97-2.962-2.97a2.966 2.966 0 0 0-2.961 2.97c0 1.64 1.326 2.97 2.961 2.97zm47.385 0a2.966 2.966 0 0 0 2.962-2.97c0-1.64-1.326-2.97-2.962-2.97a2.966 2.966 0 0 0-2.961 2.97c0 1.64 1.325 2.97 2.961 2.97zm-59.23 0a2.966 2.966 0 0 0 2.96-2.97c0-1.64-1.325-2.97-2.96-2.97a2.966 2.966 0 0 0-2.962 2.97c0 1.64 1.326 2.97 2.961 2.97zm47.384 0a2.966 2.966 0 0 0 2.961-2.97c0-1.64-1.325-2.97-2.961-2.97a2.966 2.966 0 0 0-2.962 2.97c0 1.64 1.326 2.97 2.962 2.97zm-23.692 0a2.966 2.966 0 0 0 2.961-2.97c0-1.64-1.326-2.97-2.961-2.97a2.966 2.966 0 0 0-2.962 2.97c0 1.64 1.326 2.97 2.962 2.97zm-35.539-59.411a2.966 2.966 0 0 0 2.962-2.971c0-1.64-1.326-2.97-2.962-2.97a2.966 2.966 0 0 0-2.961 2.97c0 1.64 1.326 2.97 2.961 2.97zm47.385 0a2.966 2.966 0 0 0 2.961-2.971c0-1.64-1.326-2.97-2.961-2.97a2.966 2.966 0 0 0-2.962 2.97c0 1.64 1.326 2.97 2.962 2.97zm-23.693 0a2.966 2.966 0 0 0 2.962-2.971c0-1.64-1.326-2.97-2.962-2.97a2.966 2.966 0 0 0-2.961 2.97c0 1.64 1.326 2.97 2.961 2.97zm47.385 0a2.966 2.966 0 0 0 2.962-2.971c0-1.64-1.326-2.97-2.962-2.97a2.966 2.966 0 0 0-2.961 2.97c0 1.64 1.325 2.97 2.961 2.97zm-59.23 0a2.966 2.966 0 0 0 2.96-2.971c0-1.64-1.325-2.97-2.96-2.97a2.966 2.966 0 0 0-2.962 2.97c0 1.64 1.326 2.97 2.961 2.97zm47.384 0a2.966 2.966 0 0 0 2.961-2.971c0-1.64-1.325-2.97-2.961-2.97a2.966 2.966 0 0 0-2.962 2.97c0 1.64 1.326 2.97 2.962 2.97zm-23.692 0a2.966 2.966 0 0 0 2.961-2.971c0-1.64-1.326-2.97-2.961-2.97a2.966 2.966 0 0 0-2.962 2.97c0 1.64 1.326 2.97 2.962 2.97zm-35.539 71.294a2.966 2.966 0 0 0 2.962-2.97c0-1.642-1.326-2.972-2.962-2.972a2.966 2.966 0 0 0-2.961 2.971c0 1.64 1.326 2.97 2.961 2.97zm47.385 0a2.966 2.966 0 0 0 2.961-2.97c0-1.642-1.326-2.972-2.961-2.972a2.966 2.966 0 0 0-2.962 2.971c0 1.64 1.326 2.97 2.962 2.97zm-23.693 0a2.966 2.966 0 0 0 2.962-2.97c0-1.642-1.326-2.972-2.962-2.972a2.966 2.966 0 0 0-2.961 2.971c0 1.64 1.326 2.97 2.961 2.97zm47.385 0a2.966 2.966 0 0 0 2.962-2.97c0-1.642-1.326-2.972-2.962-2.972a2.966 2.966 0 0 0-2.961 2.971c0 1.64 1.325 2.97 2.961 2.97zm-59.23 0a2.966 2.966 0 0 0 2.96-2.97c0-1.642-1.325-2.972-2.96-2.972a2.966 2.966 0 0 0-2.962 2.971c0 1.64 1.326 2.97 2.961 2.97zm47.384 0a2.966 2.966 0 0 0 2.961-2.97c0-1.642-1.325-2.972-2.961-2.972a2.966 2.966 0 0 0-2.962 2.971c0 1.64 1.326 2.97 2.962 2.97zm-23.692 0a2.966 2.966 0 0 0 2.961-2.97c0-1.642-1.326-2.972-2.961-2.972a2.966 2.966 0 0 0-2.962 2.971c0 1.64 1.326 2.97 2.962 2.97zm-35.539-59.412a2.966 2.966 0 0 0 2.962-2.97c0-1.641-1.326-2.971-2.962-2.971a2.966 2.966 0 0 0-2.961 2.97c0 1.64 1.326 2.97 2.961 2.97zm47.385 0a2.966 2.966 0 0 0 2.961-2.97c0-1.641-1.326-2.971-2.961-2.971a2.966 2.966 0 0 0-2.962 2.97c0 1.64 1.326 2.97 2.962 2.97zm-23.693 0a2.966 2.966 0 0 0 2.962-2.97c0-1.641-1.326-2.971-2.962-2.971a2.966 2.966 0 0 0-2.961 2.97c0 1.64 1.326 2.97 2.961 2.97zm47.385 0a2.966 2.966 0 0 0 2.962-2.97c0-1.641-1.326-2.971-2.962-2.971a2.966 2.966 0 0 0-2.961 2.97c0 1.64 1.325 2.97 2.961 2.97zm-59.23 0a2.966 2.966 0 0 0 2.96-2.97c0-1.641-1.325-2.971-2.96-2.971a2.966 2.966 0 0 0-2.962 2.97c0 1.64 1.326 2.97 2.961 2.97zm47.384 0a2.966 2.966 0 0 0 2.961-2.97c0-1.641-1.325-2.971-2.961-2.971a2.966 2.966 0 0 0-2.962 2.97c0 1.64 1.326 2.97 2.962 2.97zm-23.692 0a2.966 2.966 0 0 0 2.961-2.97c0-1.641-1.326-2.971-2.961-2.971a2.966 2.966 0 0 0-2.962 2.97c0 1.64 1.326 2.97 2.962 2.97zM1364.346 854a2.966 2.966 0 0 0 2.962-2.97c0-1.641-1.326-2.971-2.962-2.971a2.966 2.966 0 0 0-2.961 2.97c0 1.641 1.326 2.971 2.961 2.971zm47.385 0a2.966 2.966 0 0 0 2.961-2.97c0-1.641-1.326-2.971-2.961-2.971a2.966 2.966 0 0 0-2.962 2.97c0 1.641 1.326 2.971 2.962 2.971zm-23.693 0a2.966 2.966 0 0 0 2.962-2.97c0-1.641-1.326-2.971-2.962-2.971a2.966 2.966 0 0 0-2.961 2.97c0 1.641 1.326 2.971 2.961 2.971zm47.385 0a2.966 2.966 0 0 0 2.962-2.97c0-1.641-1.326-2.971-2.962-2.971a2.966 2.966 0 0 0-2.961 2.97c0 1.641 1.325 2.971 2.961 2.971zm-59.23 0a2.966 2.966 0 0 0 2.96-2.97c0-1.641-1.325-2.971-2.96-2.971a2.966 2.966 0 0 0-2.962 2.97c0 1.641 1.326 2.971 2.961 2.971zm47.384 0a2.966 2.966 0 0 0 2.961-2.97c0-1.641-1.325-2.971-2.961-2.971a2.966 2.966 0 0 0-2.962 2.97c0 1.641 1.326 2.971 2.962 2.971zm-23.692 0a2.966 2.966 0 0 0 2.961-2.97c0-1.641-1.326-2.971-2.961-2.971a2.966 2.966 0 0 0-2.962 2.97c0 1.641 1.326 2.971 2.962 2.971zm-35.539-59.412a2.966 2.966 0 0 0 2.962-2.97c0-1.641-1.326-2.97-2.962-2.97a2.966 2.966 0 0 0-2.961 2.97c0 1.64 1.326 2.97 2.961 2.97zm47.385 0a2.966 2.966 0 0 0 2.961-2.97c0-1.641-1.326-2.97-2.961-2.97a2.966 2.966 0 0 0-2.962 2.97c0 1.64 1.326 2.97 2.962 2.97zm-23.693 0a2.966 2.966 0 0 0 2.962-2.97c0-1.641-1.326-2.97-2.962-2.97a2.966 2.966 0 0 0-2.961 2.97c0 1.64 1.326 2.97 2.961 2.97zm47.385 0a2.966 2.966 0 0 0 2.962-2.97c0-1.641-1.326-2.97-2.962-2.97a2.966 2.966 0 0 0-2.961 2.97c0 1.64 1.325 2.97 2.961 2.97zm-59.23 0a2.966 2.966 0 0 0 2.96-2.97c0-1.641-1.325-2.97-2.96-2.97a2.966 2.966 0 0 0-2.962 2.97c0 1.64 1.326 2.97 2.961 2.97zm47.384 0a2.966 2.966 0 0 0 2.961-2.97c0-1.641-1.325-2.97-2.961-2.97a2.966 2.966 0 0 0-2.962 2.97c0 1.64 1.326 2.97 2.962 2.97zm-23.692 0a2.966 2.966 0 0 0 2.961-2.97c0-1.641-1.326-2.97-2.961-2.97a2.966 2.966 0 0 0-2.962 2.97c0 1.64 1.326 2.97 2.962 2.97zm-118.539 11.883a2.966 2.966 0 0 0 2.962-2.971c0-1.64-1.326-2.97-2.962-2.97a2.966 2.966 0 0 0-2.961 2.97c0 1.64 1.326 2.97 2.961 2.97zm47.385 0a2.966 2.966 0 0 0 2.961-2.971c0-1.64-1.326-2.97-2.961-2.97a2.966 2.966 0 0 0-2.962 2.97c0 1.64 1.326 2.97 2.962 2.97zm-23.693 0A2.966 2.966 0 0 0 1308 803.5c0-1.64-1.326-2.97-2.962-2.97a2.966 2.966 0 0 0-2.961 2.97c0 1.64 1.326 2.97 2.961 2.97zm47.385 0a2.966 2.966 0 0 0 2.962-2.971c0-1.64-1.326-2.97-2.962-2.97a2.966 2.966 0 0 0-2.961 2.97c0 1.64 1.325 2.97 2.961 2.97zm-59.23 0a2.966 2.966 0 0 0 2.96-2.971c0-1.64-1.325-2.97-2.96-2.97a2.966 2.966 0 0 0-2.962 2.97c0 1.64 1.326 2.97 2.961 2.97zm47.384 0a2.966 2.966 0 0 0 2.961-2.971c0-1.64-1.325-2.97-2.961-2.97a2.966 2.966 0 0 0-2.962 2.97c0 1.64 1.326 2.97 2.962 2.97zm-23.692 0a2.966 2.966 0 0 0 2.961-2.971c0-1.64-1.326-2.97-2.961-2.97a2.966 2.966 0 0 0-2.962 2.97c0 1.64 1.326 2.97 2.962 2.97zm-35.539 11.882a2.966 2.966 0 0 0 2.962-2.97c0-1.641-1.326-2.971-2.962-2.971a2.966 2.966 0 0 0-2.961 2.97c0 1.641 1.326 2.97 2.961 2.97zm47.385 0a2.966 2.966 0 0 0 2.961-2.97c0-1.641-1.326-2.971-2.961-2.971a2.966 2.966 0 0 0-2.962 2.97c0 1.641 1.326 2.97 2.962 2.97zm-23.693 0a2.966 2.966 0 0 0 2.962-2.97c0-1.641-1.326-2.971-2.962-2.971a2.966 2.966 0 0 0-2.961 2.97c0 1.641 1.326 2.97 2.961 2.97zm47.385 0a2.966 2.966 0 0 0 2.962-2.97c0-1.641-1.326-2.971-2.962-2.971a2.966 2.966 0 0 0-2.961 2.97c0 1.641 1.325 2.97 2.961 2.97zm-59.23 0a2.966 2.966 0 0 0 2.96-2.97c0-1.641-1.325-2.971-2.96-2.971a2.966 2.966 0 0 0-2.962 2.97c0 1.641 1.326 2.97 2.961 2.97zm47.384 0a2.966 2.966 0 0 0 2.961-2.97c0-1.641-1.325-2.971-2.961-2.971a2.966 2.966 0 0 0-2.962 2.97c0 1.641 1.326 2.97 2.962 2.97zm-23.692 0a2.966 2.966 0 0 0 2.961-2.97c0-1.641-1.326-2.971-2.961-2.971a2.966 2.966 0 0 0-2.962 2.97c0 1.641 1.326 2.97 2.962 2.97zm-35.539-59.412a2.966 2.966 0 0 0 2.962-2.97c0-1.641-1.326-2.971-2.962-2.971a2.966 2.966 0 0 0-2.961 2.97c0 1.641 1.326 2.971 2.961 2.971zm47.385 0a2.966 2.966 0 0 0 2.961-2.97c0-1.641-1.326-2.971-2.961-2.971a2.966 2.966 0 0 0-2.962 2.97c0 1.641 1.326 2.971 2.962 2.971zm-23.693 0a2.966 2.966 0 0 0 2.962-2.97c0-1.641-1.326-2.971-2.962-2.971a2.966 2.966 0 0 0-2.961 2.97c0 1.641 1.326 2.971 2.961 2.971zm47.385 0a2.966 2.966 0 0 0 2.962-2.97c0-1.641-1.326-2.971-2.962-2.971a2.966 2.966 0 0 0-2.961 2.97c0 1.641 1.325 2.971 2.961 2.971zm-59.23 0a2.966 2.966 0 0 0 2.96-2.97c0-1.641-1.325-2.971-2.96-2.971a2.966 2.966 0 0 0-2.962 2.97c0 1.641 1.326 2.971 2.961 2.971zm47.384 0a2.966 2.966 0 0 0 2.961-2.97c0-1.641-1.325-2.971-2.961-2.971a2.966 2.966 0 0 0-2.962 2.97c0 1.641 1.326 2.971 2.962 2.971zm-23.692 0a2.966 2.966 0 0 0 2.961-2.97c0-1.641-1.326-2.971-2.961-2.971a2.966 2.966 0 0 0-2.962 2.97c0 1.641 1.326 2.971 2.962 2.971zm-35.539 71.294a2.966 2.966 0 0 0 2.962-2.97c0-1.64-1.326-2.97-2.962-2.97a2.966 2.966 0 0 0-2.961 2.97c0 1.64 1.326 2.97 2.961 2.97zm47.385 0a2.966 2.966 0 0 0 2.961-2.97c0-1.64-1.326-2.97-2.961-2.97a2.966 2.966 0 0 0-2.962 2.97c0 1.64 1.326 2.97 2.962 2.97zm-23.693 0a2.966 2.966 0 0 0 2.962-2.97c0-1.64-1.326-2.97-2.962-2.97a2.966 2.966 0 0 0-2.961 2.97c0 1.64 1.326 2.97 2.961 2.97zm47.385 0a2.966 2.966 0 0 0 2.962-2.97c0-1.64-1.326-2.97-2.962-2.97a2.966 2.966 0 0 0-2.961 2.97c0 1.64 1.325 2.97 2.961 2.97zm-59.23 0a2.966 2.966 0 0 0 2.96-2.97c0-1.64-1.325-2.97-2.96-2.97a2.966 2.966 0 0 0-2.962 2.97c0 1.64 1.326 2.97 2.961 2.97zm47.384 0a2.966 2.966 0 0 0 2.961-2.97c0-1.64-1.325-2.97-2.961-2.97a2.966 2.966 0 0 0-2.962 2.97c0 1.64 1.326 2.97 2.962 2.97zm-23.692 0a2.966 2.966 0 0 0 2.961-2.97c0-1.64-1.326-2.97-2.961-2.97a2.966 2.966 0 0 0-2.962 2.97c0 1.64 1.326 2.97 2.962 2.97zm-35.539-59.411a2.966 2.966 0 0 0 2.962-2.971c0-1.64-1.326-2.97-2.962-2.97a2.966 2.966 0 0 0-2.961 2.97c0 1.64 1.326 2.97 2.961 2.97zm47.385 0a2.966 2.966 0 0 0 2.961-2.971c0-1.64-1.326-2.97-2.961-2.97a2.966 2.966 0 0 0-2.962 2.97c0 1.64 1.326 2.97 2.962 2.97zm-23.693 0a2.966 2.966 0 0 0 2.962-2.971c0-1.64-1.326-2.97-2.962-2.97a2.966 2.966 0 0 0-2.961 2.97c0 1.64 1.326 2.97 2.961 2.97zm47.385 0a2.966 2.966 0 0 0 2.962-2.971c0-1.64-1.326-2.97-2.962-2.97a2.966 2.966 0 0 0-2.961 2.97c0 1.64 1.325 2.97 2.961 2.97zm-59.23 0a2.966 2.966 0 0 0 2.96-2.971c0-1.64-1.325-2.97-2.96-2.97a2.966 2.966 0 0 0-2.962 2.97c0 1.64 1.326 2.97 2.961 2.97zm47.384 0a2.966 2.966 0 0 0 2.961-2.971c0-1.64-1.325-2.97-2.961-2.97a2.966 2.966 0 0 0-2.962 2.97c0 1.64 1.326 2.97 2.962 2.97zm-23.692 0a2.966 2.966 0 0 0 2.961-2.971c0-1.64-1.326-2.97-2.961-2.97a2.966 2.966 0 0 0-2.962 2.97c0 1.64 1.326 2.97 2.962 2.97zm-35.539 71.294a2.966 2.966 0 0 0 2.962-2.97c0-1.642-1.326-2.972-2.962-2.972a2.966 2.966 0 0 0-2.961 2.971c0 1.64 1.326 2.97 2.961 2.97zm47.385 0a2.966 2.966 0 0 0 2.961-2.97c0-1.642-1.326-2.972-2.961-2.972a2.966 2.966 0 0 0-2.962 2.971c0 1.64 1.326 2.97 2.962 2.97zm-23.693 0a2.966 2.966 0 0 0 2.962-2.97c0-1.642-1.326-2.972-2.962-2.972a2.966 2.966 0 0 0-2.961 2.971c0 1.64 1.326 2.97 2.961 2.97zm47.385 0a2.966 2.966 0 0 0 2.962-2.97c0-1.642-1.326-2.972-2.962-2.972a2.966 2.966 0 0 0-2.961 2.971c0 1.64 1.325 2.97 2.961 2.97zm-59.23 0a2.966 2.966 0 0 0 2.96-2.97c0-1.642-1.325-2.972-2.96-2.972a2.966 2.966 0 0 0-2.962 2.971c0 1.64 1.326 2.97 2.961 2.97zm47.384 0a2.966 2.966 0 0 0 2.961-2.97c0-1.642-1.325-2.972-2.961-2.972a2.966 2.966 0 0 0-2.962 2.971c0 1.64 1.326 2.97 2.962 2.97zm-23.692 0a2.966 2.966 0 0 0 2.961-2.97c0-1.642-1.326-2.972-2.961-2.972a2.966 2.966 0 0 0-2.962 2.971c0 1.64 1.326 2.97 2.962 2.97zm-35.539-59.412a2.966 2.966 0 0 0 2.962-2.97c0-1.641-1.326-2.971-2.962-2.971a2.966 2.966 0 0 0-2.961 2.97c0 1.64 1.326 2.97 2.961 2.97zm47.385 0a2.966 2.966 0 0 0 2.961-2.97c0-1.641-1.326-2.971-2.961-2.971a2.966 2.966 0 0 0-2.962 2.97c0 1.64 1.326 2.97 2.962 2.97zm-23.693 0a2.966 2.966 0 0 0 2.962-2.97c0-1.641-1.326-2.971-2.962-2.971a2.966 2.966 0 0 0-2.961 2.97c0 1.64 1.326 2.97 2.961 2.97zm47.385 0a2.966 2.966 0 0 0 2.962-2.97c0-1.641-1.326-2.971-2.962-2.971a2.966 2.966 0 0 0-2.961 2.97c0 1.64 1.325 2.97 2.961 2.97zm-59.23 0a2.966 2.966 0 0 0 2.96-2.97c0-1.641-1.325-2.971-2.96-2.971a2.966 2.966 0 0 0-2.962 2.97c0 1.64 1.326 2.97 2.961 2.97zm47.384 0a2.966 2.966 0 0 0 2.961-2.97c0-1.641-1.325-2.971-2.961-2.971a2.966 2.966 0 0 0-2.962 2.97c0 1.64 1.326 2.97 2.962 2.97zm-23.692 0a2.966 2.966 0 0 0 2.961-2.97c0-1.641-1.326-2.971-2.961-2.971a2.966 2.966 0 0 0-2.962 2.97c0 1.64 1.326 2.97 2.962 2.97zM1281.346 854a2.966 2.966 0 0 0 2.962-2.97c0-1.641-1.326-2.971-2.962-2.971a2.966 2.966 0 0 0-2.961 2.97c0 1.641 1.326 2.971 2.961 2.971zm47.385 0a2.966 2.966 0 0 0 2.961-2.97c0-1.641-1.326-2.971-2.961-2.971a2.966 2.966 0 0 0-2.962 2.97c0 1.641 1.326 2.971 2.962 2.971zm-23.693 0a2.966 2.966 0 0 0 2.962-2.97c0-1.641-1.326-2.971-2.962-2.971a2.966 2.966 0 0 0-2.961 2.97c0 1.641 1.326 2.971 2.961 2.971zm47.385 0a2.966 2.966 0 0 0 2.962-2.97c0-1.641-1.326-2.971-2.962-2.971a2.966 2.966 0 0 0-2.961 2.97c0 1.641 1.325 2.971 2.961 2.971zm-59.23 0a2.966 2.966 0 0 0 2.96-2.97c0-1.641-1.325-2.971-2.96-2.971a2.966 2.966 0 0 0-2.962 2.97c0 1.641 1.326 2.971 2.961 2.971zm47.384 0a2.966 2.966 0 0 0 2.961-2.97c0-1.641-1.325-2.971-2.961-2.971a2.966 2.966 0 0 0-2.962 2.97c0 1.641 1.326 2.971 2.962 2.971zm-23.692 0a2.966 2.966 0 0 0 2.961-2.97c0-1.641-1.326-2.971-2.961-2.971a2.966 2.966 0 0 0-2.962 2.97c0 1.641 1.326 2.971 2.962 2.971zm-35.539-59.412a2.966 2.966 0 0 0 2.962-2.97c0-1.641-1.326-2.97-2.962-2.97a2.966 2.966 0 0 0-2.961 2.97c0 1.64 1.326 2.97 2.961 2.97zm47.385 0a2.966 2.966 0 0 0 2.961-2.97c0-1.641-1.326-2.97-2.961-2.97a2.966 2.966 0 0 0-2.962 2.97c0 1.64 1.326 2.97 2.962 2.97zm-23.693 0a2.966 2.966 0 0 0 2.962-2.97c0-1.641-1.326-2.97-2.962-2.97a2.966 2.966 0 0 0-2.961 2.97c0 1.64 1.326 2.97 2.961 2.97zm47.385 0a2.966 2.966 0 0 0 2.962-2.97c0-1.641-1.326-2.97-2.962-2.97a2.966 2.966 0 0 0-2.961 2.97c0 1.64 1.325 2.97 2.961 2.97zm-59.23 0a2.966 2.966 0 0 0 2.96-2.97c0-1.641-1.325-2.97-2.96-2.97a2.966 2.966 0 0 0-2.962 2.97c0 1.64 1.326 2.97 2.961 2.97zm47.384 0a2.966 2.966 0 0 0 2.961-2.97c0-1.641-1.325-2.97-2.961-2.97a2.966 2.966 0 0 0-2.962 2.97c0 1.64 1.326 2.97 2.962 2.97zm-23.692 0a2.966 2.966 0 0 0 2.961-2.97c0-1.641-1.326-2.97-2.961-2.97a2.966 2.966 0 0 0-2.962 2.97c0 1.64 1.326 2.97 2.962 2.97zm47.461 225.883a2.966 2.966 0 0 0 2.962-2.971c0-1.64-1.326-2.97-2.962-2.97a2.966 2.966 0 0 0-2.961 2.97c0 1.64 1.326 2.97 2.961 2.97zm47.385 0a2.966 2.966 0 0 0 2.961-2.971c0-1.64-1.326-2.97-2.961-2.97a2.966 2.966 0 0 0-2.962 2.97c0 1.64 1.326 2.97 2.962 2.97zm-23.693 0a2.966 2.966 0 0 0 2.962-2.971c0-1.64-1.326-2.97-2.962-2.97a2.966 2.966 0 0 0-2.961 2.97c0 1.64 1.326 2.97 2.961 2.97zm47.385 0a2.966 2.966 0 0 0 2.962-2.971c0-1.64-1.326-2.97-2.962-2.97a2.966 2.966 0 0 0-2.961 2.97c0 1.64 1.325 2.97 2.961 2.97zm-59.23 0a2.966 2.966 0 0 0 2.96-2.971c0-1.64-1.325-2.97-2.96-2.97a2.966 2.966 0 0 0-2.962 2.97c0 1.64 1.326 2.97 2.961 2.97zm47.384 0a2.966 2.966 0 0 0 2.961-2.971c0-1.64-1.325-2.97-2.961-2.97a2.966 2.966 0 0 0-2.962 2.97c0 1.64 1.326 2.97 2.962 2.97zm-23.692 0a2.966 2.966 0 0 0 2.961-2.971c0-1.64-1.326-2.97-2.961-2.97a2.966 2.966 0 0 0-2.962 2.97c0 1.64 1.326 2.97 2.962 2.97zm-35.539 11.882a2.966 2.966 0 0 0 2.962-2.97c0-1.641-1.326-2.971-2.962-2.971a2.966 2.966 0 0 0-2.961 2.97c0 1.641 1.326 2.97 2.961 2.97zm47.385 0a2.966 2.966 0 0 0 2.961-2.97c0-1.641-1.326-2.971-2.961-2.971a2.966 2.966 0 0 0-2.962 2.97c0 1.641 1.326 2.97 2.962 2.97zm-23.693 0a2.966 2.966 0 0 0 2.962-2.97c0-1.641-1.326-2.971-2.962-2.971a2.966 2.966 0 0 0-2.961 2.97c0 1.641 1.326 2.97 2.961 2.97zm47.385 0a2.966 2.966 0 0 0 2.962-2.97c0-1.641-1.326-2.971-2.962-2.971a2.966 2.966 0 0 0-2.961 2.97c0 1.641 1.325 2.97 2.961 2.97zm-59.23 0a2.966 2.966 0 0 0 2.96-2.97c0-1.641-1.325-2.971-2.96-2.971a2.966 2.966 0 0 0-2.962 2.97c0 1.641 1.326 2.97 2.961 2.97zm47.384 0a2.966 2.966 0 0 0 2.961-2.97c0-1.641-1.325-2.971-2.961-2.971a2.966 2.966 0 0 0-2.962 2.97c0 1.641 1.326 2.97 2.962 2.97zm-23.692 0a2.966 2.966 0 0 0 2.961-2.97c0-1.641-1.326-2.971-2.961-2.971a2.966 2.966 0 0 0-2.962 2.97c0 1.641 1.326 2.97 2.962 2.97zm-35.539-59.412a2.966 2.966 0 0 0 2.962-2.97c0-1.641-1.326-2.971-2.962-2.971a2.966 2.966 0 0 0-2.961 2.97c0 1.641 1.326 2.971 2.961 2.971zm47.385 0a2.966 2.966 0 0 0 2.961-2.97c0-1.641-1.326-2.971-2.961-2.971a2.966 2.966 0 0 0-2.962 2.97c0 1.641 1.326 2.971 2.962 2.971zm-23.693 0a2.966 2.966 0 0 0 2.962-2.97c0-1.641-1.326-2.971-2.962-2.971a2.966 2.966 0 0 0-2.961 2.97c0 1.641 1.326 2.971 2.961 2.971zm47.385 0a2.966 2.966 0 0 0 2.962-2.97c0-1.641-1.326-2.971-2.962-2.971a2.966 2.966 0 0 0-2.961 2.97c0 1.641 1.325 2.971 2.961 2.971zm-59.23 0a2.966 2.966 0 0 0 2.96-2.97c0-1.641-1.325-2.971-2.96-2.971a2.966 2.966 0 0 0-2.962 2.97c0 1.641 1.326 2.971 2.961 2.971zm47.384 0a2.966 2.966 0 0 0 2.961-2.97c0-1.641-1.325-2.971-2.961-2.971a2.966 2.966 0 0 0-2.962 2.97c0 1.641 1.326 2.971 2.962 2.971zm-23.692 0a2.966 2.966 0 0 0 2.961-2.97c0-1.641-1.326-2.971-2.961-2.971a2.966 2.966 0 0 0-2.962 2.97c0 1.641 1.326 2.971 2.962 2.971zm-35.539 71.294a2.966 2.966 0 0 0 2.962-2.97c0-1.64-1.326-2.97-2.962-2.97a2.966 2.966 0 0 0-2.961 2.97c0 1.64 1.326 2.97 2.961 2.97zm47.385 0a2.966 2.966 0 0 0 2.961-2.97c0-1.64-1.326-2.97-2.961-2.97a2.966 2.966 0 0 0-2.962 2.97c0 1.64 1.326 2.97 2.962 2.97zm-23.693 0a2.966 2.966 0 0 0 2.962-2.97c0-1.64-1.326-2.97-2.962-2.97a2.966 2.966 0 0 0-2.961 2.97c0 1.64 1.326 2.97 2.961 2.97zm47.385 0a2.966 2.966 0 0 0 2.962-2.97c0-1.64-1.326-2.97-2.962-2.97a2.966 2.966 0 0 0-2.961 2.97c0 1.64 1.325 2.97 2.961 2.97zm-59.23 0a2.966 2.966 0 0 0 2.96-2.97c0-1.64-1.325-2.97-2.96-2.97a2.966 2.966 0 0 0-2.962 2.97c0 1.64 1.326 2.97 2.961 2.97zm47.384 0a2.966 2.966 0 0 0 2.961-2.97c0-1.64-1.325-2.97-2.961-2.97a2.966 2.966 0 0 0-2.962 2.97c0 1.64 1.326 2.97 2.962 2.97zm-23.692 0a2.966 2.966 0 0 0 2.961-2.97c0-1.64-1.326-2.97-2.961-2.97a2.966 2.966 0 0 0-2.962 2.97c0 1.64 1.326 2.97 2.962 2.97zm-35.539-59.411a2.966 2.966 0 0 0 2.962-2.971c0-1.64-1.326-2.97-2.962-2.97a2.966 2.966 0 0 0-2.961 2.97c0 1.64 1.326 2.97 2.961 2.97zm47.385 0a2.966 2.966 0 0 0 2.961-2.971c0-1.64-1.326-2.97-2.961-2.97a2.966 2.966 0 0 0-2.962 2.97c0 1.64 1.326 2.97 2.962 2.97zm-23.693 0a2.966 2.966 0 0 0 2.962-2.971c0-1.64-1.326-2.97-2.962-2.97a2.966 2.966 0 0 0-2.961 2.97c0 1.64 1.326 2.97 2.961 2.97zm47.385 0a2.966 2.966 0 0 0 2.962-2.971c0-1.64-1.326-2.97-2.962-2.97a2.966 2.966 0 0 0-2.961 2.97c0 1.64 1.325 2.97 2.961 2.97zm-59.23 0a2.966 2.966 0 0 0 2.96-2.971c0-1.64-1.325-2.97-2.96-2.97a2.966 2.966 0 0 0-2.962 2.97c0 1.64 1.326 2.97 2.961 2.97zm47.384 0a2.966 2.966 0 0 0 2.961-2.971c0-1.64-1.325-2.97-2.961-2.97a2.966 2.966 0 0 0-2.962 2.97c0 1.64 1.326 2.97 2.962 2.97zm-23.692 0a2.966 2.966 0 0 0 2.961-2.971c0-1.64-1.326-2.97-2.961-2.97a2.966 2.966 0 0 0-2.962 2.97c0 1.64 1.326 2.97 2.962 2.97zm-35.539 71.294a2.966 2.966 0 0 0 2.962-2.97c0-1.642-1.326-2.972-2.962-2.972a2.966 2.966 0 0 0-2.961 2.971c0 1.64 1.326 2.97 2.961 2.97zm47.385 0a2.966 2.966 0 0 0 2.961-2.97c0-1.642-1.326-2.972-2.961-2.972a2.966 2.966 0 0 0-2.962 2.971c0 1.64 1.326 2.97 2.962 2.97zm-23.693 0a2.966 2.966 0 0 0 2.962-2.97c0-1.642-1.326-2.972-2.962-2.972a2.966 2.966 0 0 0-2.961 2.971c0 1.64 1.326 2.97 2.961 2.97zm47.385 0a2.966 2.966 0 0 0 2.962-2.97c0-1.642-1.326-2.972-2.962-2.972a2.966 2.966 0 0 0-2.961 2.971c0 1.64 1.325 2.97 2.961 2.97zm-59.23 0a2.966 2.966 0 0 0 2.96-2.97c0-1.642-1.325-2.972-2.96-2.972a2.966 2.966 0 0 0-2.962 2.971c0 1.64 1.326 2.97 2.961 2.97zm47.384 0a2.966 2.966 0 0 0 2.961-2.97c0-1.642-1.325-2.972-2.961-2.972a2.966 2.966 0 0 0-2.962 2.971c0 1.64 1.326 2.97 2.962 2.97zm-23.692 0a2.966 2.966 0 0 0 2.961-2.97c0-1.642-1.326-2.972-2.961-2.972a2.966 2.966 0 0 0-2.962 2.971c0 1.64 1.326 2.97 2.962 2.97zm-35.539-59.412a2.966 2.966 0 0 0 2.962-2.97c0-1.641-1.326-2.971-2.962-2.971a2.966 2.966 0 0 0-2.961 2.97c0 1.64 1.326 2.97 2.961 2.97zm47.385 0a2.966 2.966 0 0 0 2.961-2.97c0-1.641-1.326-2.971-2.961-2.971a2.966 2.966 0 0 0-2.962 2.97c0 1.64 1.326 2.97 2.962 2.97zm-23.693 0a2.966 2.966 0 0 0 2.962-2.97c0-1.641-1.326-2.971-2.962-2.971a2.966 2.966 0 0 0-2.961 2.97c0 1.64 1.326 2.97 2.961 2.97zm47.385 0a2.966 2.966 0 0 0 2.962-2.97c0-1.641-1.326-2.971-2.962-2.971a2.966 2.966 0 0 0-2.961 2.97c0 1.64 1.325 2.97 2.961 2.97zm-59.23 0a2.966 2.966 0 0 0 2.96-2.97c0-1.641-1.325-2.971-2.96-2.971a2.966 2.966 0 0 0-2.962 2.97c0 1.64 1.326 2.97 2.961 2.97zm47.384 0a2.966 2.966 0 0 0 2.961-2.97c0-1.641-1.325-2.971-2.961-2.971a2.966 2.966 0 0 0-2.962 2.97c0 1.64 1.326 2.97 2.962 2.97zm-23.692 0a2.966 2.966 0 0 0 2.961-2.97c0-1.641-1.326-2.971-2.961-2.971a2.966 2.966 0 0 0-2.962 2.97c0 1.64 1.326 2.97 2.962 2.97zM1364.346 1068a2.966 2.966 0 0 0 2.962-2.97c0-1.641-1.326-2.971-2.962-2.971a2.966 2.966 0 0 0-2.961 2.97c0 1.641 1.326 2.971 2.961 2.971zm47.385 0a2.966 2.966 0 0 0 2.961-2.97c0-1.641-1.326-2.971-2.961-2.971a2.966 2.966 0 0 0-2.962 2.97c0 1.641 1.326 2.971 2.962 2.971zm-23.693 0a2.966 2.966 0 0 0 2.962-2.97c0-1.641-1.326-2.971-2.962-2.971a2.966 2.966 0 0 0-2.961 2.97c0 1.641 1.326 2.971 2.961 2.971zm47.385 0a2.966 2.966 0 0 0 2.962-2.97c0-1.641-1.326-2.971-2.962-2.971a2.966 2.966 0 0 0-2.961 2.97c0 1.641 1.325 2.971 2.961 2.971zm-59.23 0a2.966 2.966 0 0 0 2.96-2.97c0-1.641-1.325-2.971-2.96-2.971a2.966 2.966 0 0 0-2.962 2.97c0 1.641 1.326 2.971 2.961 2.971zm47.384 0a2.966 2.966 0 0 0 2.961-2.97c0-1.641-1.325-2.971-2.961-2.971a2.966 2.966 0 0 0-2.962 2.97c0 1.641 1.326 2.971 2.962 2.971zm-23.692 0a2.966 2.966 0 0 0 2.961-2.97c0-1.641-1.326-2.971-2.961-2.971a2.966 2.966 0 0 0-2.962 2.97c0 1.641 1.326 2.971 2.962 2.971zm-35.539-59.412a2.966 2.966 0 0 0 2.962-2.97c0-1.641-1.326-2.97-2.962-2.97a2.966 2.966 0 0 0-2.961 2.97c0 1.64 1.326 2.97 2.961 2.97zm47.385 0a2.966 2.966 0 0 0 2.961-2.97c0-1.641-1.326-2.97-2.961-2.97a2.966 2.966 0 0 0-2.962 2.97c0 1.64 1.326 2.97 2.962 2.97zm-23.693 0a2.966 2.966 0 0 0 2.962-2.97c0-1.641-1.326-2.97-2.962-2.97a2.966 2.966 0 0 0-2.961 2.97c0 1.64 1.326 2.97 2.961 2.97zm47.385 0a2.966 2.966 0 0 0 2.962-2.97c0-1.641-1.326-2.97-2.962-2.97a2.966 2.966 0 0 0-2.961 2.97c0 1.64 1.325 2.97 2.961 2.97zm-59.23 0a2.966 2.966 0 0 0 2.96-2.97c0-1.641-1.325-2.97-2.96-2.97a2.966 2.966 0 0 0-2.962 2.97c0 1.64 1.326 2.97 2.961 2.97zm47.384 0a2.966 2.966 0 0 0 2.961-2.97c0-1.641-1.325-2.97-2.961-2.97a2.966 2.966 0 0 0-2.962 2.97c0 1.64 1.326 2.97 2.962 2.97zm-23.692 0a2.966 2.966 0 0 0 2.961-2.97c0-1.641-1.326-2.97-2.961-2.97a2.966 2.966 0 0 0-2.962 2.97c0 1.64 1.326 2.97 2.962 2.97zm-118.539 11.883a2.966 2.966 0 0 0 2.962-2.971c0-1.64-1.326-2.97-2.962-2.97a2.966 2.966 0 0 0-2.961 2.97c0 1.64 1.326 2.97 2.961 2.97zm47.385 0a2.966 2.966 0 0 0 2.961-2.971c0-1.64-1.326-2.97-2.961-2.97a2.966 2.966 0 0 0-2.962 2.97c0 1.64 1.326 2.97 2.962 2.97zm-23.693 0a2.966 2.966 0 0 0 2.962-2.971c0-1.64-1.326-2.97-2.962-2.97a2.966 2.966 0 0 0-2.961 2.97c0 1.64 1.326 2.97 2.961 2.97zm47.385 0a2.966 2.966 0 0 0 2.962-2.971c0-1.64-1.326-2.97-2.962-2.97a2.966 2.966 0 0 0-2.961 2.97c0 1.64 1.325 2.97 2.961 2.97zm-59.23 0a2.966 2.966 0 0 0 2.96-2.971c0-1.64-1.325-2.97-2.96-2.97a2.966 2.966 0 0 0-2.962 2.97c0 1.64 1.326 2.97 2.961 2.97zm47.384 0a2.966 2.966 0 0 0 2.961-2.971c0-1.64-1.325-2.97-2.961-2.97a2.966 2.966 0 0 0-2.962 2.97c0 1.64 1.326 2.97 2.962 2.97zm-23.692 0a2.966 2.966 0 0 0 2.961-2.971c0-1.64-1.326-2.97-2.961-2.97a2.966 2.966 0 0 0-2.962 2.97c0 1.64 1.326 2.97 2.962 2.97zm-35.539 11.882a2.966 2.966 0 0 0 2.962-2.97c0-1.641-1.326-2.971-2.962-2.971a2.966 2.966 0 0 0-2.961 2.97c0 1.641 1.326 2.97 2.961 2.97zm47.385 0a2.966 2.966 0 0 0 2.961-2.97c0-1.641-1.326-2.971-2.961-2.971a2.966 2.966 0 0 0-2.962 2.97c0 1.641 1.326 2.97 2.962 2.97zm-23.693 0a2.966 2.966 0 0 0 2.962-2.97c0-1.641-1.326-2.971-2.962-2.971a2.966 2.966 0 0 0-2.961 2.97c0 1.641 1.326 2.97 2.961 2.97zm47.385 0a2.966 2.966 0 0 0 2.962-2.97c0-1.641-1.326-2.971-2.962-2.971a2.966 2.966 0 0 0-2.961 2.97c0 1.641 1.325 2.97 2.961 2.97zm-59.23 0a2.966 2.966 0 0 0 2.96-2.97c0-1.641-1.325-2.971-2.96-2.971a2.966 2.966 0 0 0-2.962 2.97c0 1.641 1.326 2.97 2.961 2.97zm47.384 0a2.966 2.966 0 0 0 2.961-2.97c0-1.641-1.325-2.971-2.961-2.971a2.966 2.966 0 0 0-2.962 2.97c0 1.641 1.326 2.97 2.962 2.97zm-23.692 0a2.966 2.966 0 0 0 2.961-2.97c0-1.641-1.326-2.971-2.961-2.971a2.966 2.966 0 0 0-2.962 2.97c0 1.641 1.326 2.97 2.962 2.97zm-35.539-59.412a2.966 2.966 0 0 0 2.962-2.97c0-1.641-1.326-2.971-2.962-2.971a2.966 2.966 0 0 0-2.961 2.97c0 1.641 1.326 2.971 2.961 2.971zm47.385 0a2.966 2.966 0 0 0 2.961-2.97c0-1.641-1.326-2.971-2.961-2.971a2.966 2.966 0 0 0-2.962 2.97c0 1.641 1.326 2.971 2.962 2.971zm-23.693 0a2.966 2.966 0 0 0 2.962-2.97c0-1.641-1.326-2.971-2.962-2.971a2.966 2.966 0 0 0-2.961 2.97c0 1.641 1.326 2.971 2.961 2.971zm47.385 0a2.966 2.966 0 0 0 2.962-2.97c0-1.641-1.326-2.971-2.962-2.971a2.966 2.966 0 0 0-2.961 2.97c0 1.641 1.325 2.971 2.961 2.971zm-59.23 0a2.966 2.966 0 0 0 2.96-2.97c0-1.641-1.325-2.971-2.96-2.971a2.966 2.966 0 0 0-2.962 2.97c0 1.641 1.326 2.971 2.961 2.971zm47.384 0a2.966 2.966 0 0 0 2.961-2.97c0-1.641-1.325-2.971-2.961-2.971a2.966 2.966 0 0 0-2.962 2.97c0 1.641 1.326 2.971 2.962 2.971zm-23.692 0a2.966 2.966 0 0 0 2.961-2.97c0-1.641-1.326-2.971-2.961-2.971a2.966 2.966 0 0 0-2.962 2.97c0 1.641 1.326 2.971 2.962 2.971zm-35.539 71.294a2.966 2.966 0 0 0 2.962-2.97c0-1.64-1.326-2.97-2.962-2.97a2.966 2.966 0 0 0-2.961 2.97c0 1.64 1.326 2.97 2.961 2.97zm47.385 0a2.966 2.966 0 0 0 2.961-2.97c0-1.64-1.326-2.97-2.961-2.97a2.966 2.966 0 0 0-2.962 2.97c0 1.64 1.326 2.97 2.962 2.97zm-23.693 0a2.966 2.966 0 0 0 2.962-2.97c0-1.64-1.326-2.97-2.962-2.97a2.966 2.966 0 0 0-2.961 2.97c0 1.64 1.326 2.97 2.961 2.97zm47.385 0a2.966 2.966 0 0 0 2.962-2.97c0-1.64-1.326-2.97-2.962-2.97a2.966 2.966 0 0 0-2.961 2.97c0 1.64 1.325 2.97 2.961 2.97zm-59.23 0a2.966 2.966 0 0 0 2.96-2.97c0-1.64-1.325-2.97-2.96-2.97a2.966 2.966 0 0 0-2.962 2.97c0 1.64 1.326 2.97 2.961 2.97zm47.384 0a2.966 2.966 0 0 0 2.961-2.97c0-1.64-1.325-2.97-2.961-2.97a2.966 2.966 0 0 0-2.962 2.97c0 1.64 1.326 2.97 2.962 2.97zm-23.692 0a2.966 2.966 0 0 0 2.961-2.97c0-1.64-1.326-2.97-2.961-2.97a2.966 2.966 0 0 0-2.962 2.97c0 1.64 1.326 2.97 2.962 2.97zm-35.539-59.411a2.966 2.966 0 0 0 2.962-2.971c0-1.64-1.326-2.97-2.962-2.97a2.966 2.966 0 0 0-2.961 2.97c0 1.64 1.326 2.97 2.961 2.97zm47.385 0a2.966 2.966 0 0 0 2.961-2.971c0-1.64-1.326-2.97-2.961-2.97a2.966 2.966 0 0 0-2.962 2.97c0 1.64 1.326 2.97 2.962 2.97zm-23.693 0a2.966 2.966 0 0 0 2.962-2.971c0-1.64-1.326-2.97-2.962-2.97a2.966 2.966 0 0 0-2.961 2.97c0 1.64 1.326 2.97 2.961 2.97zm47.385 0a2.966 2.966 0 0 0 2.962-2.971c0-1.64-1.326-2.97-2.962-2.97a2.966 2.966 0 0 0-2.961 2.97c0 1.64 1.325 2.97 2.961 2.97zm-59.23 0a2.966 2.966 0 0 0 2.96-2.971c0-1.64-1.325-2.97-2.96-2.97a2.966 2.966 0 0 0-2.962 2.97c0 1.64 1.326 2.97 2.961 2.97zm47.384 0a2.966 2.966 0 0 0 2.961-2.971c0-1.64-1.325-2.97-2.961-2.97a2.966 2.966 0 0 0-2.962 2.97c0 1.64 1.326 2.97 2.962 2.97zm-23.692 0a2.966 2.966 0 0 0 2.961-2.971c0-1.64-1.326-2.97-2.961-2.97a2.966 2.966 0 0 0-2.962 2.97c0 1.64 1.326 2.97 2.962 2.97zm-35.539 71.294a2.966 2.966 0 0 0 2.962-2.97c0-1.642-1.326-2.972-2.962-2.972a2.966 2.966 0 0 0-2.961 2.971c0 1.64 1.326 2.97 2.961 2.97zm47.385 0a2.966 2.966 0 0 0 2.961-2.97c0-1.642-1.326-2.972-2.961-2.972a2.966 2.966 0 0 0-2.962 2.971c0 1.64 1.326 2.97 2.962 2.97zm-23.693 0a2.966 2.966 0 0 0 2.962-2.97c0-1.642-1.326-2.972-2.962-2.972a2.966 2.966 0 0 0-2.961 2.971c0 1.64 1.326 2.97 2.961 2.97zm47.385 0a2.966 2.966 0 0 0 2.962-2.97c0-1.642-1.326-2.972-2.962-2.972a2.966 2.966 0 0 0-2.961 2.971c0 1.64 1.325 2.97 2.961 2.97zm-59.23 0a2.966 2.966 0 0 0 2.96-2.97c0-1.642-1.325-2.972-2.96-2.972a2.966 2.966 0 0 0-2.962 2.971c0 1.64 1.326 2.97 2.961 2.97zm47.384 0a2.966 2.966 0 0 0 2.961-2.97c0-1.642-1.325-2.972-2.961-2.972a2.966 2.966 0 0 0-2.962 2.971c0 1.64 1.326 2.97 2.962 2.97zm-23.692 0a2.966 2.966 0 0 0 2.961-2.97c0-1.642-1.326-2.972-2.961-2.972a2.966 2.966 0 0 0-2.962 2.971c0 1.64 1.326 2.97 2.962 2.97zm-35.539-59.412a2.966 2.966 0 0 0 2.962-2.97c0-1.641-1.326-2.971-2.962-2.971a2.966 2.966 0 0 0-2.961 2.97c0 1.64 1.326 2.97 2.961 2.97zm47.385 0a2.966 2.966 0 0 0 2.961-2.97c0-1.641-1.326-2.971-2.961-2.971a2.966 2.966 0 0 0-2.962 2.97c0 1.64 1.326 2.97 2.962 2.97zm-23.693 0a2.966 2.966 0 0 0 2.962-2.97c0-1.641-1.326-2.971-2.962-2.971a2.966 2.966 0 0 0-2.961 2.97c0 1.64 1.326 2.97 2.961 2.97zm47.385 0a2.966 2.966 0 0 0 2.962-2.97c0-1.641-1.326-2.971-2.962-2.971a2.966 2.966 0 0 0-2.961 2.97c0 1.64 1.325 2.97 2.961 2.97zm-59.23 0a2.966 2.966 0 0 0 2.96-2.97c0-1.641-1.325-2.971-2.96-2.971a2.966 2.966 0 0 0-2.962 2.97c0 1.64 1.326 2.97 2.961 2.97zm47.384 0a2.966 2.966 0 0 0 2.961-2.97c0-1.641-1.325-2.971-2.961-2.971a2.966 2.966 0 0 0-2.962 2.97c0 1.64 1.326 2.97 2.962 2.97zm-23.692 0a2.966 2.966 0 0 0 2.961-2.97c0-1.641-1.326-2.971-2.961-2.971a2.966 2.966 0 0 0-2.962 2.97c0 1.64 1.326 2.97 2.962 2.97zM1281.346 1068a2.966 2.966 0 0 0 2.962-2.97c0-1.641-1.326-2.971-2.962-2.971a2.966 2.966 0 0 0-2.961 2.97c0 1.641 1.326 2.971 2.961 2.971zm47.385 0a2.966 2.966 0 0 0 2.961-2.97c0-1.641-1.326-2.971-2.961-2.971a2.966 2.966 0 0 0-2.962 2.97c0 1.641 1.326 2.971 2.962 2.971zm-23.693 0a2.966 2.966 0 0 0 2.962-2.97c0-1.641-1.326-2.971-2.962-2.971a2.966 2.966 0 0 0-2.961 2.97c0 1.641 1.326 2.971 2.961 2.971zm47.385 0a2.966 2.966 0 0 0 2.962-2.97c0-1.641-1.326-2.971-2.962-2.971a2.966 2.966 0 0 0-2.961 2.97c0 1.641 1.325 2.971 2.961 2.971zm-59.23 0a2.966 2.966 0 0 0 2.96-2.97c0-1.641-1.325-2.971-2.96-2.971a2.966 2.966 0 0 0-2.962 2.97c0 1.641 1.326 2.971 2.961 2.971zm47.384 0a2.966 2.966 0 0 0 2.961-2.97c0-1.641-1.325-2.971-2.961-2.971a2.966 2.966 0 0 0-2.962 2.97c0 1.641 1.326 2.971 2.962 2.971zm-23.692 0a2.966 2.966 0 0 0 2.961-2.97c0-1.641-1.326-2.971-2.961-2.971a2.966 2.966 0 0 0-2.962 2.97c0 1.641 1.326 2.971 2.962 2.971zm-35.539-59.412a2.966 2.966 0 0 0 2.962-2.97c0-1.641-1.326-2.97-2.962-2.97a2.966 2.966 0 0 0-2.961 2.97c0 1.64 1.326 2.97 2.961 2.97zm47.385 0a2.966 2.966 0 0 0 2.961-2.97c0-1.641-1.326-2.97-2.961-2.97a2.966 2.966 0 0 0-2.962 2.97c0 1.64 1.326 2.97 2.962 2.97zm-23.693 0a2.966 2.966 0 0 0 2.962-2.97c0-1.641-1.326-2.97-2.962-2.97a2.966 2.966 0 0 0-2.961 2.97c0 1.64 1.326 2.97 2.961 2.97zm47.385 0a2.966 2.966 0 0 0 2.962-2.97c0-1.641-1.326-2.97-2.962-2.97a2.966 2.966 0 0 0-2.961 2.97c0 1.64 1.325 2.97 2.961 2.97zm-59.23 0a2.966 2.966 0 0 0 2.96-2.97c0-1.641-1.325-2.97-2.96-2.97a2.966 2.966 0 0 0-2.962 2.97c0 1.64 1.326 2.97 2.961 2.97zm47.384 0a2.966 2.966 0 0 0 2.961-2.97c0-1.641-1.325-2.97-2.961-2.97a2.966 2.966 0 0 0-2.962 2.97c0 1.64 1.326 2.97 2.962 2.97zm-23.692 0a2.966 2.966 0 0 0 2.961-2.97c0-1.641-1.326-2.97-2.961-2.97a2.966 2.966 0 0 0-2.962 2.97c0 1.64 1.326 2.97 2.962 2.97z" fill="#B3B8BC"/></g></svg>