<svg width="1920" height="1080" viewBox="0 0 1920 1080" xmlns="http://www.w3.org/2000/svg" xmlns:xlink="http://www.w3.org/1999/xlink"><title>987D71E4-FAF8-43EB-B83D-8CEB9005C500</title><defs><path id="a" d="M0 0h165v745H0z"/><path id="c" d="M0 0h101v403H0z"/></defs><g fill="none" fill-rule="evenodd"><path fill="#BEE1F5" d="M0 0h1920v1080H0z"/><g transform="translate(1395 336)"><mask id="b" fill="#fff"><use xlink:href="#a"/></mask><use fill="#BEE1F5" xlink:href="#a"/><path fill="#FCACAA" mask="url(#b)" transform="rotate(33 175.424 3.256)" d="M58.924-7.244h233v21h-233z"/><path fill="#FCACAA" mask="url(#b)" transform="rotate(33 85.424 273.504)" d="M-31.076 263.004h233v21h-233z"/><path fill="#FCACAA" mask="url(#b)" transform="rotate(33 84.424 105.256)" d="M-32.076 94.756h233v21h-233z"/><path fill="#FCACAA" mask="url(#b)" transform="rotate(33 86.157 437.37)" d="M-56.257 426.87H228.57v21H-56.257z"/><path fill="#FCACAA" mask="url(#b)" transform="rotate(33 82.157 644.37)" d="M-60.257 633.87H224.57v21H-60.257z"/><path fill="#FCACAA" mask="url(#b)" transform="rotate(33 33.01 735.612)" d="M-109.403 725.112h284.827v21h-284.827z"/><path fill="#FCACAA" mask="url(#b)" transform="rotate(33 155.424 28.256)" d="M38.924 17.756h233v21h-233z"/><path fill="#FCACAA" mask="url(#b)" transform="rotate(33 70.278 304.656)" d="M-52.514 294.156h245.585v21H-52.514z"/><path fill="#FCACAA" mask="url(#b)" transform="rotate(33 77.29 141.612)" d="M-54.551 131.112h263.682v21H-54.551z"/><path fill="#FCACAA" mask="url(#b)" transform="rotate(33 76.01 472.027)" d="M-60.267 461.527h272.552v21H-60.267z"/><path fill="#FCACAA" mask="url(#b)" transform="rotate(33 125.424 49.256)" d="M8.924 38.756h233v21h-233z"/><path fill="#FCACAA" mask="url(#b)" transform="rotate(33 78.382 350.401)" d="M-47.264 339.901h251.292v21H-47.264z"/><path fill="#FCACAA" mask="url(#b)" transform="rotate(33 62.52 172.502)" d="M-87.481 162.002h300v21h-300z"/><path fill="#FCACAA" mask="url(#b)" transform="rotate(33 82.684 516.971)" d="M-42.473 506.471H207.84v21H-42.473z"/><path fill="#FCACAA" mask="url(#b)" transform="rotate(33 82.424 63.256)" d="M-34.076 52.756h233v21h-233z"/><path fill="#FCACAA" mask="url(#b)" transform="rotate(33 77.106 391.285)" d="M-68.824 380.785h291.861v21H-68.824z"/><path fill="#FCACAA" mask="url(#b)" transform="rotate(33 74.106 598.285)" d="M-71.824 587.785h291.861v21H-71.824z"/><path fill="#FCACAA" mask="url(#b)" transform="rotate(33 24.96 689.527)" d="M-120.97 679.027h291.861v21H-120.97z"/><path fill="#FCACAA" mask="url(#b)" transform="rotate(33 37.445 198.143)" d="M-133.929 187.643h342.748v21h-342.748z"/><path fill="#FCACAA" mask="url(#b)" transform="rotate(33 78.684 556.971)" d="M-46.473 546.471H203.84v21H-46.473z"/><path fill="#FCACAA" mask="url(#b)" transform="rotate(33 72.01 679.027)" d="M-64.267 668.527h272.552v21H-64.267z"/><path fill="#FCACAA" mask="url(#b)" transform="rotate(33 22.863 770.27)" d="M-113.413 759.769h272.552v21h-272.552z"/></g><path fill="#FCACAA" d="M683 724.882h634V941.2H683z"/><path d="M1302.533 941.2h619.703V724.882l-619.282-.421.022.02-3.74 3.4v.203l3.74 3.4-3.74 3.4v.204l3.74 3.4-3.74 3.4v.204l3.74 3.4-3.74 3.4v.204l3.74 3.4-3.74 3.4v.204l3.74 3.4-3.74 3.4v.204l3.74 3.4-3.74 3.4v.204l3.74 3.4-3.74 3.4v.204l3.74 3.4-3.74 3.4v.203l3.74 3.4-3.74 3.401v.203l3.74 3.4-3.74 3.4v.204l3.74 3.4-3.74 3.4v.204l3.74 3.4-3.74 3.4v.204l3.74 3.4-3.74 3.4v.204l3.74 3.4-3.74 3.4v.204l3.74 3.4-3.74 3.4v.204l3.74 3.4-3.74 3.4v.204l3.74 3.4-3.74 3.4v.204l3.74 3.4-3.74 3.4v.204l3.74 3.4-3.74 3.4v.204l3.74 3.4-3.74 3.4v.204l3.74 3.4-3.74 3.4v.204l3.74 3.4-3.74 3.4v.204l3.74 3.4-3.74 3.4v.204l3.74 3.4-3.74 3.4v.204l3.74 3.4-3.74 3.4v.204l3.74 3.4-3.74 3.4v.204l3.74 3.4-3.74 3.4v.204l3.74 3.4-3.74 3.4v.204l3.74 3.4-3.74 3.4v.204l3.74 3.4-3.74 3.4v.203l3.297 2.998z" fill="#BEE1F5"/><g transform="translate(882 90)"><mask id="d" fill="#fff"><use xlink:href="#c"/></mask><use fill="#BEE1F5" xlink:href="#c"/><path fill="#FCACAA" mask="url(#d)" transform="rotate(33 107.38 2.007)" d="M36.069-4.464h142.624v12.94H36.069z"/><path fill="#FCACAA" mask="url(#d)" transform="rotate(33 50.533 167.566)" d="M-20.779 161.096h142.624v12.94H-20.779z"/><path fill="#FCACAA" mask="url(#d)" transform="rotate(33 51.678 64.86)" d="M-19.635 58.39h142.624v12.94H-19.635z"/><path fill="#FCACAA" mask="url(#d)" transform="rotate(33 50.982 269.333)" d="M-36.192 262.863h174.349v12.94H-36.192z"/><path fill="#FCACAA" mask="url(#d)" transform="rotate(33 48.426 395.136)" d="M-38.749 388.666H135.6v12.94H-38.749z"/><path fill="#FCACAA" mask="url(#d)" transform="rotate(33 95.138 17.412)" d="M23.826 10.942H166.45v12.94H23.826z"/><path fill="#FCACAA" mask="url(#d)" transform="rotate(33 41.262 187.554)" d="M-33.902 181.084h150.328v12.94H-33.902z"/><path fill="#FCACAA" mask="url(#d)" transform="rotate(33 45.554 86.294)" d="M-35.148 79.823h161.405v12.94H-35.148z"/><path fill="#FCACAA" mask="url(#d)" transform="rotate(33 44.77 288.84)" d="M-38.647 282.371h166.835v12.94H-38.647z"/><path fill="#FCACAA" mask="url(#d)" transform="rotate(33 76.775 30.352)" d="M5.462 23.882h142.624v12.94H5.462z"/><path fill="#FCACAA" mask="url(#d)" transform="rotate(33 46.223 215.742)" d="M-30.688 209.272h153.821v12.94H-30.688z"/><path fill="#FCACAA" mask="url(#d)" transform="rotate(33 36.513 105.328)" d="M-55.305 98.858h183.636v12.94H-55.305z"/><path fill="#FCACAA" mask="url(#d)" transform="rotate(33 48.856 316.536)" d="M-27.755 310.065h153.222v12.94H-27.755z"/><path fill="#FCACAA" mask="url(#d)" transform="rotate(33 50.453 38.98)" d="M-20.859 32.509h142.624v12.94H-20.859z"/><path fill="#FCACAA" mask="url(#d)" transform="rotate(33 45.442 240.936)" d="M-43.885 234.465h178.654v12.94H-43.885z"/><path fill="#FCACAA" mask="url(#d)" transform="rotate(33 43.498 366.739)" d="M-45.829 360.269h178.654v12.94H-45.829z"/><path fill="#FCACAA" mask="url(#d)" transform="rotate(33 21.164 121.129)" d="M-83.737 114.658h209.803v12.94H-83.737z"/><path fill="#FCACAA" mask="url(#d)" transform="rotate(33 46.408 341.184)" d="M-30.203 334.714h153.222v12.94H-30.203z"/><path fill="#FCACAA" mask="url(#d)" transform="rotate(33 42.738 417.868)" d="M-40.68 411.398h166.835v12.94H-40.68z"/></g><path d="M923.962 837.941c2.74 0 4.961-2.212 4.961-4.941 0-2.729-2.221-4.941-4.961-4.941S919 830.27 919 833c0 2.729 2.221 4.941 4.962 4.941zm79.384 0c2.74 0 4.962-2.212 4.962-4.941 0-2.729-2.222-4.941-4.962-4.941-2.74 0-4.961 2.212-4.961 4.941 0 2.729 2.221 4.941 4.961 4.941zm-39.692 0c2.74 0 4.961-2.212 4.961-4.941 0-2.729-2.221-4.941-4.961-4.941s-4.962 2.212-4.962 4.941c0 2.729 2.222 4.941 4.962 4.941zm79.384 0c2.74 0 4.962-2.212 4.962-4.941 0-2.729-2.221-4.941-4.962-4.941-2.74 0-4.961 2.212-4.961 4.941 0 2.729 2.221 4.941 4.961 4.941zm-99.23 0c2.74 0 4.961-2.212 4.961-4.941 0-2.729-2.221-4.941-4.961-4.941s-4.962 2.212-4.962 4.941c0 2.729 2.222 4.941 4.962 4.941zm79.384 0c2.74 0 4.962-2.212 4.962-4.941 0-2.729-2.222-4.941-4.962-4.941-2.74 0-4.961 2.212-4.961 4.941 0 2.729 2.221 4.941 4.961 4.941zm-39.692 0c2.74 0 4.962-2.212 4.962-4.941 0-2.729-2.222-4.941-4.962-4.941-2.74 0-4.962 2.212-4.962 4.941 0 2.729 2.222 4.941 4.962 4.941zm-59.538 19.765c2.74 0 4.961-2.212 4.961-4.941 0-2.73-2.221-4.941-4.961-4.941s-4.962 2.212-4.962 4.94c0 2.73 2.221 4.942 4.962 4.942zm79.384 0c2.74 0 4.962-2.212 4.962-4.941 0-2.73-2.222-4.941-4.962-4.941-2.74 0-4.961 2.212-4.961 4.94 0 2.73 2.221 4.942 4.961 4.942zm-39.692 0c2.74 0 4.961-2.212 4.961-4.941 0-2.73-2.221-4.941-4.961-4.941s-4.962 2.212-4.962 4.94c0 2.73 2.222 4.942 4.962 4.942zm79.384 0c2.74 0 4.962-2.212 4.962-4.941 0-2.73-2.221-4.941-4.962-4.941-2.74 0-4.961 2.212-4.961 4.94 0 2.73 2.221 4.942 4.961 4.942zm-99.23 0c2.74 0 4.961-2.212 4.961-4.941 0-2.73-2.221-4.941-4.961-4.941s-4.962 2.212-4.962 4.94c0 2.73 2.222 4.942 4.962 4.942zm79.384 0c2.74 0 4.962-2.212 4.962-4.941 0-2.73-2.222-4.941-4.962-4.941-2.74 0-4.961 2.212-4.961 4.94 0 2.73 2.221 4.942 4.961 4.942zm-39.692 0c2.74 0 4.962-2.212 4.962-4.941 0-2.73-2.222-4.941-4.962-4.941-2.74 0-4.962 2.212-4.962 4.94 0 2.73 2.222 4.942 4.962 4.942zm-59.538 19.765c2.74 0 4.961-2.213 4.961-4.942s-2.221-4.94-4.961-4.94S919 869.8 919 872.528c0 2.73 2.221 4.942 4.962 4.942zm79.384 0c2.74 0 4.962-2.213 4.962-4.942s-2.222-4.94-4.962-4.94c-2.74 0-4.961 2.211-4.961 4.94 0 2.73 2.221 4.942 4.961 4.942zm-39.692 0c2.74 0 4.961-2.213 4.961-4.942s-2.221-4.94-4.961-4.94-4.962 2.211-4.962 4.94c0 2.73 2.222 4.942 4.962 4.942zm79.384 0c2.74 0 4.962-2.213 4.962-4.942s-2.221-4.94-4.962-4.94c-2.74 0-4.961 2.211-4.961 4.94 0 2.73 2.221 4.942 4.961 4.942zm-99.23 0c2.74 0 4.961-2.213 4.961-4.942s-2.221-4.94-4.961-4.94-4.962 2.211-4.962 4.94c0 2.73 2.222 4.942 4.962 4.942zm79.384 0c2.74 0 4.962-2.213 4.962-4.942s-2.222-4.94-4.962-4.94c-2.74 0-4.961 2.211-4.961 4.94 0 2.73 2.221 4.942 4.961 4.942zm-39.692 0c2.74 0 4.962-2.213 4.962-4.942s-2.222-4.94-4.962-4.94c-2.74 0-4.962 2.211-4.962 4.94 0 2.73 2.222 4.942 4.962 4.942zm-59.538-98.824c2.74 0 4.961-2.212 4.961-4.941 0-2.73-2.221-4.941-4.961-4.941s-4.962 2.212-4.962 4.94c0 2.73 2.221 4.942 4.962 4.942zm0-19.765c2.74 0 4.961-2.212 4.961-4.94 0-2.73-2.221-4.942-4.961-4.942S919 751.212 919 753.941c0 2.73 2.221 4.941 4.962 4.941zm79 19.765c2.74 0 4.961-2.212 4.961-4.941 0-2.73-2.221-4.941-4.961-4.941s-4.962 2.212-4.962 4.94c0 2.73 2.221 4.942 4.962 4.942zm0-19.765c2.74 0 4.961-2.212 4.961-4.94 0-2.73-2.221-4.942-4.961-4.942S998 751.212 998 753.941c0 2.73 2.221 4.941 4.962 4.941zm-39 19.765c2.74 0 4.961-2.212 4.961-4.941 0-2.73-2.221-4.941-4.961-4.941s-4.962 2.212-4.962 4.94c0 2.73 2.221 4.942 4.962 4.942zm0-19.765c2.74 0 4.961-2.212 4.961-4.94 0-2.73-2.221-4.942-4.961-4.942S959 751.212 959 753.941c0 2.73 2.221 4.941 4.962 4.941zm79 19.765c2.74 0 4.961-2.212 4.961-4.941 0-2.73-2.221-4.941-4.961-4.941s-4.962 2.212-4.962 4.94c0 2.73 2.221 4.942 4.962 4.942zm0-19.765c2.74 0 4.961-2.212 4.961-4.94 0-2.73-2.221-4.942-4.961-4.942s-4.962 2.212-4.962 4.941c0 2.73 2.221 4.941 4.962 4.941zm-99 19.765c2.74 0 4.961-2.212 4.961-4.941 0-2.73-2.221-4.941-4.961-4.941s-4.962 2.212-4.962 4.94c0 2.73 2.221 4.942 4.962 4.942zm0-19.765c2.74 0 4.961-2.212 4.961-4.94 0-2.73-2.221-4.942-4.961-4.942S939 751.212 939 753.941c0 2.73 2.221 4.941 4.962 4.941zm79 19.765c2.74 0 4.961-2.212 4.961-4.941 0-2.73-2.221-4.941-4.961-4.941s-4.962 2.212-4.962 4.94c0 2.73 2.221 4.942 4.962 4.942zm0-19.765c2.74 0 4.961-2.212 4.961-4.94 0-2.73-2.221-4.942-4.961-4.942s-4.962 2.212-4.962 4.941c0 2.73 2.221 4.941 4.962 4.941zm-39 19.765c2.74 0 4.961-2.212 4.961-4.941 0-2.73-2.221-4.941-4.961-4.941s-4.962 2.212-4.962 4.94c0 2.73 2.221 4.942 4.962 4.942zm-1-19.765c2.74 0 4.961-2.212 4.961-4.94 0-2.73-2.221-4.942-4.961-4.942S978 751.212 978 753.941c0 2.73 2.221 4.941 4.962 4.941zm-59 138.353c2.74 0 4.961-2.212 4.961-4.94 0-2.73-2.221-4.942-4.961-4.942S919 889.565 919 892.294c0 2.73 2.221 4.941 4.962 4.941zm79.384 0c2.74 0 4.962-2.212 4.962-4.94 0-2.73-2.222-4.942-4.962-4.942-2.74 0-4.961 2.212-4.961 4.941 0 2.73 2.221 4.941 4.961 4.941zm-39.692 0c2.74 0 4.961-2.212 4.961-4.94 0-2.73-2.221-4.942-4.961-4.942s-4.962 2.212-4.962 4.941c0 2.73 2.222 4.941 4.962 4.941zm79.384 0c2.74 0 4.962-2.212 4.962-4.94 0-2.73-2.221-4.942-4.962-4.942-2.74 0-4.961 2.212-4.961 4.941 0 2.73 2.221 4.941 4.961 4.941zm-99.23 0c2.74 0 4.961-2.212 4.961-4.94 0-2.73-2.221-4.942-4.961-4.942s-4.962 2.212-4.962 4.941c0 2.73 2.222 4.941 4.962 4.941zm79.384 0c2.74 0 4.962-2.212 4.962-4.94 0-2.73-2.222-4.942-4.962-4.942-2.74 0-4.961 2.212-4.961 4.941 0 2.73 2.221 4.941 4.961 4.941zm-39.692 0c2.74 0 4.962-2.212 4.962-4.94 0-2.73-2.222-4.942-4.962-4.942-2.74 0-4.962 2.212-4.962 4.941 0 2.73 2.222 4.941 4.962 4.941zm-59.538-98.823c2.74 0 4.961-2.212 4.961-4.941 0-2.73-2.221-4.942-4.961-4.942S919 790.742 919 793.471s2.221 4.94 4.962 4.94zm79.384 0c2.74 0 4.962-2.212 4.962-4.941 0-2.73-2.222-4.942-4.962-4.942-2.74 0-4.961 2.213-4.961 4.942s2.221 4.94 4.961 4.94zm-39.692 0c2.74 0 4.961-2.212 4.961-4.941 0-2.73-2.221-4.942-4.961-4.942s-4.962 2.213-4.962 4.942 2.222 4.94 4.962 4.94zm79.384 0c2.74 0 4.962-2.212 4.962-4.941 0-2.73-2.221-4.942-4.962-4.942-2.74 0-4.961 2.213-4.961 4.942s2.221 4.94 4.961 4.94zm-99.23 0c2.74 0 4.961-2.212 4.961-4.941 0-2.73-2.221-4.942-4.961-4.942s-4.962 2.213-4.962 4.942 2.222 4.94 4.962 4.94zm79.384 0c2.74 0 4.962-2.212 4.962-4.941 0-2.73-2.222-4.942-4.962-4.942-2.74 0-4.961 2.213-4.961 4.942s2.221 4.94 4.961 4.94zm-39.692 0c2.74 0 4.962-2.212 4.962-4.941 0-2.73-2.222-4.942-4.962-4.942-2.74 0-4.962 2.213-4.962 4.942s2.222 4.94 4.962 4.94zM923.962 917c2.74 0 4.961-2.212 4.961-4.941 0-2.73-2.221-4.941-4.961-4.941S919 909.33 919 912.058c0 2.73 2.221 4.942 4.962 4.942zm79.384 0c2.74 0 4.962-2.212 4.962-4.941 0-2.73-2.222-4.941-4.962-4.941-2.74 0-4.961 2.212-4.961 4.94 0 2.73 2.221 4.942 4.961 4.942zm-39.692 0c2.74 0 4.961-2.212 4.961-4.941 0-2.73-2.221-4.941-4.961-4.941s-4.962 2.212-4.962 4.94c0 2.73 2.222 4.942 4.962 4.942zm79.384 0c2.74 0 4.962-2.212 4.962-4.941 0-2.73-2.221-4.941-4.962-4.941-2.74 0-4.961 2.212-4.961 4.94 0 2.73 2.221 4.942 4.961 4.942zm-99.23 0c2.74 0 4.961-2.212 4.961-4.941 0-2.73-2.221-4.941-4.961-4.941s-4.962 2.212-4.962 4.94c0 2.73 2.222 4.942 4.962 4.942zm79.384 0c2.74 0 4.962-2.212 4.962-4.941 0-2.73-2.222-4.941-4.962-4.941-2.74 0-4.961 2.212-4.961 4.94 0 2.73 2.221 4.942 4.961 4.942zm-39.692 0c2.74 0 4.962-2.212 4.962-4.941 0-2.73-2.222-4.941-4.962-4.941-2.74 0-4.962 2.212-4.962 4.94 0 2.73 2.222 4.942 4.962 4.942zm-59.538-98.824c2.74 0 4.961-2.212 4.961-4.94 0-2.73-2.221-4.942-4.961-4.942S919 810.506 919 813.235c0 2.73 2.221 4.941 4.962 4.941zm79.384 0c2.74 0 4.962-2.212 4.962-4.94 0-2.73-2.222-4.942-4.962-4.942-2.74 0-4.961 2.212-4.961 4.941 0 2.73 2.221 4.941 4.961 4.941zm-39.692 0c2.74 0 4.961-2.212 4.961-4.94 0-2.73-2.221-4.942-4.961-4.942s-4.962 2.212-4.962 4.941c0 2.73 2.222 4.941 4.962 4.941zm79.384 0c2.74 0 4.962-2.212 4.962-4.94 0-2.73-2.221-4.942-4.962-4.942-2.74 0-4.961 2.212-4.961 4.941 0 2.73 2.221 4.941 4.961 4.941zm-99.23 0c2.74 0 4.961-2.212 4.961-4.94 0-2.73-2.221-4.942-4.961-4.942s-4.962 2.212-4.962 4.941c0 2.73 2.222 4.941 4.962 4.941zm79.384 0c2.74 0 4.962-2.212 4.962-4.94 0-2.73-2.222-4.942-4.962-4.942-2.74 0-4.961 2.212-4.961 4.941 0 2.73 2.221 4.941 4.961 4.941zm-39.692 0c2.74 0 4.962-2.212 4.962-4.94 0-2.73-2.222-4.942-4.962-4.942-2.74 0-4.962 2.212-4.962 4.941 0 2.73 2.222 4.941 4.962 4.941z" fill="#F6F6F6"/></g></svg>