<svg xmlns="http://www.w3.org/2000/svg" width="18" height="15" viewBox="0 0 18 15">
    <path fill="#9FA3A7" fill-rule="evenodd" d="M17.528 14.501a1.505 1.505 0 0 1-1.135.501H1.607c-.442 0-.82-.167-1.135-.501A1.693 1.693 0 0 1 0 13.297V4.836c.295.348.633.657 1.014.927C3.439 7.51 5.103 8.736 6.007 9.439c.381.299.691.531.929.698.237.167.554.338.949.512.395.174.763.261 1.105.261h.02c.342 0 .71-.087 1.105-.261.395-.174.711-.345.949-.512.238-.167.548-.399.929-.698 1.138-.874 2.806-2.099 5.002-3.676A5.645 5.645 0 0 0 18 4.836v8.461c0 .468-.157.87-.472 1.204zm-1.246-9.879c-2.517 1.855-4.085 3.009-4.7 3.464-.067.049-.21.158-.427.325-.218.167-.399.302-.543.405a10.56 10.56 0 0 1-.522.346 2.955 2.955 0 0 1-.578.288c-.18.064-.348.096-.502.096h-.02c-.154 0-.322-.032-.502-.096a2.955 2.955 0 0 1-.578-.288 10.56 10.56 0 0 1-.522-.346 21.416 21.416 0 0 1-.543-.405c-.217-.167-.36-.276-.427-.325a468.992 468.992 0 0 0-2.631-1.945 354.465 354.465 0 0 1-2.059-1.518C1.312 4.324.921 3.914.552 3.392.184 2.87 0 2.385 0 1.938 0 1.383.139.922.417.552c.278-.369.674-.554 1.19-.554h14.786c.435 0 .812.167 1.13.501.318.334.477.735.477 1.204 0 .561-.164 1.098-.492 1.609a4.918 4.918 0 0 1-1.226 1.31z"/>
</svg>
