<svg width="1007" height="543" viewBox="0 0 1007 543" xmlns="http://www.w3.org/2000/svg" xmlns:xlink="http://www.w3.org/1999/xlink"><title>1D262B62-B10C-4EC0-97CA-357399864A91</title><defs><path d="M926.8 519.406s-30.603 12.207-107.105 12.207c0 0-256.2 2.187-356.295 2.187-100.095 0-356.295-2.187-356.295-2.187C30.603 531.613 0 519.406 0 519.406h926.8z" id="e"/><filter x="-50%" y="-50%" width="200%" height="200%" filterUnits="objectBoundingBox" id="c"><feGaussianBlur stdDeviation="18.525 0" in="SourceGraphic"/></filter><filter x="-50%" y="-50%" width="200%" height="200%" filterUnits="objectBoundingBox" id="d"><feOffset dy="1" in="SourceAlpha" result="shadowOffsetOuter1"/><feGaussianBlur stdDeviation="4" in="shadowOffsetOuter1" result="shadowBlurOuter1"/><feColorMatrix values="0 0 0 0 0 0 0 0 0 0 0 0 0 0 0 0 0 0 1 0" in="shadowBlurOuter1"/></filter><linearGradient x1="50%" y1="100%" x2="50%" y2="95.361%" id="f"><stop offset="0%"/><stop stop-opacity="0" offset="100%"/></linearGradient><path d="M111.92 0h704.16c14.502 0 26.683 12.182 26.683 26.669v469.667c0 14.487-.089 26.668-14.824 26.668H101.544c-14.923 0-16.307-12.181-16.307-26.668V26.669C85.237 12.182 97.418 0 111.92 0z" id="a"/><mask id="g" x="0" y="0" width="757.527" height="523.004" fill="#fff"><use xlink:href="#a"/></mask><linearGradient x1="50%" y1="112.558%" x2="50%" y2="0%" id="i"><stop stop-color="#9385D5" offset="0%"/><stop stop-color="#B1A7EE" offset="60.475%"/><stop stop-color="#B2A8ED" offset="100%"/></linearGradient><path id="h" d="M111.648 38.386H812.75v437.836H111.648z"/><path id="b" d="M111.648 38.386H812.75v437.836H111.648z"/><mask id="j" x="0" y="0" width="701.102" height="437.836" fill="#fff"><use xlink:href="#b"/></mask><mask id="k" x="0" y="0" width="701.102" height="437.836" fill="#fff"><use xlink:href="#b"/></mask><linearGradient x1="50%" y1="99.741%" x2="50%" y2="0%" id="l"><stop stop-color="#D0D0D0" offset="0%"/><stop stop-color="#E7E7E7" offset="100%"/></linearGradient><linearGradient x1="100%" y1="59.021%" x2="0%" y2="59.021%" id="n"><stop offset="0%"/><stop stop-color="#FFF" stop-opacity=".5" offset="49.649%"/><stop offset="100%"/></linearGradient><path id="m" d="M1.201 513.408H928v3.599H1.201z"/><filter x="-50%" y="-50%" width="200%" height="200%" filterUnits="objectBoundingBox" id="o"><feOffset dy="1" in="SourceAlpha" result="shadowOffsetInner1"/><feComposite in="shadowOffsetInner1" in2="SourceAlpha" operator="arithmetic" k2="-1" k3="1" result="shadowInnerInner1"/><feColorMatrix values="0 0 0 0 1 0 0 0 0 1 0 0 0 0 1 0 0 0 0.300000012 0" in="shadowInnerInner1"/></filter><linearGradient x1="50%" y1="2.057%" x2="50%" y2="100%" id="q"><stop offset="0%"/><stop stop-color="#9A9A9A" offset="100%"/></linearGradient><linearGradient x1="50%" y1="50%" x2="50%" y2="0%" id="r"><stop stop-opacity="0" offset="0%"/><stop offset="100%"/></linearGradient><linearGradient x1="50%" y1="20.793%" x2="50%" y2="100%" id="s"><stop stop-color="#FFF" stop-opacity="-.064" offset="0%"/><stop stop-color="#FFF" stop-opacity="0" offset="0%"/><stop stop-color="#FFF" offset="100%"/></linearGradient><path d="M463.4 521.805c-33.638 0-80.047-.933-88.839-2.799v-5.598h177.677v5.598c-8.791 1.866-55.2 2.799-88.838 2.799z" id="p"/></defs><g transform="translate(40)" fill="none" fill-rule="evenodd"><use filter="url(#d)" xlink:href="#e" opacity=".1" fill="#000"/><use fill="#EFEFEF" xlink:href="#a"/><use fill-opacity=".1" fill="url(#f)" style="mix-blend-mode:multiply" xlink:href="#a"/><use stroke-opacity=".25" stroke="#FFF" mask="url(#g)" stroke-width="11.115" xlink:href="#a"/><use fill="url(#i)" xlink:href="#h"/><g stroke="#A8A0A0" mask="url(#j)" stroke-width="3.705"><use mask="url(#k)" xlink:href="#b"/></g><path d="M928 517.007s-30.603 15.258-106.767 14.394c-.338.864-256.538 3.599-355.891 3.599-100.836 0-357.037-2.735-357.374-3.599C31.803 532.265 1.2 517.007 1.2 517.007H928z" fill="url(#l)"/><g><use fill="#F3F3F3" xlink:href="#m"/><use fill-opacity=".02" fill="url(#n)" style="mix-blend-mode:multiply" xlink:href="#m"/><use fill="#000" filter="url(#o)" xlink:href="#m"/></g><g><use fill="#FAFAFA" xlink:href="#p"/><use fill-opacity=".03" fill="url(#q)" style="mix-blend-mode:multiply" xlink:href="#p"/><use fill-opacity=".04" fill="url(#r)" style="mix-blend-mode:multiply" xlink:href="#p"/><use fill-opacity=".3" fill="url(#s)" style="mix-blend-mode:soft-light" xlink:href="#p"/></g></g></svg>