<?xml version="1.0" encoding="UTF-8"?>
<svg width="441px" height="685px" viewBox="0 0 441 685" version="1.1" xmlns="http://www.w3.org/2000/svg" xmlns:xlink="http://www.w3.org/1999/xlink">
    <!-- Generator: Sketch 41.2 (35397) - http://www.bohemiancoding.com/sketch -->
    <title>Group 3</title>
    <desc>Created with Sketch.</desc>
    <defs>
        <filter x="-50%" y="-50%" width="200%" height="200%" filterUnits="objectBoundingBox" id="filter-1">
            <feOffset dx="12" dy="69" in="SourceAlpha" result="shadowOffsetOuter1"></feOffset>
            <feGaussianBlur stdDeviation="41" in="shadowOffsetOuter1" result="shadowBlurOuter1"></feGaussianBlur>
            <feColorMatrix values="0 0 0 0 0   0 0 0 0 0   0 0 0 0 0  0 0 0 0.22973279 0" type="matrix" in="shadowBlurOuter1" result="shadowMatrixOuter1"></feColorMatrix>
            <feMerge>
                <feMergeNode in="shadowMatrixOuter1"></feMergeNode>
                <feMergeNode in="SourceGraphic"></feMergeNode>
            </feMerge>
        </filter>
        <linearGradient x1="50%" y1="0%" x2="50%" y2="100%" id="linearGradient-2">
            <stop stop-color="#ECEFF0" offset="0%"></stop>
            <stop stop-color="#EDEFF0" offset="100%"></stop>
        </linearGradient>
        <rect id="path-3" x="2.16030534" y="0" width="276.519084" height="573" rx="43.2"></rect>
        <filter x="-50%" y="-50%" width="200%" height="200%" filterUnits="objectBoundingBox" id="filter-4">
            <feGaussianBlur stdDeviation="2" in="SourceAlpha" result="shadowBlurInner1"></feGaussianBlur>
            <feOffset dx="0" dy="0" in="shadowBlurInner1" result="shadowOffsetInner1"></feOffset>
            <feComposite in="shadowOffsetInner1" in2="SourceAlpha" operator="arithmetic" k2="-1" k3="1" result="shadowInnerInner1"></feComposite>
            <feColorMatrix values="0 0 0 0 0   0 0 0 0 0   0 0 0 0 0  0 0 0 0.200000003 0" type="matrix" in="shadowInnerInner1"></feColorMatrix>
        </filter>
        <rect id="path-5" x="6.48091603" y="4.3245283" width="267.877863" height="564.350943" rx="36.936"></rect>
        <rect id="path-6" x="8.64122137" y="6.48679245" width="263.557252" height="560.026415" rx="34.992"></rect>
        <filter x="-50%" y="-50%" width="200%" height="200%" filterUnits="objectBoundingBox" id="filter-7">
            <feGaussianBlur stdDeviation="1" in="SourceAlpha" result="shadowBlurInner1"></feGaussianBlur>
            <feOffset dx="0" dy="2" in="shadowBlurInner1" result="shadowOffsetInner1"></feOffset>
            <feComposite in="shadowOffsetInner1" in2="SourceAlpha" operator="arithmetic" k2="-1" k3="1" result="shadowInnerInner1"></feComposite>
            <feColorMatrix values="0 0 0 0 1   0 0 0 0 1   0 0 0 0 1  0 0 0 1 0" type="matrix" in="shadowInnerInner1"></feColorMatrix>
        </filter>
        <linearGradient x1="50%" y1="100%" x2="50%" y2="0%" id="linearGradient-8">
            <stop stop-color="#E0E2E3" stop-opacity="0" offset="0%"></stop>
            <stop stop-color="#E6E9EB" offset="100%"></stop>
        </linearGradient>
        <path d="M118.991524,34.5962264 L159.687865,34.5962264 C160.977472,34.5962264 162.022901,35.564303 162.022901,36.7584906 C162.022901,37.9526782 160.977472,38.9207547 159.687865,38.9207547 L118.991524,38.9207547 C117.701917,38.9207547 116.656489,37.9526782 116.656489,36.7584906 C116.656489,35.564303 117.701917,34.5962264 118.991524,34.5962264 L118.991524,34.5962264 Z" id="path-9"></path>
        <filter x="-50%" y="-50%" width="200%" height="200%" filterUnits="objectBoundingBox" id="filter-10">
            <feOffset dx="0" dy="2" in="SourceAlpha" result="shadowOffsetInner1"></feOffset>
            <feComposite in="shadowOffsetInner1" in2="SourceAlpha" operator="arithmetic" k2="-1" k3="1" result="shadowInnerInner1"></feComposite>
            <feColorMatrix values="0 0 0 0 0   0 0 0 0 0   0 0 0 0 0  0 0 0 0.01 0" type="matrix" in="shadowInnerInner1"></feColorMatrix>
        </filter>
    </defs>
    <g id="Page-1" stroke="none" stroke-width="1" fill="none" fill-rule="evenodd">
        <g id="1200*900" transform="translate(-390.000000, -152.000000)">
            <g id="Group-3" transform="translate(459.000000, 164.000000)">
                <g id="iPhone" filter="url(#filter-1)">
                    <g id="buttons" transform="translate(0.000000, 73.045326)" fill="#DEDEDE">
                        <path d="M2.16030534,0.471655353 L2.16030534,0.471655353 C1.96674198,0.471655353 2.16030534,0.623878749 2.16030534,0.471655353 L2.16030534,24.256561 C2.16030534,24.1043376 1.96674198,24.256561 2.16030534,24.256561 L2.16030534,24.256561 C0.580258015,24.256561 0,23.8002306 0,24.256561 L0,0.471655353 C0,0.927985757 0.580258015,0.471655353 2.16030534,0.471655353 L2.16030534,0.471655353 Z" id="Shape"></path>
                        <path d="M277.839695,48.0414667 L280,48.0414667 C279.637339,48.0414667 280,48.4848134 280,48.0414667 L280,91.2867497 C280,90.843403 279.637339,91.2867497 280,91.2867497 L277.839695,91.2867497 C277.960672,91.2867497 277.839695,91.1388574 277.839695,91.2867497 L277.839695,48.0414667 C277.839695,48.1893589 277.960672,48.0414667 277.839695,48.0414667 L277.839695,48.0414667 Z" id="Shape"></path>
                        <path d="M0,102.09807 L2.16030534,102.09807 C2.05277014,102.09807 2.16030534,102.245963 2.16030534,102.09807 L2.16030534,145.343353 C2.16030534,145.195461 2.05277014,145.343353 2.16030534,145.343353 L0,145.343353 C0.322365564,145.343353 0,144.900007 0,145.343353 L0,102.09807 C0,102.541417 0.322365564,102.09807 0,102.09807 L0,102.09807 Z" id="Shape"></path>
                        <path d="M0,50.2037308 L2.16030534,50.2037308 C2.05277014,50.2037308 2.16030534,50.3516231 2.16030534,50.2037308 L2.16030534,93.4490138 C2.16030534,93.3011216 2.05277014,93.4490138 2.16030534,93.4490138 L0,93.4490138 C0.322365564,93.4490138 0,93.0056672 0,93.4490138 L0,50.2037308 C0,50.6470775 0.322365564,50.2037308 0,50.2037308 L0,50.2037308 Z" id="Shape"></path>
                    </g>
                    <g id="base">
                        <use fill="url(#linearGradient-2)" fill-rule="evenodd" xlink:href="#path-3"></use>
                        <use fill-opacity="0.04" fill="#000000" fill-rule="evenodd" style="mix-blend-mode: multiply;" xlink:href="#path-3"></use>
                        <use fill="black" fill-opacity="1" filter="url(#filter-4)" xlink:href="#path-3"></use>
                    </g>
                    <g id="front">
                        <use fill="url(#linearGradient-2)" xlink:href="#path-5"></use>
                        <use fill-opacity="0.8" fill="#FFFFFF" style="mix-blend-mode: screen;" xlink:href="#path-5"></use>
                    </g>
                    <g id="inner">
                        <use fill="black" fill-opacity="1" filter="url(#filter-7)" xlink:href="#path-6"></use>
                        <use stroke-opacity="0.1" stroke="#000000" stroke-width="1.08" xlink:href="#path-6"></use>
                    </g>
                    <path d="M118.991524,34.5962264 L159.687865,34.5962264 C160.977472,34.5962264 162.022901,35.564303 162.022901,36.7584906 C162.022901,37.9526782 160.977472,38.9207547 159.687865,38.9207547 L118.991524,38.9207547 C117.701917,38.9207547 116.656489,37.9526782 116.656489,36.7584906 C116.656489,35.564303 117.701917,34.5962264 118.991524,34.5962264 L118.991524,34.5962264 Z" id="earborder" fill="#E7E8E8"></path>
                    <g id="ear">
                        <use fill="url(#linearGradient-8)" fill-rule="evenodd" xlink:href="#path-9"></use>
                        <use fill="black" fill-opacity="1" filter="url(#filter-10)" xlink:href="#path-9"></use>
                    </g>
                    <ellipse id="circle" fill="#E7E8E8" cx="97.2137405" cy="36.7584906" rx="2.16030534" ry="2.16226415"></ellipse>
                    <ellipse id="circle" fill="#E7E8E8" opacity="0.4" cx="140.419847" cy="17.2981132" rx="2.16030534" ry="2.16226415"></ellipse>
                    <rect id="screen" fill="#F4D65E" x="17.2824427" y="69.1924528" width="246.274809" height="436.777358" rx="1.296"></rect>
                </g>
            </g>
        </g>
    </g>
</svg>