<svg width="280" height="573" viewBox="0 0 280 573" xmlns="http://www.w3.org/2000/svg" xmlns:xlink="http://www.w3.org/1999/xlink"><title>70C2BE6C-2810-4828-857A-430A53B6C655</title><defs><linearGradient x1="50%" y1="0%" x2="50%" y2="100%" id="a"><stop stop-color="#ECEFF0" offset="0%"/><stop stop-color="#EDEFF0" offset="100%"/></linearGradient><rect id="b" x="2.16" width="276.519" height="573" rx="43.2"/><filter x="-50%" y="-50%" width="200%" height="200%" filterUnits="objectBoundingBox" id="c"><feGaussianBlur stdDeviation="2" in="SourceAlpha" result="shadowBlurInner1"/><feOffset in="shadowBlurInner1" result="shadowOffsetInner1"/><feComposite in="shadowOffsetInner1" in2="SourceAlpha" operator="arithmetic" k2="-1" k3="1" result="shadowInnerInner1"/><feColorMatrix values="0 0 0 0 0 0 0 0 0 0 0 0 0 0 0 0 0 0 0.200000003 0" in="shadowInnerInner1"/></filter><rect id="d" x="6.481" y="4.325" width="267.878" height="564.351" rx="36.936"/><rect id="f" x="8.641" y="6.487" width="263.557" height="560.026" rx="34.992"/><filter x="-50%" y="-50%" width="200%" height="200%" filterUnits="objectBoundingBox" id="e"><feGaussianBlur stdDeviation="1" in="SourceAlpha" result="shadowBlurInner1"/><feOffset dy="2" in="shadowBlurInner1" result="shadowOffsetInner1"/><feComposite in="shadowOffsetInner1" in2="SourceAlpha" operator="arithmetic" k2="-1" k3="1" result="shadowInnerInner1"/><feColorMatrix values="0 0 0 0 1 0 0 0 0 1 0 0 0 0 1 0 0 0 1 0" in="shadowInnerInner1"/></filter><linearGradient x1="50%" y1="100%" x2="50%" y2="0%" id="g"><stop stop-color="#E0E2E3" stop-opacity="0" offset="0%"/><stop stop-color="#E6E9EB" offset="100%"/></linearGradient><path d="M118.992 34.596h40.696c1.29 0 2.335.968 2.335 2.162 0 1.195-1.046 2.163-2.335 2.163h-40.696c-1.29 0-2.336-.968-2.336-2.163 0-1.194 1.046-2.162 2.336-2.162z" id="h"/><filter x="-50%" y="-50%" width="200%" height="200%" filterUnits="objectBoundingBox" id="i"><feOffset dy="2" in="SourceAlpha" result="shadowOffsetInner1"/><feComposite in="shadowOffsetInner1" in2="SourceAlpha" operator="arithmetic" k2="-1" k3="1" result="shadowInnerInner1"/><feColorMatrix values="0 0 0 0 0 0 0 0 0 0 0 0 0 0 0 0 0 0 0.01 0" in="shadowInnerInner1"/></filter><linearGradient x1="50%" y1="0%" x2="50%" y2="100%" id="j"><stop stop-color="#B2A8EE" offset="0%"/><stop stop-color="#ACA2EA" offset="55.499%"/><stop stop-color="#9A8DDB" offset="100%"/></linearGradient></defs><g fill="none" fill-rule="evenodd"><g fill="#DEDEDE"><path d="M2.16 73.517c-.193 0 0 .152 0 0v23.785c0-.152-.193 0 0 0-1.58 0-2.16-.456-2.16 0V73.517c0 .456.58 0 2.16 0zM277.84 121.087H280c-.363 0 0 .443 0 0v43.245c0-.443-.363 0 0 0h-2.16c.12 0 0-.148 0 0v-43.245c0 .148.12 0 0 0zM0 175.143h2.16c-.107 0 0 .148 0 0v43.246c0-.148-.107 0 0 0H0c.322 0 0-.444 0 0v-43.246c0 .444.322 0 0 0zM0 123.25h2.16c-.107 0 0 .147 0 0v43.244c0-.148-.107 0 0 0H0c.322 0 0-.443 0 0V123.25c0 .443.322 0 0 0z"/></g><use fill="url(#a)" xlink:href="#b"/><use fill-opacity=".04" fill="#000" style="mix-blend-mode:multiply" xlink:href="#b"/><use fill="#000" filter="url(#c)" xlink:href="#b"/><use fill="url(#a)" xlink:href="#d"/><use fill-opacity=".8" fill="#FFF" style="mix-blend-mode:screen" xlink:href="#d"/><use fill="#000" filter="url(#e)" xlink:href="#f"/><use stroke-opacity=".1" stroke="#000" stroke-width="1.08" xlink:href="#f"/><path d="M118.992 34.596h40.696c1.29 0 2.335.968 2.335 2.162 0 1.195-1.046 2.163-2.335 2.163h-40.696c-1.29 0-2.336-.968-2.336-2.163 0-1.194 1.046-2.162 2.336-2.162z" fill="#E7E8E8"/><g><use fill="url(#g)" xlink:href="#h"/><use fill="#000" filter="url(#i)" xlink:href="#h"/></g><ellipse fill="#E7E8E8" cx="97.214" cy="36.758" rx="2.16" ry="2.162"/><ellipse fill="#E7E8E8" opacity=".4" cx="140.42" cy="17.298" rx="2.16" ry="2.162"/><rect fill="url(#j)" x="17.282" y="69.192" width="246.275" height="436.777" rx="1.296"/></g></svg>