<svg xmlns="http://www.w3.org/2000/svg" width="37" height="36" viewBox="0 0 37 36">
    <path fill="#CBCBCB" fill-rule="evenodd" d="M18.645 36C8.562 36 .388 27.942.388 18S8.562 0 18.645 0C28.73 0 36.903 8.058 36.903 18s-8.174 18-18.258 18zm-8.648-9.24h4.028V15.63H9.997v11.13zm2.041-16.494c-1.378 0-2.279.83-2.279 1.921 0 1.07.875 1.924 2.226 1.924h.027c1.404 0 2.277-.855 2.277-1.924-.025-1.09-.873-1.921-2.25-1.921zm16.508 10.113c0-3.42-1.988-5.011-4.637-5.011-2.139 0-3.094 1.08-3.628 1.839V15.63h-4.028c.053 1.045 0 11.13 0 11.13h4.028v-6.215c0-.332.025-.666.131-.901.291-.666.954-1.355 2.066-1.355 1.458 0 2.04 1.02 2.04 2.518v5.953h4.028V20.38zm-8.293-3.135l.028-.037v.037h-.028z"/>
</svg>
