<svg width="727" height="448" viewBox="0 0 727 448" xmlns="http://www.w3.org/2000/svg" xmlns:xlink="http://www.w3.org/1999/xlink"><title>4160E954-D864-4519-9C5E-3EAA9635A603</title><defs><linearGradient x1="50%" y1="0%" x2="50%" y2="100%" id="a"><stop stop-color="#ECEFF0" offset="0%"/><stop stop-color="#EDEFF0" offset="100%"/></linearGradient><rect id="b" x="3.456" width="442.431" height="727" rx="69.12"/><filter x="-50%" y="-50%" width="200%" height="200%" filterUnits="objectBoundingBox" id="c"><feGaussianBlur stdDeviation="3" in="SourceAlpha" result="shadowBlurInner1"/><feOffset in="shadowBlurInner1" result="shadowOffsetInner1"/><feComposite in="shadowOffsetInner1" in2="SourceAlpha" operator="arithmetic" k2="-1" k3="1" result="shadowInnerInner1"/><feColorMatrix values="0 0 0 0 0 0 0 0 0 0 0 0 0 0 0 0 0 0 0.200000003 0" in="shadowInnerInner1"/></filter><rect id="d" x="10.369" y="5.487" width="428.605" height="716.026" rx="59.098"/><rect id="f" x="13.826" y="8.23" width="421.692" height="710.54" rx="55.987"/><filter x="-50%" y="-50%" width="200%" height="200%" filterUnits="objectBoundingBox" id="e"><feGaussianBlur stdDeviation="1.5" in="SourceAlpha" result="shadowBlurInner1"/><feOffset dy="3" in="shadowBlurInner1" result="shadowOffsetInner1"/><feComposite in="shadowOffsetInner1" in2="SourceAlpha" operator="arithmetic" k2="-1" k3="1" result="shadowInnerInner1"/><feColorMatrix values="0 0 0 0 1 0 0 0 0 1 0 0 0 0 1 0 0 0 1 0" in="shadowInnerInner1"/></filter><linearGradient x1="50%" y1="0%" x2="50%" y2="100%" id="g"><stop stop-color="#B2A8EE" offset="0%"/><stop stop-color="#ACA2EA" offset="55.499%"/><stop stop-color="#9A8DDB" offset="100%"/></linearGradient></defs><g transform="matrix(0 1 1 0 0 0)" fill="none" fill-rule="evenodd"><g fill="#DEDEDE"><path d="M3.456 93.275c-.31 0 0 .194 0 0v30.178c0-.193-.31 0 0 0-2.528 0-3.456-.58-3.456 0V93.275c0 .58.928 0 3.456 0zM444.544 153.63H448c-.58 0 0 .563 0 0v54.868c0-.562-.58 0 0 0h-3.456c.193 0 0-.188 0 0V153.63c0 .188.193 0 0 0zM0 222.215h3.456c-.172 0 0 .188 0 0v54.868c0-.188-.172 0 0 0H0c.516 0 0-.562 0 0v-54.868c0 .563.516 0 0 0zM0 156.374h3.456c-.172 0 0 .187 0 0v54.868c0-.188-.172 0 0 0H0c.516 0 0-.563 0 0v-54.868c0 .562.516 0 0 0z"/></g><use fill="url(#a)" xlink:href="#b"/><use fill-opacity=".04" fill="#000" style="mix-blend-mode:multiply" xlink:href="#b"/><use fill="#000" filter="url(#c)" xlink:href="#b"/><use fill="url(#a)" xlink:href="#d"/><use fill-opacity=".8" fill="#FFF" style="mix-blend-mode:screen" xlink:href="#d"/><g><use fill="#000" filter="url(#e)" xlink:href="#f"/><use stroke-opacity=".1" stroke="#000" stroke-width="1.728" xlink:href="#f"/></g><rect fill="url(#g)" x="27.652" y="68" width="394.04" height="573.955" rx="2.074"/></g></svg>