<svg width="37" height="36" viewBox="0 0 37 36" xmlns="http://www.w3.org/2000/svg"><title>BCAE6902-E29A-4613-BC82-9432B7BE59DC</title><path d="M18.272 36C8.188 36 .014 27.942.014 18S8.188 0 18.272 0c10.083 0 18.257 8.058 18.257 18s-8.174 18-18.257 18zm10.357-25.41a9.535 9.535 0 0 1-2.856 1.009c-.82-.809-1.988-1.311-3.282-1.311-2.483 0-4.496 1.86-4.496 4.154 0 .325.039.643.116.945-3.737-.173-7.051-1.826-9.268-4.34a3.898 3.898 0 0 0-.609 2.089c0 1.441.793 2.714 2 3.459a4.765 4.765 0 0 1-2.036-.521v.053c0 2.013 1.55 3.692 3.606 4.073a4.87 4.87 0 0 1-2.031.072c.572 1.65 2.233 2.851 4.201 2.886-1.539 1.113-3.478 1.778-5.585 1.778-.362 0-.72-.02-1.073-.057a13.522 13.522 0 0 0 6.893 1.865c8.272 0 12.795-6.332 12.795-11.82 0-.182-.006-.36-.014-.54a8.798 8.798 0 0 0 2.244-2.148 9.574 9.574 0 0 1-2.583.653c.929-.515 1.641-1.329 1.978-2.298z" fill="#CBCBCB" fill-rule="evenodd"/></svg>